<?xml version="1.0" encoding="UTF-8"?>
<svg xmlns="http://www.w3.org/2000/svg" xmlns:xlink="http://www.w3.org/1999/xlink" width="201.741" height="65.938" viewBox="0 0 201.741 65.938">
<defs>
<g>
<g id="glyph-0-0">
</g>
<g id="glyph-0-1">
<path d="M 0.328125 -3 L 0.328125 -2.75 L 0.4375 -2.75 C 0.640625 -2.75 0.859375 -2.71875 0.859375 -2.390625 L 0.859375 -0.546875 C 0.859375 -0.265625 0.6875 -0.265625 0.328125 -0.265625 L 0.328125 0 L 2.046875 0 L 2.046875 -0.265625 C 1.96875 -0.265625 1.875 -0.25 1.8125 -0.25 C 1.578125 -0.25 1.390625 -0.28125 1.390625 -0.53125 L 1.390625 -1.078125 C 1.390625 -1.21875 1.375 -1.359375 1.375 -1.484375 C 1.375 -2.03125 1.5625 -2.875 2.328125 -2.875 C 2.234375 -2.828125 2.203125 -2.71875 2.203125 -2.625 C 2.203125 -2.4375 2.34375 -2.3125 2.515625 -2.3125 C 2.703125 -2.3125 2.84375 -2.453125 2.84375 -2.609375 C 2.84375 -2.90625 2.5625 -3.078125 2.28125 -3.078125 C 1.84375 -3.078125 1.4375 -2.6875 1.34375 -2.3125 L 1.34375 -3.078125 L 0.984375 -3.046875 Z M 0.328125 -3 "/>
</g>
<g id="glyph-0-2">
<path d="M 0.90625 -1.59375 L 3.109375 -1.59375 C 3.21875 -1.59375 3.265625 -1.640625 3.265625 -1.734375 C 3.265625 -2.5 2.78125 -3.109375 1.90625 -3.109375 C 1.0625 -3.109375 0.265625 -2.484375 0.265625 -1.53125 C 0.265625 -0.578125 1.109375 0.0625 1.96875 0.0625 C 2.484375 0.0625 3.09375 -0.21875 3.234375 -0.765625 C 3.25 -0.78125 3.25 -0.8125 3.25 -0.84375 L 3.25 -0.859375 C 3.25 -0.90625 3.203125 -0.9375 3.140625 -0.9375 C 3 -0.9375 2.96875 -0.703125 2.890625 -0.578125 C 2.6875 -0.3125 2.34375 -0.15625 2 -0.15625 L 1.984375 -0.15625 C 1.703125 -0.15625 1.40625 -0.3125 1.234375 -0.5 C 0.953125 -0.796875 0.90625 -1.203125 0.90625 -1.59375 Z M 0.90625 -1.78125 C 0.984375 -2.3125 1.21875 -2.90625 1.890625 -2.90625 C 2.140625 -2.90625 2.34375 -2.8125 2.546875 -2.59375 C 2.703125 -2.375 2.78125 -2.0625 2.78125 -1.78125 Z M 0.90625 -1.78125 "/>
</g>
<g id="glyph-0-3">
<path d="M 0.328125 -3 L 0.328125 -2.75 L 0.484375 -2.75 C 0.6875 -2.75 0.859375 -2.71875 0.859375 -2.453125 L 0.859375 0.828125 C 0.859375 1.0625 0.6875 1.09375 0.5 1.09375 L 0.328125 1.09375 L 0.328125 1.34375 L 1.9375 1.34375 L 1.9375 1.09375 L 1.765625 1.09375 C 1.578125 1.09375 1.421875 1.078125 1.421875 0.828125 L 1.421875 -0.328125 C 1.671875 -0.0625 2.015625 0.0625 2.375 0.0625 C 3.234375 0.0625 4.078125 -0.59375 4.078125 -1.515625 C 4.078125 -2.359375 3.359375 -3.078125 2.46875 -3.078125 C 2.0625 -3.078125 1.671875 -2.921875 1.390625 -2.65625 L 1.390625 -3.078125 Z M 3.4375 -1.40625 C 3.375 -0.796875 3 -0.125 2.3125 -0.125 C 2 -0.125 1.703125 -0.296875 1.53125 -0.546875 C 1.46875 -0.609375 1.421875 -0.6875 1.421875 -0.78125 L 1.421875 -1.90625 C 1.421875 -1.984375 1.40625 -2.0625 1.40625 -2.15625 C 1.40625 -2.546875 1.9375 -2.84375 2.375 -2.84375 C 3.09375 -2.84375 3.4375 -2.09375 3.4375 -1.5 C 3.4375 -1.46875 3.4375 -1.4375 3.4375 -1.40625 Z M 3.4375 -1.40625 "/>
</g>
<g id="glyph-0-4">
<path d="M 0.390625 -4.765625 L 0.390625 -4.515625 L 0.515625 -4.515625 C 0.71875 -4.515625 0.90625 -4.484375 0.90625 -4.171875 L 0.90625 -0.703125 C 0.90625 -0.640625 0.90625 -0.59375 0.90625 -0.546875 C 0.90625 -0.265625 0.703125 -0.265625 0.421875 -0.265625 L 0.390625 -0.265625 L 0.390625 0 L 1.953125 0 L 1.953125 -0.265625 L 1.796875 -0.265625 C 1.59375 -0.265625 1.4375 -0.28125 1.4375 -0.515625 L 1.4375 -4.84375 Z M 0.390625 -4.765625 "/>
</g>
<g id="glyph-0-5">
<path d="M 1.046875 -2.75 C 1.234375 -2.875 1.484375 -2.90625 1.71875 -2.90625 C 2.03125 -2.90625 2.3125 -2.765625 2.46875 -2.484375 C 2.546875 -2.328125 2.5625 -2.171875 2.5625 -2 L 2.5625 -1.859375 C 1.71875 -1.859375 0.390625 -1.625 0.390625 -0.703125 C 0.390625 -0.25 0.890625 0.0625 1.578125 0.0625 C 1.96875 0.0625 2.46875 -0.125 2.625 -0.515625 L 2.640625 -0.515625 C 2.671875 -0.21875 2.84375 0.03125 3.1875 0.03125 C 3.5625 0.03125 3.859375 -0.234375 3.859375 -0.609375 L 3.859375 -1.015625 L 3.625 -1.015625 L 3.625 -0.671875 C 3.625 -0.484375 3.59375 -0.25 3.375 -0.25 C 3.140625 -0.25 3.109375 -0.5 3.109375 -0.65625 L 3.109375 -1.796875 C 3.109375 -1.875 3.125 -1.953125 3.125 -2.046875 C 3.125 -2.796875 2.375 -3.109375 1.734375 -3.109375 C 1.3125 -3.109375 0.625 -2.984375 0.625 -2.4375 C 0.625 -2.25 0.734375 -2.09375 0.953125 -2.09375 C 1.15625 -2.09375 1.28125 -2.234375 1.28125 -2.4375 C 1.28125 -2.578125 1.203125 -2.6875 1.046875 -2.75 Z M 2.5625 -1.671875 L 2.5625 -1 C 2.5625 -0.484375 2.171875 -0.125 1.671875 -0.125 C 1.359375 -0.125 0.96875 -0.34375 0.96875 -0.703125 C 0.96875 -1.453125 1.984375 -1.671875 2.5625 -1.671875 Z M 2.5625 -1.671875 "/>
</g>
<g id="glyph-0-6">
<path d="M 0.21875 -3 L 0.21875 -2.75 L 0.359375 -2.75 C 0.71875 -2.75 0.78125 -2.515625 0.96875 -2.109375 C 1.265625 -1.484375 1.578125 -0.84375 1.859375 -0.203125 L 1.921875 -0.078125 C 1.9375 -0.0625 1.9375 -0.03125 1.9375 0 C 1.9375 0.109375 1.828125 0.265625 1.78125 0.375 C 1.609375 0.734375 1.390625 1.21875 0.90625 1.21875 C 0.796875 1.21875 0.6875 1.171875 0.609375 1.125 C 0.734375 1.078125 0.8125 0.96875 0.8125 0.84375 C 0.8125 0.65625 0.671875 0.53125 0.5 0.53125 C 0.296875 0.53125 0.203125 0.703125 0.203125 0.84375 C 0.203125 1.21875 0.578125 1.421875 0.90625 1.421875 C 1.671875 1.421875 2 0.46875 2.21875 -0.015625 C 2.546875 -0.71875 2.890625 -1.421875 3.21875 -2.125 C 3.359375 -2.4375 3.515625 -2.75 3.953125 -2.75 L 3.953125 -3 L 3.421875 -2.96875 L 2.796875 -3 L 2.796875 -2.75 C 2.9375 -2.75 3.078125 -2.640625 3.078125 -2.5 C 3.078125 -2.40625 3.03125 -2.3125 2.984375 -2.21875 C 2.78125 -1.75 2.5625 -1.296875 2.34375 -0.84375 C 2.3125 -0.78125 2.265625 -0.703125 2.265625 -0.640625 C 2.15625 -0.75 2.09375 -0.96875 2.015625 -1.140625 C 1.8125 -1.5625 1.609375 -2 1.421875 -2.4375 C 1.390625 -2.484375 1.359375 -2.53125 1.359375 -2.578125 L 1.359375 -2.609375 C 1.375 -2.75 1.578125 -2.75 1.703125 -2.75 L 1.703125 -3 Z M 0.21875 -3 "/>
</g>
<g id="glyph-0-7">
<path d="M 0.21875 -3 L 0.21875 -2.75 L 0.328125 -2.75 C 0.515625 -2.75 0.671875 -2.734375 0.796875 -2.46875 C 1.09375 -1.890625 1.34375 -1.28125 1.609375 -0.6875 L 1.859375 -0.140625 C 1.90625 -0.046875 1.9375 0.0625 2.09375 0.0625 C 2.234375 0.0625 2.265625 -0.046875 2.3125 -0.125 L 3.203125 -2.09375 C 3.375 -2.484375 3.5625 -2.75 3.953125 -2.75 L 3.953125 -3 L 3.4375 -2.96875 L 2.796875 -3 L 2.796875 -2.75 C 2.953125 -2.75 3.078125 -2.640625 3.078125 -2.484375 C 3.078125 -2.390625 3.03125 -2.28125 2.984375 -2.1875 C 2.78125 -1.734375 2.5625 -1.28125 2.359375 -0.8125 C 2.328125 -0.734375 2.28125 -0.65625 2.265625 -0.578125 C 2.21875 -0.640625 2.1875 -0.703125 2.171875 -0.75 L 2.03125 -1.078125 C 1.8125 -1.53125 1.609375 -1.984375 1.40625 -2.4375 C 1.375 -2.484375 1.359375 -2.53125 1.359375 -2.578125 L 1.359375 -2.609375 C 1.375 -2.75 1.578125 -2.75 1.703125 -2.75 L 1.703125 -3 Z M 0.21875 -3 "/>
</g>
<g id="glyph-0-8">
<path d="M 0.375 -3 L 0.375 -2.75 L 0.46875 -2.75 C 0.6875 -2.75 0.890625 -2.71875 0.890625 -2.390625 L 0.890625 -0.546875 C 0.890625 -0.265625 0.71875 -0.265625 0.375 -0.265625 L 0.375 0 L 1.96875 0 L 1.96875 -0.265625 L 1.828125 -0.265625 C 1.625 -0.265625 1.453125 -0.28125 1.453125 -0.515625 L 1.453125 -1.8125 C 1.453125 -2.296875 1.765625 -2.875 2.515625 -2.875 C 2.90625 -2.875 3.03125 -2.546875 3.03125 -2.125 L 3.03125 -0.515625 C 3.03125 -0.265625 2.84375 -0.265625 2.609375 -0.265625 L 2.515625 -0.265625 L 2.515625 0 L 4.125 0 L 4.125 -0.265625 L 3.96875 -0.265625 C 3.78125 -0.265625 3.59375 -0.28125 3.59375 -0.515625 L 3.59375 -2.046875 C 3.59375 -2.25 3.59375 -2.46875 3.484375 -2.65625 C 3.296875 -2.984375 2.90625 -3.078125 2.578125 -3.078125 C 2.125 -3.078125 1.5625 -2.84375 1.40625 -2.390625 L 1.40625 -3.078125 L 1.046875 -3.046875 Z M 0.375 -3 "/>
</g>
<g id="glyph-0-9">
<path d="M 0.375 -3 L 0.375 -2.75 L 0.4375 -2.75 C 0.609375 -2.75 0.875 -2.734375 0.875 -2.53125 C 0.890625 -2.453125 0.890625 -2.359375 0.890625 -2.28125 L 0.890625 -0.96875 C 0.890625 -0.171875 1.375 0.0625 2.03125 0.0625 C 2.421875 0.0625 2.859375 -0.109375 3.0625 -0.53125 L 3.0625 0.0625 L 4.125 0 L 4.125 -0.265625 L 4.015625 -0.265625 C 3.8125 -0.265625 3.59375 -0.28125 3.59375 -0.59375 L 3.59375 -3.078125 L 2.515625 -3 L 2.515625 -2.75 C 2.8125 -2.75 3.03125 -2.75 3.03125 -2.390625 L 3.03125 -1.234375 C 3.03125 -0.671875 2.71875 -0.125 2.09375 -0.125 C 1.84375 -0.125 1.53125 -0.1875 1.46875 -0.546875 C 1.453125 -0.65625 1.453125 -0.78125 1.453125 -0.90625 L 1.453125 -3.078125 Z M 0.375 -3 "/>
</g>
<g id="glyph-0-10">
<path d="M 3.359375 -5.21875 C 3.28125 -5.203125 3.203125 -5 3.171875 -4.890625 C 2.453125 -3.1875 1.765625 -1.484375 1.046875 0.21875 C 0.875 0.65625 0.703125 1.09375 0.515625 1.53125 C 0.5 1.5625 0.484375 1.59375 0.484375 1.625 C 0.484375 1.6875 0.515625 1.734375 0.578125 1.734375 L 0.59375 1.734375 C 0.6875 1.71875 0.75 1.484375 0.796875 1.359375 C 1.671875 -0.734375 2.546875 -2.84375 3.40625 -4.9375 C 3.421875 -5 3.484375 -5.0625 3.484375 -5.140625 C 3.46875 -5.1875 3.421875 -5.234375 3.375 -5.234375 C 3.375 -5.234375 3.359375 -5.21875 3.359375 -5.21875 Z M 3.359375 -5.21875 "/>
</g>
<g id="glyph-0-11">
<path d="M 0.734375 -0.234375 C 0.984375 -0.03125 1.265625 0.0625 1.578125 0.0625 C 2.109375 0.0625 2.828125 -0.125 2.828125 -0.90625 L 2.828125 -0.984375 C 2.734375 -2.25 0.703125 -1.65625 0.703125 -2.453125 C 0.703125 -2.859375 1.265625 -2.9375 1.5625 -2.9375 C 1.984375 -2.9375 2.359375 -2.734375 2.40625 -2.25 L 2.40625 -2.203125 C 2.40625 -2.15625 2.421875 -2.09375 2.515625 -2.09375 C 2.609375 -2.09375 2.640625 -2.171875 2.640625 -2.265625 C 2.640625 -2.296875 2.640625 -2.34375 2.640625 -2.375 L 2.640625 -2.96875 C 2.640625 -3.03125 2.640625 -3.109375 2.53125 -3.109375 C 2.484375 -3.109375 2.421875 -3.046875 2.390625 -3.015625 L 2.328125 -2.96875 C 2.328125 -2.953125 2.296875 -2.9375 2.265625 -2.9375 C 2.234375 -2.9375 2.1875 -2.96875 2.140625 -3 C 1.96875 -3.078125 1.765625 -3.109375 1.578125 -3.109375 C 1.078125 -3.109375 0.3125 -2.984375 0.3125 -2.21875 L 0.3125 -2.171875 C 0.53125 -1 2.328125 -1.671875 2.4375 -0.765625 C 2.4375 -0.28125 2 -0.125 1.59375 -0.125 C 1.03125 -0.125 0.6875 -0.515625 0.578125 -1 C 0.546875 -1.078125 0.5625 -1.15625 0.4375 -1.15625 C 0.328125 -1.15625 0.3125 -1.09375 0.3125 -1.03125 L 0.3125 -0.0625 C 0.3125 0 0.328125 0.0625 0.40625 0.0625 C 0.515625 0.0625 0.703125 -0.171875 0.734375 -0.234375 Z M 0.734375 -0.234375 "/>
</g>
<g id="glyph-0-12">
<path d="M 2.703125 -2.78125 C 2.59375 -2.71875 2.515625 -2.625 2.515625 -2.484375 C 2.515625 -2.328125 2.640625 -2.15625 2.828125 -2.15625 C 3.0625 -2.15625 3.171875 -2.3125 3.171875 -2.5 C 3.171875 -3.109375 2.265625 -3.109375 1.984375 -3.109375 C 1.09375 -3.109375 0.3125 -2.421875 0.3125 -1.515625 L 0.3125 -1.421875 C 0.359375 -0.578125 1.109375 0.0625 2 0.0625 C 2.5 0.0625 3.015625 -0.1875 3.203125 -0.671875 C 3.21875 -0.71875 3.265625 -0.78125 3.265625 -0.84375 C 3.265625 -0.90625 3.203125 -0.921875 3.140625 -0.921875 C 3.015625 -0.921875 3 -0.765625 2.9375 -0.640625 C 2.765625 -0.328125 2.40625 -0.15625 2.0625 -0.15625 C 1.328125 -0.15625 0.953125 -0.8125 0.953125 -1.546875 C 0.953125 -2.125 1.203125 -2.828125 1.921875 -2.890625 L 2 -2.890625 C 2.234375 -2.890625 2.484375 -2.875 2.703125 -2.78125 Z M 2.703125 -2.78125 "/>
</g>
<g id="glyph-0-13">
<path d="M 0.375 -4.765625 L 0.375 -4.515625 L 0.484375 -4.515625 C 0.703125 -4.515625 0.890625 -4.484375 0.890625 -4.171875 L 0.890625 -0.703125 C 0.890625 -0.640625 0.90625 -0.59375 0.90625 -0.546875 C 0.90625 -0.265625 0.6875 -0.265625 0.40625 -0.265625 L 0.375 -0.265625 L 0.375 0 L 1.96875 0 L 1.96875 -0.265625 L 1.828125 -0.265625 C 1.625 -0.265625 1.453125 -0.28125 1.453125 -0.515625 L 1.453125 -1.8125 C 1.453125 -2.296875 1.765625 -2.875 2.515625 -2.875 C 2.90625 -2.875 3.03125 -2.546875 3.03125 -2.125 L 3.03125 -0.515625 C 3.03125 -0.265625 2.84375 -0.265625 2.609375 -0.265625 L 2.515625 -0.265625 L 2.515625 0 L 4.125 0 L 4.125 -0.265625 L 3.96875 -0.265625 C 3.78125 -0.265625 3.59375 -0.28125 3.59375 -0.515625 L 3.59375 -2.046875 C 3.59375 -2.265625 3.59375 -2.453125 3.484375 -2.640625 C 3.296875 -2.96875 2.921875 -3.078125 2.578125 -3.078125 C 2.140625 -3.078125 1.609375 -2.859375 1.421875 -2.421875 L 1.421875 -4.84375 Z M 0.375 -4.765625 "/>
</g>
<g id="glyph-0-14">
<path d="M 1.875 -3.109375 C 1.0625 -3.03125 0.265625 -2.453125 0.265625 -1.484375 L 0.265625 -1.421875 C 0.328125 -0.484375 1.171875 0.0625 2 0.0625 C 2.78125 0.0625 3.640625 -0.5 3.6875 -1.421875 L 3.6875 -1.453125 C 3.6875 -2.421875 2.875 -3.109375 1.9375 -3.109375 Z M 0.90625 -1.359375 C 0.90625 -1.421875 0.90625 -1.484375 0.90625 -1.53125 C 0.90625 -1.921875 0.9375 -2.375 1.265625 -2.65625 C 1.46875 -2.828125 1.71875 -2.90625 1.96875 -2.90625 C 2.28125 -2.90625 2.59375 -2.78125 2.796875 -2.546875 C 3.015625 -2.296875 3.046875 -1.9375 3.046875 -1.625 C 3.046875 -1.234375 3.046875 -0.796875 2.765625 -0.484375 C 2.578125 -0.265625 2.265625 -0.15625 1.984375 -0.15625 C 1.4375 -0.15625 1.03125 -0.5 0.9375 -1.078125 C 0.921875 -1.171875 0.921875 -1.265625 0.90625 -1.359375 Z M 0.90625 -1.359375 "/>
</g>
<g id="glyph-0-15">
<path d="M 0.40625 -3 L 0.40625 -2.75 L 0.4375 -2.75 C 0.6875 -2.75 0.90625 -2.734375 0.90625 -2.390625 L 0.90625 -0.546875 C 0.90625 -0.265625 0.734375 -0.265625 0.390625 -0.265625 L 0.390625 0 L 1.90625 0 L 1.90625 -0.265625 L 1.765625 -0.265625 C 1.59375 -0.265625 1.4375 -0.28125 1.4375 -0.5 L 1.4375 -3.078125 L 1.171875 -3.046875 Z M 1 -4.6875 C 0.796875 -4.671875 0.65625 -4.484375 0.65625 -4.296875 C 0.65625 -4.078125 0.828125 -3.890625 1.0625 -3.890625 C 1.296875 -3.890625 1.46875 -4.078125 1.46875 -4.296875 C 1.46875 -4.515625 1.296875 -4.703125 1.0625 -4.703125 C 1.046875 -4.703125 1.03125 -4.703125 1 -4.6875 Z M 1 -4.6875 "/>
</g>
<g id="glyph-0-16">
<path d="M 1.15625 -4.296875 C 1.15625 -3.75 0.90625 -2.953125 0.1875 -2.953125 L 0.1875 -2.75 L 0.84375 -2.75 L 0.84375 -0.96875 C 0.84375 -0.75 0.859375 -0.515625 0.96875 -0.328125 C 1.15625 -0.046875 1.5 0.0625 1.828125 0.0625 C 2.078125 0.0625 2.296875 -0.046875 2.453125 -0.265625 C 2.59375 -0.484375 2.625 -0.734375 2.625 -1 L 2.625 -1.265625 L 2.390625 -1.265625 C 2.390625 -1.171875 2.390625 -1.078125 2.390625 -0.96875 C 2.390625 -0.6875 2.328125 -0.15625 1.890625 -0.15625 C 1.5 -0.15625 1.40625 -0.5625 1.40625 -0.921875 L 1.40625 -2.75 L 2.484375 -2.75 L 2.484375 -3 L 1.40625 -3 L 1.40625 -4.296875 Z M 1.15625 -4.296875 "/>
</g>
<g id="glyph-0-17">
<path d="M 0.90625 -3 L 0.3125 -3 L 0.3125 -2.75 L 0.90625 -2.75 L 0.90625 -0.515625 C 0.90625 -0.265625 0.703125 -0.265625 0.484375 -0.265625 L 0.390625 -0.265625 L 0.390625 0 L 2.09375 0 L 2.09375 -0.265625 L 1.875 -0.265625 C 1.640625 -0.265625 1.4375 -0.28125 1.4375 -0.53125 L 1.4375 -2.75 L 2.3125 -2.75 L 2.3125 -3 L 1.40625 -3 L 1.40625 -3.640625 C 1.40625 -3.84375 1.40625 -4.03125 1.484375 -4.21875 C 1.578125 -4.46875 1.78125 -4.703125 2.046875 -4.71875 L 2.078125 -4.71875 C 2.15625 -4.71875 2.21875 -4.703125 2.296875 -4.6875 C 2.203125 -4.625 2.140625 -4.53125 2.140625 -4.40625 C 2.140625 -4.21875 2.265625 -4.078125 2.46875 -4.078125 C 2.671875 -4.078125 2.78125 -4.265625 2.78125 -4.40625 C 2.78125 -4.765625 2.390625 -4.90625 2.09375 -4.90625 C 1.609375 -4.90625 1.109375 -4.625 0.953125 -4.140625 C 0.90625 -4 0.90625 -3.859375 0.90625 -3.71875 Z M 0.90625 -3 "/>
</g>
<g id="glyph-0-18">
<path d="M 0.375 -3 L 0.375 -2.75 L 0.46875 -2.75 C 0.6875 -2.75 0.890625 -2.71875 0.890625 -2.390625 L 0.890625 -0.546875 C 0.890625 -0.265625 0.71875 -0.265625 0.375 -0.265625 L 0.375 0 L 1.96875 0 L 1.96875 -0.265625 L 1.828125 -0.265625 C 1.625 -0.265625 1.453125 -0.28125 1.453125 -0.515625 L 1.453125 -1.8125 C 1.453125 -2.296875 1.765625 -2.875 2.515625 -2.875 C 2.90625 -2.875 3.03125 -2.546875 3.03125 -2.125 L 3.03125 -0.515625 C 3.03125 -0.265625 2.84375 -0.265625 2.609375 -0.265625 L 2.515625 -0.265625 L 2.515625 0 L 4.125 0 L 4.125 -0.265625 L 3.96875 -0.265625 C 3.765625 -0.265625 3.59375 -0.28125 3.59375 -0.515625 L 3.59375 -1.8125 C 3.59375 -2.296875 3.921875 -2.875 4.65625 -2.875 C 5.0625 -2.875 5.1875 -2.546875 5.1875 -2.125 L 5.1875 -0.515625 C 5.1875 -0.265625 4.984375 -0.265625 4.765625 -0.265625 L 4.65625 -0.265625 L 4.65625 0 L 6.265625 0 L 6.265625 -0.265625 L 6.109375 -0.265625 C 5.921875 -0.265625 5.75 -0.28125 5.75 -0.515625 L 5.75 -2 C 5.75 -2.453125 5.6875 -3.078125 4.6875 -3.078125 C 4.3125 -3.078125 3.953125 -2.921875 3.703125 -2.625 C 3.65625 -2.5625 3.609375 -2.484375 3.5625 -2.421875 C 3.5 -2.921875 2.96875 -3.078125 2.578125 -3.078125 C 2.125 -3.078125 1.5625 -2.84375 1.40625 -2.390625 L 1.40625 -3.078125 L 1.046875 -3.046875 Z M 0.375 -3 "/>
</g>
<g id="glyph-0-19">
<path d="M 2.484375 -4.765625 L 2.484375 -4.515625 L 2.625 -4.515625 C 2.84375 -4.515625 3 -4.484375 3 -4.09375 L 3 -2.671875 C 2.734375 -2.9375 2.390625 -3.078125 2 -3.078125 C 1.109375 -3.078125 0.3125 -2.390625 0.3125 -1.5 C 0.3125 -0.640625 1.0625 0.0625 1.9375 0.0625 C 2.34375 0.0625 2.703125 -0.09375 2.96875 -0.359375 L 2.96875 0.0625 L 4.0625 0 L 4.0625 -0.265625 L 3.96875 -0.265625 C 3.75 -0.265625 3.53125 -0.28125 3.53125 -0.609375 L 3.53125 -4.84375 Z M 0.953125 -1.359375 L 0.953125 -1.453125 C 0.953125 -1.953125 1.03125 -2.515625 1.640625 -2.796875 C 1.78125 -2.84375 1.921875 -2.875 2.0625 -2.875 C 2.421875 -2.875 2.984375 -2.625 2.984375 -2.1875 C 2.984375 -2.09375 2.96875 -2.015625 2.96875 -1.921875 L 2.96875 -0.8125 C 2.96875 -0.734375 2.9375 -0.671875 2.890625 -0.609375 C 2.6875 -0.3125 2.328125 -0.125 1.984375 -0.125 C 1.46875 -0.125 1.09375 -0.515625 0.984375 -1.03125 C 0.96875 -1.140625 0.96875 -1.25 0.953125 -1.359375 Z M 0.953125 -1.359375 "/>
</g>
<g id="glyph-0-20">
<path d="M 1.421875 -0.125 C 1.421875 0.34375 1.265625 0.765625 0.90625 1.109375 C 0.875 1.15625 0.828125 1.1875 0.828125 1.25 C 0.828125 1.3125 0.875 1.34375 0.921875 1.34375 C 1.046875 1.34375 1.21875 1.078125 1.3125 0.953125 C 1.5 0.671875 1.609375 0.3125 1.609375 -0.03125 C 1.609375 -0.34375 1.515625 -0.8125 1.125 -0.8125 C 0.890625 -0.8125 0.71875 -0.609375 0.71875 -0.40625 C 0.71875 -0.1875 0.890625 0 1.109375 0 C 1.21875 0 1.328125 -0.046875 1.421875 -0.125 Z M 1.421875 -0.125 "/>
</g>
<g id="glyph-0-21">
<path d="M 2.90625 -2.21875 C 2.90625 -1.421875 2.78125 -0.3125 1.859375 -0.109375 C 1.78125 -0.09375 1.703125 -0.09375 1.640625 -0.09375 C 1.390625 -0.09375 1.109375 -0.125 0.921875 -0.328125 C 1.09375 -0.328125 1.234375 -0.453125 1.234375 -0.640625 C 1.234375 -0.8125 1.109375 -0.96875 0.90625 -0.96875 C 0.734375 -0.96875 0.578125 -0.859375 0.578125 -0.6875 L 0.578125 -0.640625 C 0.578125 -0.0625 1.15625 0.125 1.65625 0.125 C 2.921875 0.125 3.578125 -1.1875 3.578125 -2.328125 C 3.578125 -3.3125 3.25 -4.640625 1.96875 -4.640625 C 1.1875 -4.640625 0.375 -4.03125 0.375 -3.078125 C 0.375 -2.265625 1.015625 -1.53125 1.875 -1.53125 C 2.25 -1.53125 2.53125 -1.6875 2.765625 -1.96875 C 2.8125 -2.046875 2.875 -2.125 2.90625 -2.21875 Z M 1.046875 -2.796875 L 1.046875 -3.15625 C 1.046875 -3.578125 1.09375 -4.03125 1.515625 -4.3125 C 1.65625 -4.390625 1.8125 -4.4375 1.984375 -4.4375 C 2.71875 -4.4375 2.90625 -3.609375 2.90625 -3.03125 C 2.90625 -2.46875 2.640625 -1.734375 1.921875 -1.734375 C 1.484375 -1.734375 1.15625 -2.0625 1.078125 -2.46875 C 1.0625 -2.578125 1.0625 -2.6875 1.046875 -2.796875 Z M 1.046875 -2.796875 "/>
</g>
</g>
<clipPath id="clip-0">
<path clip-rule="nonzero" d="M 0 0.0117188 L 75 0.0117188 L 75 40 L 0 40 Z M 0 0.0117188 "/>
</clipPath>
<clipPath id="clip-1">
<path clip-rule="nonzero" d="M 62 0.0117188 L 144 0.0117188 L 144 40 L 62 40 Z M 62 0.0117188 "/>
</clipPath>
<clipPath id="clip-2">
<path clip-rule="nonzero" d="M 132 0.0117188 L 201.480469 0.0117188 L 201.480469 40 L 132 40 Z M 132 0.0117188 "/>
</clipPath>
<clipPath id="clip-3">
<path clip-rule="nonzero" d="M 64 27 L 142 27 L 142 65.863281 L 64 65.863281 Z M 64 27 "/>
</clipPath>
<clipPath id="clip-4">
<path clip-rule="nonzero" d="M 130 27 L 199 27 L 199 65.863281 L 130 65.863281 Z M 130 27 "/>
</clipPath>
</defs>
<path fill-rule="nonzero" fill="rgb(92.001343%, 97.427368%, 99.497986%)" fill-opacity="1" d="M 61.542969 6.378906 L 8.359375 6.378906 C 7.257812 6.378906 6.367188 7.269531 6.367188 8.367188 L 6.367188 25.851562 C 6.367188 26.949219 7.257812 27.839844 8.359375 27.839844 L 61.542969 27.839844 C 62.644531 27.839844 63.535156 26.949219 63.535156 25.851562 L 63.535156 8.367188 C 63.535156 7.269531 62.644531 6.378906 61.542969 6.378906 Z M 61.542969 6.378906 "/>
<g clip-path="url(#clip-0)">
<path fill="none" stroke-width="0.79701" stroke-linecap="butt" stroke-linejoin="miter" stroke="rgb(27.529907%, 49.189758%, 59.138489%)" stroke-opacity="1" stroke-miterlimit="10" d="M 26.625979 10.745231 L -26.625893 10.745231 C -27.72887 10.745231 -28.620638 9.853462 -28.620638 8.754397 L -28.620638 -8.752425 C -28.620638 -9.85149 -27.72887 -10.743259 -26.625893 -10.743259 L 26.625979 -10.743259 C 27.728956 -10.743259 28.620724 -9.85149 28.620724 -8.752425 L 28.620724 8.754397 C 28.620724 9.853462 27.728956 10.745231 26.625979 10.745231 Z M 26.625979 10.745231 " transform="matrix(0.998718, 0, 0, -0.998718, 34.951129, 17.11036)"/>
</g>
<g fill="rgb(0%, 0%, 0%)" fill-opacity="1">
<use xlink:href="#glyph-0-1" x="24.340751" y="14.658507"/>
<use xlink:href="#glyph-0-2" x="27.449167" y="14.658507"/>
<use xlink:href="#glyph-0-3" x="30.985922" y="14.658507"/>
<use xlink:href="#glyph-0-4" x="35.379355" y="14.658507"/>
<use xlink:href="#glyph-0-5" x="37.631093" y="14.658507"/>
</g>
<g fill="rgb(0%, 0%, 0%)" fill-opacity="1">
<use xlink:href="#glyph-0-6" x="41.380277" y="14.658507"/>
</g>
<g fill="rgb(0%, 0%, 0%)" fill-opacity="1">
<use xlink:href="#glyph-0-7" x="9.850354" y="22.619287"/>
</g>
<g fill="rgb(0%, 0%, 0%)" fill-opacity="1">
<use xlink:href="#glyph-0-2" x="13.814055" y="22.619287"/>
<use xlink:href="#glyph-0-8" x="17.35081" y="22.619287"/>
</g>
<g fill="rgb(0%, 0%, 0%)" fill-opacity="1">
<use xlink:href="#glyph-0-9" x="21.528332" y="22.619287"/>
<use xlink:href="#glyph-0-2" x="25.921765" y="22.619287"/>
</g>
<g fill="rgb(0%, 0%, 0%)" fill-opacity="1">
<use xlink:href="#glyph-0-10" x="32.13999" y="22.619287"/>
</g>
<g fill="rgb(0%, 0%, 0%)" fill-opacity="1">
<use xlink:href="#glyph-0-11" x="38.786554" y="22.619287"/>
<use xlink:href="#glyph-0-12" x="41.938153" y="22.619287"/>
</g>
<g fill="rgb(0%, 0%, 0%)" fill-opacity="1">
<use xlink:href="#glyph-0-13" x="45.258997" y="22.619287"/>
<use xlink:href="#glyph-0-14" x="49.65243" y="22.619287"/>
</g>
<g fill="rgb(0%, 0%, 0%)" fill-opacity="1">
<use xlink:href="#glyph-0-14" x="53.833434" y="22.619287"/>
<use xlink:href="#glyph-0-4" x="57.798528" y="22.619287"/>
</g>
<path fill-rule="nonzero" fill="rgb(91.999817%, 100%, 91.999817%)" fill-opacity="1" d="M 130.644531 6.378906 L 76.234375 6.378906 C 75.132812 6.378906 74.242188 7.269531 74.242188 8.367188 L 74.242188 25.851562 C 74.242188 26.949219 75.132812 27.839844 76.234375 27.839844 L 130.644531 27.839844 C 131.742188 27.839844 132.632812 26.949219 132.632812 25.851562 L 132.632812 8.367188 C 132.632812 7.269531 131.742188 6.378906 130.644531 6.378906 Z M 130.644531 6.378906 "/>
<g clip-path="url(#clip-1)">
<path fill="none" stroke-width="0.79701" stroke-linecap="butt" stroke-linejoin="miter" stroke="rgb(0%, 44.999695%, 0%)" stroke-opacity="1" stroke-miterlimit="10" d="M 95.816256 10.745231 L 41.336247 10.745231 C 40.23327 10.745231 39.341501 9.853462 39.341501 8.754397 L 39.341501 -8.752425 C 39.341501 -9.85149 40.23327 -10.743259 41.336247 -10.743259 L 95.816256 -10.743259 C 96.915321 -10.743259 97.80709 -9.85149 97.80709 -8.752425 L 97.80709 8.754397 C 97.80709 9.853462 96.915321 10.745231 95.816256 10.745231 Z M 95.816256 10.745231 " transform="matrix(0.998718, 0, 0, -0.998718, 34.951129, 17.11036)"/>
</g>
<g fill="rgb(0%, 0%, 0%)" fill-opacity="1">
<use xlink:href="#glyph-0-3" x="90.661606" y="14.658507"/>
</g>
<g fill="rgb(0%, 0%, 0%)" fill-opacity="1">
<use xlink:href="#glyph-0-14" x="95.27095" y="14.658507"/>
<use xlink:href="#glyph-0-4" x="99.236044" y="14.658507"/>
<use xlink:href="#glyph-0-15" x="101.487782" y="14.658507"/>
<use xlink:href="#glyph-0-12" x="103.739521" y="14.658507"/>
<use xlink:href="#glyph-0-15" x="107.276276" y="14.658507"/>
<use xlink:href="#glyph-0-2" x="109.528015" y="14.658507"/>
<use xlink:href="#glyph-0-11" x="113.06477" y="14.658507"/>
</g>
<g fill="rgb(0%, 0%, 0%)" fill-opacity="1">
<use xlink:href="#glyph-0-8" x="77.725214" y="22.619287"/>
<use xlink:href="#glyph-0-2" x="82.118647" y="22.619287"/>
<use xlink:href="#glyph-0-5" x="85.655402" y="22.619287"/>
<use xlink:href="#glyph-0-1" x="89.620496" y="22.619287"/>
<use xlink:href="#glyph-0-2" x="92.728912" y="22.619287"/>
<use xlink:href="#glyph-0-11" x="96.265667" y="22.619287"/>
<use xlink:href="#glyph-0-16" x="99.417266" y="22.619287"/>
</g>
<g fill="rgb(0%, 0%, 0%)" fill-opacity="1">
<use xlink:href="#glyph-0-10" x="105.207153" y="22.619287"/>
</g>
<g fill="rgb(0%, 0%, 0%)" fill-opacity="1">
<use xlink:href="#glyph-0-11" x="111.853717" y="22.619287"/>
<use xlink:href="#glyph-0-12" x="115.005315" y="22.619287"/>
<use xlink:href="#glyph-0-14" x="118.54207" y="22.619287"/>
<use xlink:href="#glyph-0-1" x="122.507164" y="22.619287"/>
<use xlink:href="#glyph-0-2" x="125.61558" y="22.619287"/>
</g>
<path fill-rule="nonzero" fill="rgb(91.999817%, 100%, 91.999817%)" fill-opacity="1" d="M 193.128906 6.378906 L 145.34375 6.378906 C 144.246094 6.378906 143.351562 7.269531 143.351562 8.367188 L 143.351562 25.851562 C 143.351562 26.949219 144.246094 27.839844 145.34375 27.839844 L 193.128906 27.839844 C 194.226562 27.839844 195.117188 26.949219 195.117188 25.851562 L 195.117188 8.367188 C 195.117188 7.269531 194.226562 6.378906 193.128906 6.378906 Z M 193.128906 6.378906 "/>
<g clip-path="url(#clip-2)">
<path fill="none" stroke-width="0.79701" stroke-linecap="butt" stroke-linejoin="miter" stroke="rgb(0%, 44.999695%, 0%)" stroke-opacity="1" stroke-miterlimit="10" d="M 158.38085 10.745231 L 110.534346 10.745231 C 109.43528 10.745231 108.539601 9.853462 108.539601 8.754397 L 108.539601 -8.752425 C 108.539601 -9.85149 109.43528 -10.743259 110.534346 -10.743259 L 158.38085 -10.743259 C 159.479915 -10.743259 160.371684 -9.85149 160.371684 -8.752425 L 160.371684 8.754397 C 160.371684 9.853462 159.479915 10.745231 158.38085 10.745231 Z M 158.38085 10.745231 " transform="matrix(0.998718, 0, 0, -0.998718, 34.951129, 17.11036)"/>
</g>
<g fill="rgb(0%, 0%, 0%)" fill-opacity="1">
<use xlink:href="#glyph-0-17" x="156.670862" y="14.658507"/>
<use xlink:href="#glyph-0-5" x="159.137118" y="14.658507"/>
<use xlink:href="#glyph-0-15" x="163.102212" y="14.658507"/>
<use xlink:href="#glyph-0-4" x="165.353951" y="14.658507"/>
<use xlink:href="#glyph-0-9" x="167.60569" y="14.658507"/>
<use xlink:href="#glyph-0-1" x="171.999122" y="14.658507"/>
<use xlink:href="#glyph-0-2" x="175.107539" y="14.658507"/>
<use xlink:href="#glyph-0-11" x="178.644294" y="14.658507"/>
</g>
<g fill="rgb(0%, 0%, 0%)" fill-opacity="1">
<use xlink:href="#glyph-0-18" x="146.83449" y="22.619287"/>
<use xlink:href="#glyph-0-14" x="153.369617" y="22.619287"/>
</g>
<g fill="rgb(0%, 0%, 0%)" fill-opacity="1">
<use xlink:href="#glyph-0-19" x="157.550621" y="22.619287"/>
<use xlink:href="#glyph-0-2" x="161.944054" y="22.619287"/>
<use xlink:href="#glyph-0-4" x="165.480809" y="22.619287"/>
</g>
<g fill="rgb(0%, 0%, 0%)" fill-opacity="1">
<use xlink:href="#glyph-0-10" x="170.414018" y="22.619287"/>
</g>
<g fill="rgb(0%, 0%, 0%)" fill-opacity="1">
<use xlink:href="#glyph-0-4" x="177.053618" y="22.619287"/>
<use xlink:href="#glyph-0-14" x="179.305356" y="22.619287"/>
<use xlink:href="#glyph-0-5" x="183.27045" y="22.619287"/>
<use xlink:href="#glyph-0-19" x="187.235544" y="22.619287"/>
</g>
<path fill-rule="nonzero" fill="rgb(95.999146%, 91.999817%, 95.999146%)" fill-opacity="1" d="M 128.734375 38.546875 L 78.160156 38.546875 C 77.0625 38.546875 76.171875 39.4375 76.171875 40.539062 L 76.171875 57.507812 C 76.171875 58.605469 77.0625 59.496094 78.160156 59.496094 L 128.734375 59.496094 C 129.835938 59.496094 130.726562 58.605469 130.726562 57.507812 L 130.726562 40.539062 C 130.726562 39.4375 129.835938 38.546875 128.734375 38.546875 Z M 128.734375 38.546875 "/>
<g clip-path="url(#clip-3)">
<path fill="none" stroke-width="0.79701" stroke-linecap="butt" stroke-linejoin="miter" stroke="rgb(27.49939%, 0%, 27.49939%)" stroke-opacity="1" stroke-miterlimit="10" d="M 93.903647 -21.464036 L 43.2645 -21.464036 C 42.165435 -21.464036 41.273666 -22.355804 41.273666 -23.458781 L 41.273666 -40.449316 C 41.273666 -41.548381 42.165435 -42.44015 43.2645 -42.44015 L 93.903647 -42.44015 C 95.006624 -42.44015 95.898392 -41.548381 95.898392 -40.449316 L 95.898392 -23.458781 C 95.898392 -22.355804 95.006624 -21.464036 93.903647 -21.464036 Z M 93.903647 -21.464036 " transform="matrix(0.998718, 0, 0, -0.998718, 34.951129, 17.11036)"/>
</g>
<g fill="rgb(0%, 0%, 0%)" fill-opacity="1">
<use xlink:href="#glyph-0-18" x="90.833386" y="46.700371"/>
<use xlink:href="#glyph-0-2" x="97.368512" y="46.700371"/>
<use xlink:href="#glyph-0-16" x="100.905268" y="46.700371"/>
<use xlink:href="#glyph-0-1" x="104.013684" y="46.700371"/>
<use xlink:href="#glyph-0-15" x="107.1221" y="46.700371"/>
<use xlink:href="#glyph-0-12" x="109.373839" y="46.700371"/>
<use xlink:href="#glyph-0-11" x="112.910594" y="46.700371"/>
</g>
<g fill="rgb(0%, 0%, 0%)" fill-opacity="1">
<use xlink:href="#glyph-0-7" x="79.653739" y="54.660152"/>
<use xlink:href="#glyph-0-15" x="83.83335" y="54.660152"/>
<use xlink:href="#glyph-0-14" x="86.085089" y="54.660152"/>
<use xlink:href="#glyph-0-4" x="90.050183" y="54.660152"/>
<use xlink:href="#glyph-0-5" x="92.301921" y="54.660152"/>
<use xlink:href="#glyph-0-16" x="96.267015" y="54.660152"/>
<use xlink:href="#glyph-0-15" x="99.375431" y="54.660152"/>
<use xlink:href="#glyph-0-14" x="101.62717" y="54.660152"/>
<use xlink:href="#glyph-0-8" x="105.592264" y="54.660152"/>
<use xlink:href="#glyph-0-20" x="109.985697" y="54.660152"/>
</g>
<g fill="rgb(0%, 0%, 0%)" fill-opacity="1">
<use xlink:href="#glyph-0-3" x="114.918906" y="54.660152"/>
<use xlink:href="#glyph-0-21" x="119.312338" y="54.660152"/>
<use xlink:href="#glyph-0-21" x="123.277432" y="54.660152"/>
</g>
<path fill-rule="nonzero" fill="rgb(100%, 94.999695%, 89.99939%)" fill-opacity="1" d="M 185.523438 39.167969 L 143.433594 39.167969 C 142.335938 39.167969 141.445312 40.058594 141.445312 41.15625 L 141.445312 56.898438 C 141.445312 57.996094 142.335938 58.886719 143.433594 58.886719 L 185.523438 58.886719 C 186.621094 58.886719 187.511719 57.996094 187.511719 56.898438 L 187.511719 41.15625 C 187.511719 40.058594 186.621094 39.167969 185.523438 39.167969 Z M 185.523438 39.167969 "/>
<g clip-path="url(#clip-4)">
<path fill="none" stroke-width="0.79701" stroke-linecap="butt" stroke-linejoin="miter" stroke="rgb(69.999695%, 34.999084%, 0%)" stroke-opacity="1" stroke-miterlimit="10" d="M 150.765617 -22.085927 L 108.621737 -22.085927 C 107.522672 -22.085927 106.630903 -22.977696 106.630903 -24.076761 L 106.630903 -39.839159 C 106.630903 -40.938224 107.522672 -41.829993 108.621737 -41.829993 L 150.765617 -41.829993 C 151.864682 -41.829993 152.756451 -40.938224 152.756451 -39.839159 L 152.756451 -24.076761 C 152.756451 -22.977696 151.864682 -22.085927 150.765617 -22.085927 Z M 150.765617 -22.085927 " transform="matrix(0.998718, 0, 0, -0.998718, 34.951129, 17.11036)"/>
</g>
<g fill="rgb(0%, 0%, 0%)" fill-opacity="1">
<use xlink:href="#glyph-0-12" x="153.630765" y="47.445415"/>
<use xlink:href="#glyph-0-4" x="157.16752" y="47.445415"/>
<use xlink:href="#glyph-0-5" x="159.419259" y="47.445415"/>
<use xlink:href="#glyph-0-15" x="163.384353" y="47.445415"/>
<use xlink:href="#glyph-0-18" x="165.636091" y="47.445415"/>
<use xlink:href="#glyph-0-11" x="172.171218" y="47.445415"/>
</g>
<g fill="rgb(0%, 0%, 0%)" fill-opacity="1">
<use xlink:href="#glyph-0-11" x="144.925941" y="55.405196"/>
<use xlink:href="#glyph-0-2" x="148.077539" y="55.405196"/>
<use xlink:href="#glyph-0-1" x="151.614294" y="55.405196"/>
<use xlink:href="#glyph-0-7" x="154.72271" y="55.405196"/>
<use xlink:href="#glyph-0-15" x="158.902322" y="55.405196"/>
<use xlink:href="#glyph-0-12" x="161.15406" y="55.405196"/>
<use xlink:href="#glyph-0-2" x="164.690816" y="55.405196"/>
</g>
<g fill="rgb(0%, 0%, 0%)" fill-opacity="1">
<use xlink:href="#glyph-0-11" x="170.909041" y="55.405196"/>
<use xlink:href="#glyph-0-5" x="174.060639" y="55.405196"/>
<use xlink:href="#glyph-0-17" x="178.025733" y="55.405196"/>
<use xlink:href="#glyph-0-2" x="180.49199" y="55.405196"/>
</g>
<path fill="none" stroke-width="0.65753" stroke-linecap="round" stroke-linejoin="miter" stroke="rgb(0%, 0%, 0%)" stroke-opacity="1" stroke-miterlimit="10" d="M 32.011791 0.000985972 L 32.027436 0.000985972 " transform="matrix(0.998718, 0, 0, -0.998718, 34.951129, 17.11036)"/>
<path fill-rule="nonzero" fill="rgb(0%, 0%, 0%)" fill-opacity="1" stroke-width="0.65753" stroke-linecap="round" stroke-linejoin="miter" stroke="rgb(0%, 0%, 0%)" stroke-opacity="1" stroke-miterlimit="10" d="M 5.275197 0.000985972 L 1.082321 1.534202 L 2.466909 0.000985972 L 1.082321 -1.536141 Z M 5.275197 0.000985972 " transform="matrix(0.998718, 0, 0, -0.998718, 64.637816, 17.11036)"/>
<path fill="none" stroke-width="0.65753" stroke-linecap="round" stroke-linejoin="miter" stroke="rgb(0%, 0%, 0%)" stroke-opacity="1" stroke-miterlimit="10" d="M 101.20989 0.000985972 L 101.237269 0.000985972 " transform="matrix(0.998718, 0, 0, -0.998718, 34.951129, 17.11036)"/>
<path fill-rule="nonzero" fill="rgb(0%, 0%, 0%)" fill-opacity="1" stroke-width="0.65753" stroke-linecap="round" stroke-linejoin="miter" stroke="rgb(0%, 0%, 0%)" stroke-opacity="1" stroke-miterlimit="10" d="M 5.272679 0.000985972 L 1.083714 1.534202 L 2.468302 0.000985972 L 1.083714 -1.536141 Z M 5.272679 0.000985972 " transform="matrix(0.998718, 0, 0, -0.998718, 133.757519, 17.11036)"/>
<path fill="none" stroke-width="0.65753" stroke-linecap="round" stroke-linejoin="miter" stroke="rgb(0%, 0%, 0%)" stroke-opacity="1" stroke-miterlimit="10" d="M 108.829034 -12.44857 L 97.271246 -18.049502 " transform="matrix(0.998718, 0, 0, -0.998718, 34.951129, 17.11036)"/>
<path fill-rule="nonzero" fill="rgb(0%, 0%, 0%)" fill-opacity="1" stroke-width="0.65753" stroke-linecap="round" stroke-linejoin="miter" stroke="rgb(0%, 0%, 0%)" stroke-opacity="1" stroke-miterlimit="10" d="M 5.273342 0.00218711 L 1.082294 1.533825 L 2.469138 0.000946619 L 1.081534 -1.534556 Z M 5.273342 0.00218711 " transform="matrix(-0.898676, 0.435611, 0.435611, 0.898676, 134.167762, 34.134504)"/>
<path fill="none" stroke-width="0.65753" stroke-linecap="round" stroke-linejoin="miter" stroke="rgb(0%, 0%, 0%)" stroke-opacity="1" stroke-miterlimit="10" d="M 99.297282 -31.965782 L 99.324661 -31.961871 " transform="matrix(0.998718, 0, 0, -0.998718, 34.951129, 17.11036)"/>
<path fill-rule="nonzero" fill="rgb(0%, 0%, 0%)" fill-opacity="1" stroke-width="0.65753" stroke-linecap="round" stroke-linejoin="miter" stroke="rgb(0%, 0%, 0%)" stroke-opacity="1" stroke-miterlimit="10" d="M 5.275588 0.000912061 L 1.082888 1.534871 L 2.467243 0.00138949 L 1.082366 -1.535533 Z M 5.275588 0.000912061 " transform="matrix(0.998698, -0.000169782, -0.000169782, -0.998698, 131.84847, 49.033057)"/>
</svg>
