<svg viewBox="0 0 1120 408" width="100%" xmlns="http://www.w3.org/2000/svg" role="img" aria-label="PIN-Service architecture"><defs>
<marker id="ah" markerWidth="12" markerHeight="12" refX="9" refY="5" orient="auto"><path d="M0,0 L11,5 L0,10 z" fill="#202733"/></marker>
</defs>
<style>
svg text{font-family:'Noto Sans',system-ui,-apple-system,sans-serif;}
.box{fill:#fff;stroke:#aebbd0;stroke-width:1.5;}
.acc{fill:#eaf3fd;stroke:#1772d0;stroke-width:1.5;}
.grn{fill:#e6f7ed;stroke:#0f766e;stroke-width:1.5;}
.amb{fill:#fff6e6;stroke:#e7b66a;stroke-width:1.5;stroke-dasharray:6 4;}
.lane{fill:#f3f6fc;stroke:#aebbd0;stroke-width:1.5;}
.ttl{font-size:16px;font-weight:700;fill:#0e1117;font-family:'Montserrat','Noto Sans',sans-serif;}
.sub{font-size:12.5px;font-weight:500;fill:#1b2230;}
.ar{stroke:#202733;stroke-width:2.2;fill:none;marker-end:url(#ah);}
.lg{font-size:12px;}
</style><rect class="box" x="28" y="52" width="233.0" height="92" rx="11"/><text class="ttl" x="144" y="94" text-anchor="middle">Client request</text><text class="sub" x="144" y="112" text-anchor="middle">gRPC (proto)</text><rect class="grn" x="305.0" y="52" width="233.0" height="92" rx="11"/><text class="ttl" x="422" y="94" text-anchor="middle">PIN service</text><text class="sub" x="422" y="112" text-anchor="middle">request handler</text><rect class="grn" x="582.0" y="52" width="233.0" height="92" rx="11"/><text class="ttl" x="698" y="94" text-anchor="middle">Placement pipeline</text><text class="sub" x="698" y="112" text-anchor="middle">geocode + resolve</text><rect class="box" x="859.0" y="52" width="233.0" height="92" rx="11"/><text class="ttl" x="976" y="94" text-anchor="middle">Response</text><text class="sub" x="976" y="112" text-anchor="middle">resolved PIN</text><line class="ar" x1="261.0" y1="98.0" x2="305.0" y2="98.0"/><line class="ar" x1="538.0" y1="98.0" x2="582.0" y2="98.0"/><line class="ar" x1="815.0" y1="98.0" x2="859.0" y2="98.0"/><rect class="grn" x="305.0" y="196" width="510.0" height="76" rx="11"/><text class="ttl" x="560" y="230" text-anchor="middle">Load test (Locust) + observability</text><text class="sub" x="560" y="248" text-anchor="middle">measured p50 / p95 latency</text><line class="ar" x1="560.0" y1="144" x2="560.0" y2="196"/><rect x="28" y="300" width="1064" height="84" rx="12" fill="#fff6e6" stroke="#e7b66a" stroke-width="1.5"/><text x="48" y="328" style="font-size:15px;font-weight:700;fill:#0e1117;font-family:Montserrat,sans-serif">Honest scope</text><text x="48" y="350" class="sub">The service and placement pipeline are real; p50 / p95 latency is measured under a real Locust load test.</text><text class="lg" x="28" y="390" fill="#0f766e">green = real and tested</text><text class="lg" x="228" y="390" fill="#b45309">dashed amber = off-the-shelf / target</text><text class="lg" x="498" y="390" fill="#1772d0">blue = learned / core method</text></svg>
