<svg viewBox="0 0 1120 322" width="100%" xmlns="http://www.w3.org/2000/svg" role="img" aria-label="Sat-Splat-Distort architecture"><defs>
<marker id="ah" markerWidth="12" markerHeight="12" refX="9" refY="5" orient="auto"><path d="M0,0 L11,5 L0,10 z" fill="#202733"/></marker>
</defs>
<style>
svg text{font-family:'Noto Sans',system-ui,-apple-system,sans-serif;}
.box{fill:#fff;stroke:#aebbd0;stroke-width:1.5;}
.acc{fill:#eaf3fd;stroke:#1772d0;stroke-width:1.5;}
.grn{fill:#e6f7ed;stroke:#0f766e;stroke-width:1.5;}
.amb{fill:#fff6e6;stroke:#e7b66a;stroke-width:1.5;stroke-dasharray:6 4;}
.lane{fill:#f3f6fc;stroke:#aebbd0;stroke-width:1.5;}
.ttl{font-size:16px;font-weight:700;fill:#0e1117;font-family:'Montserrat','Noto Sans',sans-serif;}
.sub{font-size:12.5px;font-weight:500;fill:#1b2230;}
.ar{stroke:#202733;stroke-width:2.2;fill:none;marker-end:url(#ah);}
.lg{font-size:12px;}
</style><rect class="box" x="28" y="52" width="177.6" height="92" rx="11"/><text class="ttl" x="117" y="94" text-anchor="middle">Non-pinhole cameras</text><text class="sub" x="117" y="112" text-anchor="middle">RPC / pushbroom / fisheye / 360</text><rect class="grn" x="249.6" y="52" width="177.6" height="92" rx="11"/><text class="ttl" x="338" y="94" text-anchor="middle">Distortion-aware projection</text><text class="sub" x="338" y="112" text-anchor="middle">closed-form analytic Jacobians</text><rect class="box" x="471.2" y="52" width="177.6" height="92" rx="11"/><text class="ttl" x="560" y="94" text-anchor="middle">3D Gaussian splatting</text><text class="sub" x="560" y="112" text-anchor="middle">rasterizer</text><rect class="amb" x="692.8" y="52" width="177.6" height="92" rx="11"/><text class="ttl" x="782" y="94" text-anchor="middle">Learned distortion prior</text><text class="sub" x="782" y="112" text-anchor="middle">token grid (target)</text><rect class="box" x="914.4" y="52" width="177.6" height="92" rx="11"/><text class="ttl" x="1003" y="94" text-anchor="middle">Novel-view synthesis</text><text class="sub" x="1003" y="112" text-anchor="middle">rendered views</text><line class="ar" x1="205.6" y1="98.0" x2="249.6" y2="98.0"/><line class="ar" x1="427.2" y1="98.0" x2="471.2" y2="98.0"/><line class="ar" x1="648.8" y1="98.0" x2="692.8" y2="98.0"/><line class="ar" x1="870.4" y1="98.0" x2="914.4" y2="98.0"/><rect x="28" y="196" width="1064" height="84" rx="12" fill="#fff6e6" stroke="#e7b66a" stroke-width="1.5"/><text x="48" y="224" style="font-size:15px;font-weight:700;fill:#0e1117;font-family:Montserrat,sans-serif">Honest scope</text><text x="48" y="246" class="sub">Analytic Jacobians for all 4 camera models validated against torch.autograd to ~1e-5 relative error (20 tests).</text><text x="48" y="266" class="sub">Learned distortion-prior token grid and the IEEE GRSS DFC2019 multi-view PSNR benchmark are the next step (target).</text><text class="lg" x="28" y="304" fill="#0f766e">green = real and tested</text><text class="lg" x="228" y="304" fill="#b45309">dashed amber = off-the-shelf / target</text><text class="lg" x="498" y="304" fill="#1772d0">blue = learned / core method</text></svg>
