<?xml version="1.0" encoding="UTF-8"?>
<svg xmlns="http://www.w3.org/2000/svg" xmlns:xlink="http://www.w3.org/1999/xlink" width="185.003" height="66.006" viewBox="0 0 185.003 66.006">
<defs>
<g>
<g id="glyph-0-0">
</g>
<g id="glyph-0-1">
<path d="M 2.453125 -4.703125 L 2.453125 -4.453125 L 2.578125 -4.453125 C 2.796875 -4.453125 2.96875 -4.421875 2.96875 -4.046875 L 2.96875 -2.640625 C 2.703125 -2.90625 2.34375 -3.03125 1.984375 -3.03125 C 1.09375 -3.03125 0.3125 -2.34375 0.3125 -1.484375 C 0.3125 -0.625 1.046875 0.0625 1.90625 0.0625 C 2.3125 0.0625 2.65625 -0.09375 2.9375 -0.359375 L 2.9375 0.0625 L 4 0 L 4 -0.25 L 3.90625 -0.25 C 3.703125 -0.25 3.484375 -0.28125 3.484375 -0.59375 L 3.484375 -4.78125 Z M 0.9375 -1.34375 L 0.9375 -1.4375 C 0.9375 -1.9375 1.015625 -2.484375 1.625 -2.75 C 1.75 -2.8125 1.890625 -2.84375 2.03125 -2.84375 C 2.390625 -2.84375 2.9375 -2.59375 2.9375 -2.15625 C 2.9375 -2.0625 2.9375 -1.984375 2.9375 -1.890625 L 2.9375 -0.796875 C 2.9375 -0.71875 2.890625 -0.671875 2.859375 -0.59375 C 2.640625 -0.3125 2.296875 -0.125 1.953125 -0.125 C 1.453125 -0.125 1.078125 -0.515625 0.96875 -1.015625 C 0.953125 -1.125 0.953125 -1.234375 0.9375 -1.34375 Z M 0.9375 -1.34375 "/>
</g>
<g id="glyph-0-2">
<path d="M 0.40625 -2.953125 L 0.40625 -2.703125 L 0.4375 -2.703125 C 0.671875 -2.703125 0.890625 -2.703125 0.890625 -2.359375 L 0.890625 -0.53125 C 0.890625 -0.265625 0.734375 -0.25 0.375 -0.25 L 0.375 0 L 1.890625 0 L 1.890625 -0.25 L 1.734375 -0.25 C 1.578125 -0.25 1.421875 -0.28125 1.421875 -0.484375 L 1.421875 -3.03125 L 1.15625 -3.015625 Z M 0.984375 -4.625 C 0.796875 -4.609375 0.65625 -4.421875 0.65625 -4.234375 C 0.65625 -4.03125 0.8125 -3.84375 1.046875 -3.84375 C 1.265625 -3.84375 1.4375 -4.03125 1.4375 -4.234375 C 1.4375 -4.453125 1.28125 -4.640625 1.046875 -4.640625 C 1.03125 -4.640625 1.015625 -4.640625 0.984375 -4.625 Z M 0.984375 -4.625 "/>
</g>
<g id="glyph-0-3">
<path d="M 0.734375 -0.234375 C 0.96875 -0.03125 1.25 0.0625 1.5625 0.0625 C 2.078125 0.0625 2.796875 -0.125 2.796875 -0.90625 L 2.796875 -0.96875 C 2.6875 -2.21875 0.6875 -1.640625 0.6875 -2.421875 C 0.6875 -2.8125 1.25 -2.90625 1.546875 -2.90625 C 1.953125 -2.90625 2.328125 -2.6875 2.375 -2.21875 L 2.375 -2.171875 C 2.375 -2.125 2.390625 -2.0625 2.484375 -2.0625 C 2.578125 -2.0625 2.609375 -2.140625 2.609375 -2.234375 C 2.609375 -2.265625 2.609375 -2.3125 2.609375 -2.34375 L 2.609375 -2.921875 C 2.609375 -3 2.59375 -3.0625 2.5 -3.0625 C 2.453125 -3.0625 2.390625 -3.015625 2.34375 -2.96875 L 2.296875 -2.921875 C 2.296875 -2.921875 2.265625 -2.890625 2.234375 -2.890625 C 2.203125 -2.890625 2.15625 -2.9375 2.125 -2.953125 C 1.953125 -3.03125 1.734375 -3.0625 1.546875 -3.0625 C 1.0625 -3.0625 0.3125 -2.9375 0.3125 -2.1875 L 0.3125 -2.140625 C 0.515625 -0.984375 2.296875 -1.65625 2.40625 -0.75 C 2.40625 -0.28125 1.96875 -0.125 1.578125 -0.125 C 1.015625 -0.125 0.671875 -0.5 0.5625 -0.984375 C 0.53125 -1.0625 0.5625 -1.140625 0.421875 -1.140625 C 0.3125 -1.140625 0.3125 -1.078125 0.3125 -1.015625 L 0.3125 -0.0625 C 0.3125 0 0.328125 0.0625 0.40625 0.0625 C 0.515625 0.0625 0.6875 -0.171875 0.734375 -0.234375 Z M 0.734375 -0.234375 "/>
</g>
<g id="glyph-0-4">
<path d="M 1.140625 -4.234375 C 1.140625 -3.6875 0.890625 -2.90625 0.1875 -2.90625 L 0.1875 -2.71875 L 0.828125 -2.71875 L 0.828125 -0.953125 C 0.828125 -0.734375 0.84375 -0.515625 0.96875 -0.328125 C 1.140625 -0.046875 1.484375 0.0625 1.796875 0.0625 C 2.046875 0.0625 2.265625 -0.046875 2.40625 -0.25 C 2.5625 -0.46875 2.578125 -0.734375 2.578125 -0.984375 L 2.578125 -1.25 L 2.34375 -1.25 C 2.34375 -1.15625 2.359375 -1.0625 2.359375 -0.96875 C 2.359375 -0.6875 2.296875 -0.15625 1.875 -0.15625 C 1.484375 -0.15625 1.375 -0.546875 1.375 -0.90625 L 1.375 -2.71875 L 2.453125 -2.71875 L 2.453125 -2.96875 L 1.375 -2.96875 L 1.375 -4.234375 Z M 1.140625 -4.234375 "/>
</g>
<g id="glyph-0-5">
<path d="M 1.84375 -3.0625 C 1.046875 -2.984375 0.265625 -2.421875 0.265625 -1.46875 L 0.265625 -1.40625 C 0.3125 -0.484375 1.15625 0.0625 1.96875 0.0625 C 2.75 0.0625 3.59375 -0.484375 3.640625 -1.40625 L 3.640625 -1.4375 C 3.640625 -2.390625 2.84375 -3.0625 1.921875 -3.0625 Z M 0.890625 -1.34375 C 0.890625 -1.40625 0.890625 -1.453125 0.890625 -1.515625 C 0.890625 -1.890625 0.921875 -2.34375 1.25 -2.625 C 1.4375 -2.796875 1.6875 -2.875 1.9375 -2.875 C 2.25 -2.875 2.5625 -2.75 2.765625 -2.515625 C 2.984375 -2.265625 3.015625 -1.90625 3.015625 -1.609375 C 3.015625 -1.21875 3 -0.78125 2.734375 -0.484375 C 2.53125 -0.265625 2.234375 -0.15625 1.953125 -0.15625 C 1.421875 -0.15625 1.015625 -0.5 0.921875 -1.0625 C 0.90625 -1.15625 0.90625 -1.25 0.890625 -1.34375 Z M 0.890625 -1.34375 "/>
</g>
<g id="glyph-0-6">
<path d="M 0.328125 -2.953125 L 0.328125 -2.703125 L 0.421875 -2.703125 C 0.640625 -2.703125 0.84375 -2.6875 0.84375 -2.359375 L 0.84375 -0.53125 C 0.84375 -0.265625 0.6875 -0.25 0.328125 -0.25 L 0.328125 0 L 2.015625 0 L 2.015625 -0.25 C 1.9375 -0.25 1.859375 -0.25 1.78125 -0.25 C 1.546875 -0.25 1.375 -0.28125 1.375 -0.53125 L 1.375 -1.0625 C 1.375 -1.203125 1.359375 -1.328125 1.359375 -1.46875 C 1.359375 -2 1.546875 -2.84375 2.296875 -2.84375 L 2.296875 -2.828125 C 2.203125 -2.78125 2.171875 -2.6875 2.171875 -2.59375 C 2.171875 -2.40625 2.3125 -2.28125 2.484375 -2.28125 C 2.671875 -2.28125 2.796875 -2.421875 2.796875 -2.578125 C 2.796875 -2.875 2.515625 -3.03125 2.25 -3.03125 C 1.8125 -3.03125 1.421875 -2.65625 1.328125 -2.28125 L 1.3125 -3.03125 L 0.96875 -3 Z M 0.328125 -2.953125 "/>
</g>
<g id="glyph-0-7">
<path d="M 0.359375 -2.953125 L 0.359375 -2.703125 L 0.453125 -2.703125 C 0.671875 -2.703125 0.875 -2.6875 0.875 -2.359375 L 0.875 -0.53125 C 0.875 -0.265625 0.71875 -0.25 0.359375 -0.25 L 0.359375 0 L 1.953125 0 L 1.953125 -0.25 L 1.796875 -0.25 C 1.609375 -0.25 1.4375 -0.28125 1.4375 -0.5 L 1.4375 -1.78125 C 1.4375 -2.265625 1.75 -2.84375 2.46875 -2.84375 C 2.875 -2.84375 3 -2.515625 3 -2.09375 L 3 -0.515625 C 3 -0.265625 2.796875 -0.25 2.578125 -0.25 L 2.484375 -0.25 L 2.484375 0 L 4.0625 0 L 4.0625 -0.25 L 3.921875 -0.25 C 3.734375 -0.25 3.546875 -0.28125 3.546875 -0.515625 L 3.546875 -2.015625 C 3.546875 -2.21875 3.546875 -2.4375 3.4375 -2.625 C 3.265625 -2.9375 2.875 -3.03125 2.53125 -3.03125 C 2.09375 -3.03125 1.546875 -2.796875 1.390625 -2.34375 L 1.375 -3.03125 L 1.03125 -3 Z M 0.359375 -2.953125 "/>
</g>
<g id="glyph-0-8">
<path d="M 1.03125 -2.703125 C 1.21875 -2.828125 1.46875 -2.875 1.6875 -2.875 C 2 -2.875 2.28125 -2.734375 2.4375 -2.453125 C 2.515625 -2.296875 2.515625 -2.140625 2.515625 -1.96875 L 2.515625 -1.828125 C 1.6875 -1.828125 0.375 -1.609375 0.375 -0.703125 C 0.375 -0.234375 0.875 0.0625 1.546875 0.0625 C 1.953125 0.0625 2.4375 -0.109375 2.59375 -0.515625 C 2.640625 -0.21875 2.8125 0.03125 3.15625 0.03125 C 3.515625 0.03125 3.8125 -0.234375 3.8125 -0.59375 L 3.8125 -1 L 3.578125 -1 L 3.578125 -0.65625 C 3.578125 -0.484375 3.546875 -0.234375 3.328125 -0.234375 C 3.09375 -0.234375 3.078125 -0.484375 3.078125 -0.65625 L 3.078125 -1.765625 C 3.078125 -1.84375 3.078125 -1.9375 3.078125 -2.015625 C 3.078125 -2.75 2.34375 -3.0625 1.71875 -3.0625 C 1.296875 -3.0625 0.609375 -2.9375 0.609375 -2.40625 C 0.609375 -2.21875 0.734375 -2.0625 0.9375 -2.0625 C 1.140625 -2.0625 1.265625 -2.203125 1.265625 -2.40625 C 1.265625 -2.546875 1.1875 -2.65625 1.03125 -2.703125 Z M 2.515625 -1.65625 L 2.515625 -0.984375 C 2.515625 -0.484375 2.140625 -0.125 1.65625 -0.125 C 1.34375 -0.125 0.953125 -0.34375 0.953125 -0.703125 C 0.953125 -1.4375 1.953125 -1.65625 2.515625 -1.65625 Z M 2.515625 -1.65625 "/>
</g>
<g id="glyph-0-9">
<path d="M 0.859375 -2.96875 L 0.265625 -2.96875 L 0.265625 -2.71875 L 0.859375 -2.71875 L 0.859375 -0.515625 C 0.859375 -0.265625 0.65625 -0.25 0.4375 -0.25 L 0.34375 -0.25 L 0.34375 0 L 1.890625 0 L 1.890625 -0.25 L 1.734375 -0.25 C 1.546875 -0.25 1.375 -0.28125 1.375 -0.515625 L 1.375 -2.71875 L 3.078125 -2.71875 L 3.078125 -0.515625 C 3.078125 -0.265625 2.875 -0.25 2.65625 -0.25 L 2.5625 -0.25 L 2.5625 0 L 4.109375 0 L 4.109375 -0.25 L 3.953125 -0.25 C 3.765625 -0.25 3.59375 -0.28125 3.59375 -0.515625 L 3.59375 -2.71875 L 4.796875 -2.71875 C 4.84375 -2.71875 4.890625 -2.71875 4.953125 -2.71875 C 5.171875 -2.71875 5.28125 -2.671875 5.28125 -2.296875 L 5.28125 -0.53125 C 5.28125 -0.265625 5.125 -0.25 4.765625 -0.25 L 4.765625 0 L 6.328125 0 L 6.328125 -0.25 L 6.15625 -0.25 C 5.96875 -0.25 5.8125 -0.28125 5.8125 -0.5 L 5.8125 -3.046875 L 4.84375 -2.984375 L 4.71875 -2.96875 L 3.5625 -2.96875 L 3.5625 -3.671875 C 3.5625 -4.359375 4.1875 -4.65625 4.75 -4.65625 C 5 -4.65625 5.15625 -4.59375 5.390625 -4.46875 C 5.21875 -4.4375 5.125 -4.296875 5.125 -4.125 C 5.125 -3.9375 5.265625 -3.8125 5.421875 -3.796875 C 5.640625 -3.796875 5.796875 -3.9375 5.796875 -4.140625 C 5.796875 -4.65625 5.203125 -4.84375 4.796875 -4.84375 C 4.328125 -4.84375 3.84375 -4.75 3.453125 -4.453125 C 3.3125 -4.75 2.828125 -4.84375 2.5625 -4.84375 C 1.828125 -4.84375 0.859375 -4.53125 0.859375 -3.703125 Z M 3.078125 -2.96875 L 1.34375 -2.96875 L 1.34375 -3.65625 C 1.34375 -3.78125 1.359375 -3.921875 1.421875 -4.0625 C 1.609375 -4.453125 2.078125 -4.65625 2.5 -4.65625 C 2.734375 -4.65625 2.984375 -4.609375 3.15625 -4.46875 C 2.984375 -4.4375 2.875 -4.296875 2.875 -4.125 C 2.875 -3.9375 3.03125 -3.890625 3.078125 -3.796875 Z M 3.078125 -2.96875 "/>
</g>
<g id="glyph-0-10">
<path d="M 0.890625 -1.578125 L 3.0625 -1.578125 C 3.1875 -1.578125 3.21875 -1.609375 3.21875 -1.71875 C 3.21875 -2.46875 2.75 -3.0625 1.875 -3.0625 C 1.046875 -3.0625 0.265625 -2.453125 0.265625 -1.5 C 0.265625 -0.578125 1.09375 0.0625 1.953125 0.0625 C 2.453125 0.0625 3.0625 -0.21875 3.203125 -0.75 C 3.203125 -0.78125 3.203125 -0.796875 3.203125 -0.828125 L 3.203125 -0.84375 C 3.203125 -0.90625 3.15625 -0.921875 3.09375 -0.921875 C 2.96875 -0.921875 2.9375 -0.6875 2.84375 -0.578125 C 2.640625 -0.3125 2.3125 -0.15625 1.984375 -0.15625 L 1.953125 -0.15625 C 1.6875 -0.15625 1.375 -0.3125 1.21875 -0.5 C 0.9375 -0.78125 0.890625 -1.1875 0.890625 -1.578125 Z M 0.90625 -1.75 C 0.96875 -2.28125 1.203125 -2.859375 1.875 -2.859375 C 2.125 -2.859375 2.3125 -2.78125 2.515625 -2.5625 C 2.671875 -2.34375 2.734375 -2.03125 2.734375 -1.75 Z M 0.90625 -1.75 "/>
</g>
<g id="glyph-0-11">
<path d="M 3.3125 -5.15625 C 3.234375 -5.125 3.15625 -4.921875 3.125 -4.8125 C 2.421875 -3.140625 1.734375 -1.453125 1.03125 0.21875 C 0.859375 0.640625 0.6875 1.078125 0.515625 1.5 C 0.5 1.546875 0.484375 1.578125 0.46875 1.609375 C 0.46875 1.65625 0.515625 1.703125 0.5625 1.703125 L 0.578125 1.703125 C 0.6875 1.6875 0.734375 1.46875 0.796875 1.34375 C 1.65625 -0.71875 2.515625 -2.796875 3.359375 -4.875 C 3.375 -4.921875 3.4375 -5 3.4375 -5.0625 C 3.421875 -5.125 3.375 -5.15625 3.328125 -5.15625 C 3.328125 -5.15625 3.3125 -5.15625 3.3125 -5.15625 Z M 3.3125 -5.15625 "/>
</g>
<g id="glyph-0-12">
<path d="M 0.203125 -2.96875 L 0.203125 -2.71875 L 0.296875 -2.71875 C 0.671875 -2.71875 0.671875 -2.578125 0.875 -2.0625 C 1.140625 -1.4375 1.375 -0.765625 1.640625 -0.125 C 1.671875 -0.03125 1.71875 0.0625 1.84375 0.0625 C 2 0.0625 2.03125 -0.09375 2.0625 -0.1875 C 2.28125 -0.6875 2.46875 -1.1875 2.65625 -1.6875 C 2.703125 -1.796875 2.75 -1.90625 2.796875 -2.015625 L 2.8125 -2.015625 C 2.84375 -1.90625 2.890625 -1.796875 2.9375 -1.6875 C 3.140625 -1.1875 3.328125 -0.6875 3.53125 -0.1875 C 3.5625 -0.09375 3.59375 0.0625 3.734375 0.0625 C 3.890625 0.0625 3.90625 -0.03125 3.953125 -0.125 L 4.15625 -0.640625 C 4.359375 -1.140625 4.546875 -1.640625 4.75 -2.140625 C 4.859375 -2.40625 4.96875 -2.71875 5.390625 -2.71875 L 5.390625 -2.96875 L 4.890625 -2.9375 L 4.21875 -2.96875 L 4.21875 -2.71875 C 4.375 -2.71875 4.5625 -2.625 4.578125 -2.453125 C 4.578125 -2.234375 4.4375 -1.984375 4.359375 -1.78125 C 4.234375 -1.515625 4.140625 -1.25 4.03125 -0.984375 C 3.984375 -0.84375 3.921875 -0.703125 3.875 -0.5625 C 3.65625 -1.046875 3.484375 -1.53125 3.28125 -2.015625 L 3.140625 -2.390625 C 3.125 -2.4375 3.09375 -2.5 3.09375 -2.546875 L 3.09375 -2.578125 C 3.140625 -2.71875 3.34375 -2.71875 3.46875 -2.71875 L 3.46875 -2.96875 L 2.109375 -2.96875 L 2.109375 -2.71875 L 2.234375 -2.71875 C 2.390625 -2.71875 2.53125 -2.6875 2.625 -2.46875 C 2.640625 -2.4375 2.65625 -2.390625 2.65625 -2.34375 C 2.65625 -2.296875 2.640625 -2.234375 2.609375 -2.203125 C 2.5625 -2.078125 2.515625 -1.96875 2.46875 -1.859375 L 2.171875 -1.078125 C 2.109375 -0.9375 2.0625 -0.796875 2 -0.65625 C 1.78125 -1.234375 1.546875 -1.8125 1.3125 -2.390625 C 1.296875 -2.4375 1.265625 -2.484375 1.265625 -2.546875 L 1.265625 -2.578125 C 1.3125 -2.703125 1.484375 -2.71875 1.609375 -2.71875 L 1.640625 -2.71875 L 1.640625 -2.96875 Z M 0.203125 -2.96875 "/>
</g>
<g id="glyph-0-13">
<path d="M 0.328125 -2.953125 L 0.328125 -2.703125 L 0.484375 -2.703125 C 0.671875 -2.703125 0.84375 -2.6875 0.84375 -2.421875 L 0.84375 0.8125 C 0.84375 1.046875 0.671875 1.078125 0.5 1.078125 L 0.328125 1.078125 L 0.328125 1.328125 L 1.90625 1.328125 L 1.90625 1.078125 L 1.75 1.078125 C 1.546875 1.078125 1.390625 1.0625 1.390625 0.8125 L 1.390625 -0.328125 C 1.65625 -0.0625 2 0.0625 2.34375 0.0625 C 3.203125 0.0625 4.015625 -0.578125 4.015625 -1.484375 C 4.015625 -2.328125 3.328125 -3.03125 2.4375 -3.03125 C 2.03125 -3.03125 1.65625 -2.890625 1.375 -2.625 L 1.375 -3.03125 Z M 3.390625 -1.375 C 3.328125 -0.796875 2.96875 -0.125 2.28125 -0.125 C 1.984375 -0.125 1.671875 -0.28125 1.5 -0.53125 C 1.4375 -0.609375 1.390625 -0.6875 1.390625 -0.78125 L 1.390625 -1.875 C 1.390625 -1.953125 1.390625 -2.046875 1.390625 -2.125 C 1.390625 -2.515625 1.90625 -2.8125 2.34375 -2.8125 C 3.046875 -2.8125 3.390625 -2.0625 3.390625 -1.484375 C 3.390625 -1.453125 3.390625 -1.421875 3.390625 -1.375 Z M 3.390625 -1.375 "/>
</g>
<g id="glyph-0-14">
<path d="M 0.328125 -4.703125 L 0.328125 -4.453125 L 0.4375 -4.453125 C 0.640625 -4.453125 0.84375 -4.421875 0.84375 -4.078125 L 0.84375 0 L 1.078125 -0.015625 L 1.3125 -0.421875 C 1.59375 -0.109375 1.9375 0.0625 2.34375 0.0625 C 3.203125 0.0625 4.015625 -0.59375 4.015625 -1.5 C 4.015625 -2.328125 3.296875 -3.03125 2.40625 -3.03125 C 2.015625 -3.03125 1.65625 -2.890625 1.375 -2.625 L 1.375 -4.78125 Z M 3.390625 -1.34375 C 3.375 -1.046875 3.328125 -0.75 3.125 -0.515625 C 2.921875 -0.28125 2.609375 -0.140625 2.296875 -0.140625 C 2 -0.140625 1.6875 -0.28125 1.5 -0.546875 C 1.4375 -0.625 1.390625 -0.6875 1.390625 -0.78125 L 1.390625 -2.28125 C 1.453125 -2.578125 1.984375 -2.84375 2.359375 -2.84375 C 3.171875 -2.84375 3.390625 -2.0625 3.390625 -1.484375 C 3.390625 -1.4375 3.390625 -1.390625 3.390625 -1.34375 Z M 3.390625 -1.34375 "/>
</g>
<g id="glyph-0-15">
<path d="M 0.375 -4.703125 L 0.375 -4.453125 L 0.5 -4.453125 C 0.71875 -4.453125 0.890625 -4.421875 0.890625 -4.109375 L 0.890625 -0.6875 C 0.890625 -0.640625 0.90625 -0.59375 0.90625 -0.53125 C 0.90625 -0.265625 0.6875 -0.25 0.421875 -0.25 L 0.375 -0.25 L 0.375 0 L 1.9375 0 L 1.9375 -0.25 L 1.765625 -0.25 C 1.578125 -0.25 1.421875 -0.28125 1.421875 -0.515625 L 1.421875 -4.78125 Z M 0.375 -4.703125 "/>
</g>
<g id="glyph-0-16">
<path d="M 2.984375 -4.84375 C 2.140625 -4.734375 1.375 -4.421875 0.875 -3.671875 C 0.609375 -3.28125 0.46875 -2.828125 0.46875 -2.359375 C 0.46875 -0.96875 1.703125 0.125 3.109375 0.125 C 3.953125 0.125 4.796875 -0.34375 5.046875 -1.1875 C 5.09375 -1.3125 5.109375 -1.4375 5.125 -1.578125 L 5.125 -1.625 C 5.125 -1.703125 5.09375 -1.765625 5 -1.765625 C 4.859375 -1.765625 4.890625 -1.640625 4.875 -1.546875 C 4.8125 -0.703125 4.046875 -0.109375 3.203125 -0.109375 C 2.671875 -0.109375 2.125 -0.34375 1.765625 -0.734375 C 1.359375 -1.15625 1.203125 -1.765625 1.203125 -2.34375 C 1.203125 -2.859375 1.3125 -3.390625 1.625 -3.8125 C 1.96875 -4.296875 2.578125 -4.59375 3.1875 -4.59375 C 4.046875 -4.59375 4.703125 -3.90625 4.859375 -3.09375 C 4.875 -3 4.84375 -2.859375 5 -2.859375 C 5.109375 -2.859375 5.125 -2.921875 5.125 -2.984375 L 5.125 -4.703125 C 5.125 -4.765625 5.109375 -4.84375 5.03125 -4.84375 C 4.859375 -4.84375 4.625 -4.25 4.53125 -4.25 C 4.5 -4.25 4.4375 -4.328125 4.40625 -4.359375 C 4.046875 -4.65625 3.609375 -4.84375 3.140625 -4.84375 C 3.09375 -4.84375 3.03125 -4.84375 2.984375 -4.84375 Z M 2.984375 -4.84375 "/>
</g>
<g id="glyph-0-17">
<path d="M 0.40625 -4.703125 L 0.40625 -4.453125 C 0.484375 -4.453125 0.578125 -4.46875 0.65625 -4.46875 C 0.90625 -4.46875 1.109375 -4.421875 1.109375 -4.171875 L 1.109375 -0.65625 C 1.109375 -0.609375 1.109375 -0.578125 1.109375 -0.53125 C 1.109375 -0.28125 0.875 -0.25 0.640625 -0.25 C 0.5625 -0.25 0.46875 -0.25 0.40625 -0.25 L 0.40625 0 L 1.21875 0 L 1.375 -0.03125 L 2.15625 -0.03125 L 2.4375 0 L 2.4375 -0.25 C 2.34375 -0.25 2.25 -0.25 2.15625 -0.25 C 1.921875 -0.25 1.734375 -0.28125 1.734375 -0.546875 L 1.734375 -2.265625 L 2.578125 -2.265625 C 2.9375 -2.265625 3.328125 -2.171875 3.546875 -1.859375 C 3.671875 -1.6875 3.671875 -1.5 3.671875 -1.3125 L 3.671875 -1.203125 C 3.671875 -1.109375 3.671875 -1.015625 3.671875 -0.921875 C 3.671875 -0.40625 3.9375 0.09375 4.8125 0.125 L 4.875 0.125 C 5.3125 0.125 5.609375 -0.21875 5.609375 -0.625 C 5.609375 -0.703125 5.609375 -0.765625 5.5 -0.765625 C 5.375 -0.765625 5.390625 -0.640625 5.375 -0.546875 C 5.34375 -0.296875 5.140625 -0.0625 4.890625 -0.0625 C 4.5 -0.0625 4.4375 -0.59375 4.40625 -0.921875 C 4.328125 -1.40625 4.359375 -1.890625 3.796875 -2.203125 C 3.703125 -2.265625 3.5625 -2.328125 3.453125 -2.34375 C 3.921875 -2.515625 4.5625 -2.6875 4.6875 -3.359375 C 4.6875 -3.390625 4.6875 -3.421875 4.6875 -3.453125 C 4.6875 -3.984375 4.203125 -4.34375 3.765625 -4.515625 C 3.453125 -4.640625 3.140625 -4.6875 2.8125 -4.703125 Z M 1.734375 -2.453125 L 1.734375 -4.21875 C 1.734375 -4.40625 1.828125 -4.453125 1.984375 -4.453125 L 2.515625 -4.453125 C 3.125 -4.453125 3.953125 -4.375 3.953125 -3.453125 C 3.953125 -2.484375 3.015625 -2.453125 2.390625 -2.453125 Z M 1.734375 -2.453125 "/>
</g>
<g id="glyph-0-18">
<path d="M 0.921875 -0.34375 C 1.046875 -0.265625 1.140625 -0.171875 1.265625 -0.109375 C 1.609375 0.0625 1.984375 0.125 2.34375 0.125 C 3.125 0.125 3.796875 -0.421875 3.859375 -1.203125 L 3.859375 -1.265625 C 3.859375 -1.890625 3.4375 -2.4375 2.84375 -2.609375 C 2.71875 -2.65625 2.59375 -2.671875 2.46875 -2.703125 L 1.953125 -2.8125 C 1.78125 -2.859375 1.609375 -2.875 1.453125 -2.953125 C 1.15625 -3.09375 0.921875 -3.390625 0.921875 -3.71875 L 0.921875 -3.765625 C 0.96875 -4.328125 1.484375 -4.625 1.984375 -4.625 C 2.703125 -4.625 3.3125 -4.125 3.390625 -3.296875 C 3.40625 -3.21875 3.40625 -3.140625 3.53125 -3.140625 C 3.640625 -3.140625 3.640625 -3.203125 3.640625 -3.265625 L 3.640625 -4.71875 C 3.640625 -4.765625 3.625 -4.84375 3.546875 -4.84375 C 3.40625 -4.84375 3.203125 -4.40625 3.1875 -4.359375 C 3.0625 -4.453125 2.96875 -4.546875 2.84375 -4.625 C 2.578125 -4.765625 2.28125 -4.84375 1.984375 -4.84375 C 1.21875 -4.84375 0.46875 -4.328125 0.46875 -3.515625 C 0.46875 -3.03125 0.796875 -2.578125 1.234375 -2.375 C 1.40625 -2.296875 1.59375 -2.25 1.765625 -2.21875 L 2.296875 -2.09375 C 2.515625 -2.046875 2.75 -2.015625 2.953125 -1.890625 C 3.234375 -1.703125 3.421875 -1.40625 3.421875 -1.078125 C 3.421875 -0.46875 2.859375 -0.109375 2.3125 -0.109375 C 1.625 -0.109375 0.859375 -0.4375 0.734375 -1.21875 L 0.703125 -1.453125 C 0.703125 -1.53125 0.671875 -1.578125 0.59375 -1.578125 C 0.5 -1.578125 0.46875 -1.5 0.46875 -1.4375 L 0.46875 0.015625 C 0.46875 0.0625 0.484375 0.125 0.5625 0.125 C 0.671875 0.125 0.75 -0.046875 0.796875 -0.140625 C 0.84375 -0.203125 0.890625 -0.265625 0.921875 -0.34375 Z M 0.921875 -0.34375 "/>
</g>
<g id="glyph-0-19">
<path d="M 0.46875 -4.65625 L 0.328125 -3.078125 L 0.5625 -3.078125 C 0.59375 -3.421875 0.609375 -3.875 0.828125 -4.125 C 1.046875 -4.390625 1.453125 -4.40625 1.78125 -4.40625 L 2.125 -4.40625 C 2.3125 -4.40625 2.484375 -4.40625 2.484375 -4.1875 C 2.484375 -4.140625 2.46875 -4.109375 2.46875 -4.0625 L 2.46875 -0.546875 C 2.46875 -0.3125 2.3125 -0.28125 2.15625 -0.28125 C 2 -0.25 1.84375 -0.25 1.703125 -0.25 L 1.46875 -0.25 L 1.46875 0 L 2.5625 0 L 2.875 -0.03125 L 3.765625 -0.03125 L 4.125 0 L 4.125 -0.25 L 3.65625 -0.25 C 3.375 -0.25 3.125 -0.28125 3.125 -0.546875 L 3.125 -4.0625 C 3.125 -4.109375 3.125 -4.140625 3.125 -4.1875 C 3.125 -4.40625 3.328125 -4.40625 3.5 -4.40625 L 3.8125 -4.40625 C 4.140625 -4.40625 4.546875 -4.390625 4.765625 -4.125 C 4.984375 -3.859375 5 -3.4375 5.03125 -3.078125 L 5.265625 -3.078125 L 5.125 -4.65625 Z M 0.46875 -4.65625 "/>
</g>
<g id="glyph-0-20">
<path d="M 0.40625 -4.703125 L 0.40625 -4.453125 C 0.484375 -4.453125 0.578125 -4.46875 0.65625 -4.46875 C 0.90625 -4.46875 1.109375 -4.421875 1.109375 -4.171875 L 1.109375 -0.65625 C 1.109375 -0.609375 1.109375 -0.578125 1.109375 -0.53125 C 1.109375 -0.28125 0.890625 -0.25 0.65625 -0.25 C 0.578125 -0.25 0.46875 -0.25 0.40625 -0.25 L 0.40625 0 L 2.46875 0 L 2.46875 -0.25 C 2.375 -0.25 2.28125 -0.25 2.171875 -0.25 C 1.953125 -0.25 1.765625 -0.28125 1.765625 -0.546875 L 1.765625 -2.140625 L 2.953125 -2.140625 C 3.625 -2.140625 4.40625 -2.359375 4.71875 -3.03125 C 4.78125 -3.15625 4.796875 -3.28125 4.796875 -3.40625 C 4.796875 -4.34375 3.640625 -4.703125 2.90625 -4.703125 C 2.75 -4.703125 2.625 -4.703125 2.46875 -4.703125 Z M 1.734375 -2.359375 L 1.734375 -4.25 C 1.734375 -4.421875 1.859375 -4.453125 2 -4.453125 L 2.640625 -4.453125 C 3.265625 -4.453125 4.0625 -4.421875 4.0625 -3.421875 C 4.0625 -3.15625 4.03125 -2.890625 3.84375 -2.6875 C 3.578125 -2.40625 3.140625 -2.359375 2.75 -2.359375 Z M 1.734375 -2.359375 "/>
</g>
<g id="glyph-0-21">
<path d="M 2.546875 -2.78125 L 2.53125 -2.78125 C 2.34375 -2.96875 1.984375 -3.03125 1.75 -3.03125 C 1.171875 -3.03125 0.515625 -2.671875 0.515625 -2.015625 C 0.515625 -1.78125 0.640625 -1.484375 0.859375 -1.328125 C 0.703125 -1.203125 0.640625 -0.953125 0.640625 -0.765625 C 0.640625 -0.5 0.75 -0.328125 0.921875 -0.140625 C 0.625 -0.109375 0.265625 0.1875 0.265625 0.515625 C 0.265625 1.171875 1.296875 1.40625 1.9375 1.40625 C 2.515625 1.40625 3.640625 1.21875 3.640625 0.515625 C 3.640625 -0.34375 2.734375 -0.484375 2.015625 -0.484375 L 1.4375 -0.484375 C 1.125 -0.484375 0.890625 -0.65625 0.890625 -0.953125 L 0.890625 -0.96875 C 0.90625 -1.078125 0.953125 -1.140625 0.984375 -1.234375 C 1.203125 -1.09375 1.46875 -1.015625 1.734375 -1.015625 C 2.359375 -1.015625 2.96875 -1.421875 2.96875 -2.03125 C 2.96875 -2.296875 2.84375 -2.5 2.671875 -2.6875 C 2.921875 -2.8125 3.09375 -2.90625 3.375 -2.90625 C 3.328125 -2.859375 3.296875 -2.8125 3.296875 -2.75 C 3.296875 -2.625 3.390625 -2.515625 3.515625 -2.515625 C 3.65625 -2.515625 3.75 -2.625 3.75 -2.765625 C 3.75 -2.96875 3.53125 -3.09375 3.34375 -3.09375 C 3.0625 -3.09375 2.6875 -2.984375 2.546875 -2.78125 Z M 0.6875 0.5625 C 0.6875 0.546875 0.6875 0.515625 0.6875 0.5 C 0.6875 0.265625 0.921875 0.0625 1.125 0.015625 C 1.21875 -0.015625 1.34375 -0.03125 1.453125 -0.03125 C 1.53125 -0.03125 1.609375 -0.015625 1.703125 -0.015625 L 2.015625 -0.015625 C 2.453125 -0.015625 3.21875 0 3.21875 0.53125 C 3.21875 1.140625 2 1.203125 1.921875 1.203125 C 1.484375 1.203125 0.75 1.03125 0.6875 0.5625 Z M 1.0625 -1.921875 C 1.0625 -1.953125 1.0625 -2 1.0625 -2.03125 C 1.0625 -2.4375 1.28125 -2.828125 1.734375 -2.828125 C 2.171875 -2.828125 2.40625 -2.515625 2.40625 -2 C 2.40625 -1.5625 2.171875 -1.21875 1.734375 -1.21875 C 1.546875 -1.21875 1.34375 -1.3125 1.21875 -1.46875 C 1.109375 -1.59375 1.09375 -1.75 1.0625 -1.921875 Z M 1.0625 -1.921875 "/>
</g>
<g id="glyph-0-22">
<path d="M 0.359375 -2.953125 L 0.359375 -2.703125 L 0.421875 -2.703125 C 0.609375 -2.703125 0.859375 -2.6875 0.859375 -2.5 C 0.875 -2.40625 0.875 -2.328125 0.875 -2.25 L 0.875 -0.96875 C 0.875 -0.171875 1.359375 0.0625 2 0.0625 C 2.390625 0.0625 2.828125 -0.109375 3.015625 -0.53125 L 3.03125 0.0625 L 4.0625 0 L 4.0625 -0.25 L 3.96875 -0.25 C 3.765625 -0.25 3.546875 -0.28125 3.546875 -0.578125 L 3.546875 -3.03125 L 2.484375 -2.953125 L 2.484375 -2.703125 C 2.765625 -2.703125 3 -2.703125 3 -2.359375 L 3 -1.21875 C 3 -0.65625 2.6875 -0.125 2.0625 -0.125 C 1.828125 -0.125 1.5 -0.171875 1.4375 -0.53125 C 1.4375 -0.65625 1.4375 -0.78125 1.4375 -0.890625 L 1.4375 -3.03125 Z M 0.359375 -2.953125 "/>
</g>
<g id="glyph-0-23">
<path d="M 0.21875 -2.96875 L 0.21875 -2.71875 L 0.359375 -2.71875 C 0.71875 -2.71875 0.765625 -2.484375 0.953125 -2.078125 C 1.25 -1.453125 1.546875 -0.828125 1.828125 -0.203125 L 1.890625 -0.078125 C 1.90625 -0.0625 1.921875 -0.03125 1.921875 0 C 1.90625 0.109375 1.796875 0.265625 1.75 0.375 C 1.578125 0.71875 1.375 1.203125 0.890625 1.203125 C 0.796875 1.203125 0.6875 1.15625 0.59375 1.109375 C 0.734375 1.0625 0.796875 0.953125 0.796875 0.828125 C 0.796875 0.65625 0.671875 0.53125 0.5 0.53125 C 0.28125 0.53125 0.203125 0.6875 0.203125 0.828125 C 0.203125 1.203125 0.578125 1.390625 0.90625 1.390625 C 1.65625 1.390625 1.96875 0.46875 2.1875 -0.015625 C 2.515625 -0.71875 2.84375 -1.40625 3.171875 -2.109375 C 3.3125 -2.40625 3.46875 -2.71875 3.90625 -2.71875 L 3.90625 -2.96875 L 3.375 -2.9375 L 2.75 -2.96875 L 2.75 -2.71875 C 2.890625 -2.71875 3.03125 -2.609375 3.03125 -2.46875 C 3.03125 -2.375 2.984375 -2.28125 2.953125 -2.1875 C 2.734375 -1.734375 2.515625 -1.28125 2.3125 -0.828125 C 2.28125 -0.765625 2.234375 -0.703125 2.234375 -0.625 C 2.125 -0.75 2.0625 -0.96875 2 -1.125 C 1.78125 -1.546875 1.578125 -1.96875 1.390625 -2.40625 C 1.375 -2.453125 1.34375 -2.5 1.34375 -2.546875 L 1.34375 -2.578125 C 1.359375 -2.703125 1.5625 -2.71875 1.671875 -2.71875 L 1.671875 -2.96875 Z M 0.21875 -2.96875 "/>
</g>
<g id="glyph-0-24">
<path d="M 0.3125 -0.25 L 0.3125 0 L 1.828125 0 L 1.828125 -0.25 C 1.65625 -0.25 1.34375 -0.328125 1.34375 -0.578125 C 1.34375 -0.75 1.484375 -0.953125 1.546875 -1.140625 C 1.625 -1.34375 1.65625 -1.5625 1.796875 -1.5625 L 3.671875 -1.5625 C 3.6875 -1.484375 3.734375 -1.390625 3.78125 -1.296875 C 3.84375 -1.109375 3.921875 -0.921875 4 -0.71875 L 4.0625 -0.53125 C 4.078125 -0.5 4.09375 -0.46875 4.09375 -0.4375 C 4.09375 -0.265625 3.78125 -0.25 3.578125 -0.25 L 3.546875 -0.25 L 3.546875 0 L 4.375 0 L 4.515625 -0.03125 L 5.21875 -0.03125 L 5.484375 0 L 5.484375 -0.25 L 5.265625 -0.25 C 5.109375 -0.25 4.953125 -0.265625 4.875 -0.34375 C 4.765625 -0.4375 4.75 -0.5625 4.703125 -0.671875 C 4.1875 -1.984375 3.671875 -3.3125 3.140625 -4.625 C 3.09375 -4.75 3.078125 -4.90625 2.890625 -4.90625 C 2.71875 -4.90625 2.6875 -4.75 2.640625 -4.625 C 2.171875 -3.375 1.609375 -2.125 1.15625 -0.84375 C 0.984375 -0.34375 0.6875 -0.265625 0.3125 -0.25 Z M 1.8125 -1.8125 L 2.6875 -4.046875 L 3.5625 -1.8125 Z M 1.8125 -1.8125 "/>
</g>
<g id="glyph-0-25">
<path d="M 0.34375 -4.703125 L 0.34375 -4.453125 C 0.453125 -4.453125 0.546875 -4.46875 0.640625 -4.46875 C 0.890625 -4.46875 1.09375 -4.421875 1.09375 -4.15625 L 1.09375 -0.546875 C 1.09375 -0.28125 0.859375 -0.25 0.640625 -0.25 C 0.53125 -0.25 0.4375 -0.25 0.34375 -0.25 L 0.34375 0 L 2.484375 0 L 2.484375 -0.25 C 2.40625 -0.25 2.3125 -0.25 2.234375 -0.25 C 1.9375 -0.25 1.75 -0.28125 1.75 -0.546875 L 1.75 -4.171875 C 1.75 -4.421875 1.96875 -4.46875 2.203125 -4.46875 C 2.296875 -4.46875 2.40625 -4.453125 2.484375 -4.453125 L 2.484375 -4.703125 L 1.625 -4.703125 L 1.46875 -4.671875 L 0.65625 -4.671875 Z M 0.34375 -4.703125 "/>
</g>
<g id="glyph-0-26">
<path d="M 0.359375 -2.953125 L 0.359375 -2.703125 L 0.453125 -2.703125 C 0.671875 -2.703125 0.875 -2.6875 0.875 -2.359375 L 0.875 -0.53125 C 0.875 -0.265625 0.71875 -0.25 0.359375 -0.25 L 0.359375 0 L 1.953125 0 L 1.953125 -0.25 L 1.796875 -0.25 C 1.609375 -0.25 1.4375 -0.28125 1.4375 -0.5 L 1.4375 -1.78125 C 1.4375 -2.265625 1.75 -2.84375 2.46875 -2.84375 C 2.875 -2.84375 3 -2.515625 3 -2.09375 L 3 -0.515625 C 3 -0.265625 2.796875 -0.25 2.578125 -0.25 L 2.484375 -0.25 L 2.484375 0 L 4.0625 0 L 4.0625 -0.25 L 3.921875 -0.25 C 3.71875 -0.25 3.546875 -0.28125 3.546875 -0.5 L 3.546875 -1.78125 C 3.546875 -2.265625 3.859375 -2.84375 4.59375 -2.84375 C 4.984375 -2.84375 5.109375 -2.515625 5.109375 -2.09375 L 5.109375 -0.515625 C 5.109375 -0.265625 4.921875 -0.25 4.703125 -0.25 L 4.59375 -0.25 L 4.59375 0 L 6.1875 0 L 6.1875 -0.25 L 6.03125 -0.25 C 5.84375 -0.25 5.671875 -0.28125 5.671875 -0.515625 L 5.671875 -1.96875 C 5.671875 -2.421875 5.609375 -3.03125 4.625 -3.03125 C 4.25 -3.03125 3.90625 -2.875 3.65625 -2.59375 C 3.609375 -2.53125 3.5625 -2.453125 3.515625 -2.390625 C 3.453125 -2.875 2.9375 -3.03125 2.546875 -3.03125 C 2.109375 -3.03125 1.546875 -2.8125 1.390625 -2.34375 L 1.375 -3.03125 L 1.03125 -3 Z M 0.359375 -2.953125 "/>
</g>
<g id="glyph-0-27">
<path d="M 2.671875 -2.75 C 2.5625 -2.6875 2.484375 -2.59375 2.484375 -2.453125 C 2.484375 -2.296875 2.59375 -2.125 2.78125 -2.125 C 3.03125 -2.125 3.140625 -2.28125 3.140625 -2.46875 C 3.140625 -3.0625 2.234375 -3.0625 1.953125 -3.0625 C 1.078125 -3.0625 0.3125 -2.390625 0.3125 -1.484375 L 0.3125 -1.40625 C 0.359375 -0.578125 1.09375 0.0625 1.96875 0.0625 C 2.46875 0.0625 2.96875 -0.171875 3.15625 -0.65625 C 3.171875 -0.703125 3.21875 -0.765625 3.21875 -0.828125 C 3.21875 -0.890625 3.15625 -0.921875 3.09375 -0.921875 C 2.96875 -0.921875 2.953125 -0.75 2.890625 -0.640625 C 2.71875 -0.328125 2.375 -0.15625 2.03125 -0.15625 C 1.3125 -0.15625 0.9375 -0.796875 0.9375 -1.515625 C 0.9375 -2.09375 1.1875 -2.796875 1.890625 -2.84375 L 1.96875 -2.84375 C 2.203125 -2.84375 2.453125 -2.828125 2.671875 -2.75 Z M 2.671875 -2.75 "/>
</g>
<g id="glyph-0-28">
<path d="M 0.421875 -4.703125 L 0.421875 -4.453125 C 0.5 -4.453125 0.578125 -4.46875 0.671875 -4.46875 C 0.90625 -4.46875 1.140625 -4.421875 1.140625 -4.1875 C 1.140625 -4.140625 1.125 -4.09375 1.125 -4.0625 L 1.125 -0.734375 C 1.125 -0.28125 0.703125 -0.25 0.421875 -0.25 L 0.421875 0 L 2.09375 0 L 2.09375 -0.25 C 1.796875 -0.25 1.375 -0.28125 1.375 -0.75 C 1.375 -0.8125 1.390625 -0.875 1.390625 -0.921875 L 1.390625 -4.390625 C 1.4375 -4.25 1.5 -4.125 1.546875 -4.015625 C 2.09375 -2.75 2.625 -1.484375 3.15625 -0.234375 C 3.203125 -0.140625 3.234375 0 3.359375 0 C 3.484375 -0.015625 3.53125 -0.15625 3.5625 -0.25 C 4.125 -1.484375 4.625 -2.765625 5.15625 -4.015625 C 5.21875 -4.15625 5.296875 -4.296875 5.34375 -4.453125 L 5.34375 -0.6875 C 5.34375 -0.640625 5.359375 -0.59375 5.359375 -0.53125 C 5.359375 -0.28125 5.109375 -0.25 4.875 -0.25 C 4.796875 -0.25 4.71875 -0.25 4.640625 -0.25 L 4.640625 0 L 5.4375 0 L 5.828125 -0.03125 L 6.359375 -0.03125 L 6.640625 0 L 6.640625 -0.25 C 6.546875 -0.25 6.453125 -0.25 6.375 -0.25 C 6.125 -0.25 5.921875 -0.28125 5.921875 -0.546875 L 5.921875 -4.0625 C 5.921875 -4.09375 5.921875 -4.140625 5.921875 -4.1875 C 5.921875 -4.421875 6.15625 -4.46875 6.390625 -4.46875 C 6.46875 -4.46875 6.5625 -4.453125 6.640625 -4.453125 L 6.640625 -4.703125 L 5.375 -4.703125 C 5.265625 -4.703125 5.21875 -4.640625 5.1875 -4.5625 L 5.109375 -4.390625 C 4.640625 -3.265625 4.15625 -2.125 3.671875 -1 C 3.625 -0.890625 3.5625 -0.78125 3.53125 -0.65625 C 3.390625 -0.953125 3.28125 -1.265625 3.15625 -1.5625 C 2.75 -2.5 2.359375 -3.4375 1.953125 -4.375 L 1.890625 -4.546875 C 1.84375 -4.640625 1.796875 -4.703125 1.6875 -4.703125 Z M 0.421875 -4.703125 "/>
</g>
<g id="glyph-0-29">
<path d="M 1.390625 -0.109375 C 1.390625 0.34375 1.25 0.75 0.90625 1.09375 C 0.859375 1.140625 0.8125 1.171875 0.8125 1.234375 C 0.8125 1.296875 0.859375 1.3125 0.90625 1.3125 C 1.03125 1.3125 1.203125 1.0625 1.296875 0.9375 C 1.484375 0.65625 1.59375 0.3125 1.59375 -0.03125 C 1.59375 -0.34375 1.5 -0.796875 1.109375 -0.796875 C 0.875 -0.796875 0.71875 -0.609375 0.71875 -0.40625 C 0.71875 -0.171875 0.875 0 1.09375 0 C 1.203125 0 1.3125 -0.046875 1.390625 -0.109375 Z M 1.390625 -0.109375 "/>
</g>
<g id="glyph-0-30">
<path d="M 0.328125 -4.703125 L 0.328125 -4.453125 L 0.453125 -4.453125 C 0.671875 -4.453125 0.84375 -4.421875 0.84375 -4.109375 L 0.84375 -0.6875 C 0.84375 -0.640625 0.859375 -0.59375 0.859375 -0.53125 C 0.859375 -0.265625 0.640625 -0.25 0.375 -0.25 L 0.328125 -0.25 L 0.328125 0 L 1.859375 0 L 1.859375 -0.25 L 1.71875 -0.25 C 1.515625 -0.25 1.34375 -0.28125 1.34375 -0.515625 L 1.34375 -1.046875 C 1.34375 -1.078125 1.34375 -1.09375 1.34375 -1.125 C 1.34375 -1.21875 1.390625 -1.234375 1.453125 -1.28125 L 1.765625 -1.53125 C 1.78125 -1.546875 1.8125 -1.5625 1.828125 -1.5625 L 1.84375 -1.5625 C 1.875 -1.5625 2 -1.375 2.078125 -1.28125 C 2.3125 -1 2.734375 -0.578125 2.734375 -0.375 C 2.734375 -0.296875 2.65625 -0.25 2.546875 -0.25 L 2.546875 0 L 3.9375 0 L 3.9375 -0.25 C 3.390625 -0.25 3.125 -0.75 2.5 -1.53125 C 2.40625 -1.640625 2.3125 -1.75 2.21875 -1.875 C 2.34375 -1.953125 2.4375 -2.03125 2.546875 -2.125 C 2.90625 -2.390625 3.296875 -2.71875 3.765625 -2.71875 L 3.765625 -2.96875 L 3.3125 -2.9375 L 2.71875 -2.9375 L 2.46875 -2.96875 L 2.46875 -2.71875 L 2.53125 -2.6875 C 2.578125 -2.671875 2.59375 -2.640625 2.59375 -2.59375 C 2.59375 -2.375 2.234375 -2.171875 2.03125 -2.03125 C 1.8125 -1.859375 1.59375 -1.6875 1.375 -1.515625 L 1.375 -4.78125 Z M 0.328125 -4.703125 "/>
</g>
<g id="glyph-0-31">
<path d="M 0.21875 -2.96875 L 0.21875 -2.71875 L 0.34375 -2.71875 C 0.75 -2.71875 0.875 -2.515625 1.0625 -2.296875 L 1.546875 -1.75 C 1.625 -1.65625 1.71875 -1.546875 1.8125 -1.453125 C 1.296875 -0.984375 0.984375 -0.25 0.171875 -0.25 L 0.171875 0 L 0.75 -0.03125 L 1.4375 0 L 1.4375 -0.25 L 1.375 -0.28125 C 1.3125 -0.3125 1.296875 -0.359375 1.296875 -0.40625 C 1.296875 -0.578125 1.4375 -0.6875 1.546875 -0.8125 C 1.6875 -0.96875 1.828125 -1.109375 1.953125 -1.265625 L 1.96875 -1.265625 C 2.015625 -1.203125 2.09375 -1.125 2.15625 -1.0625 L 2.484375 -0.671875 C 2.5625 -0.578125 2.6875 -0.46875 2.6875 -0.390625 C 2.6875 -0.3125 2.578125 -0.265625 2.5 -0.25 L 2.5 0 L 3.953125 0 L 3.953125 -0.25 L 3.8125 -0.25 C 3.453125 -0.25 3.375 -0.375 3.078125 -0.703125 L 2.546875 -1.296875 C 2.46875 -1.390625 2.375 -1.515625 2.265625 -1.609375 C 2.75 -2 3 -2.71875 3.8125 -2.71875 L 3.8125 -2.96875 L 3.21875 -2.9375 L 2.546875 -2.96875 L 2.546875 -2.71875 C 2.640625 -2.71875 2.6875 -2.625 2.6875 -2.546875 C 2.6875 -2.390625 2.5625 -2.296875 2.46875 -2.171875 L 2.109375 -1.78125 C 2.0625 -1.859375 2 -1.921875 1.9375 -2 L 1.65625 -2.3125 C 1.59375 -2.375 1.46875 -2.484375 1.46875 -2.578125 C 1.46875 -2.671875 1.578125 -2.703125 1.65625 -2.71875 L 1.65625 -2.96875 Z M 0.21875 -2.96875 "/>
</g>
</g>
<clipPath id="clip-0">
<path clip-rule="nonzero" d="M 0.882812 0 L 70 0 L 70 39 L 0.882812 39 Z M 0.882812 0 "/>
</clipPath>
<clipPath id="clip-1">
<path clip-rule="nonzero" d="M 115 0 L 183.140625 0 L 183.140625 39 L 115 39 Z M 115 0 "/>
</clipPath>
<clipPath id="clip-2">
<path clip-rule="nonzero" d="M 58 26 L 126 26 L 126 65.027344 L 58 65.027344 Z M 58 26 "/>
</clipPath>
<clipPath id="clip-3">
<path clip-rule="nonzero" d="M 114 26 L 183 26 L 183 65.027344 L 114 65.027344 Z M 114 26 "/>
</clipPath>
</defs>
<path fill-rule="nonzero" fill="rgb(92.001343%, 97.427368%, 99.497986%)" fill-opacity="1" d="M 56.371094 6.28125 L 9.125 6.28125 C 8.042969 6.28125 7.164062 7.160156 7.164062 8.246094 L 7.164062 25.488281 C 7.164062 26.574219 8.042969 27.453125 9.125 27.453125 L 56.371094 27.453125 C 57.453125 27.453125 58.332031 26.574219 58.332031 25.488281 L 58.332031 8.246094 C 58.332031 7.160156 57.453125 6.28125 56.371094 6.28125 Z M 56.371094 6.28125 "/>
<g clip-path="url(#clip-0)">
<path fill="none" stroke-width="0.79701" stroke-linecap="butt" stroke-linejoin="miter" stroke="rgb(27.529907%, 49.189758%, 59.138489%)" stroke-opacity="1" stroke-miterlimit="10" d="M 23.979497 10.745159 L -23.978086 10.745159 C -25.076412 10.745159 -25.968554 9.853017 -25.968554 8.750726 L -25.968554 -8.751115 C -25.968554 -9.853406 -25.076412 -10.745548 -23.978086 -10.745548 L 23.979497 -10.745548 C 25.077823 -10.745548 25.969965 -9.853406 25.969965 -8.751115 L 25.969965 8.750726 C 25.969965 9.853017 25.077823 10.745159 23.979497 10.745159 Z M 23.979497 10.745159 " transform="matrix(0.985164, 0, 0, -0.985164, 32.747352, 16.866996)"/>
</g>
<g fill="rgb(0%, 0%, 0%)" fill-opacity="1">
<use xlink:href="#glyph-0-1" x="14.573043" y="14.448418"/>
<use xlink:href="#glyph-0-2" x="18.906852" y="14.448418"/>
<use xlink:href="#glyph-0-3" x="21.128033" y="14.448418"/>
<use xlink:href="#glyph-0-4" x="24.23686" y="14.448418"/>
<use xlink:href="#glyph-0-5" x="27.303092" y="14.448418"/>
<use xlink:href="#glyph-0-6" x="31.214376" y="14.448418"/>
<use xlink:href="#glyph-0-4" x="34.280608" y="14.448418"/>
<use xlink:href="#glyph-0-2" x="37.346839" y="14.448418"/>
<use xlink:href="#glyph-0-5" x="39.56802" y="14.448418"/>
<use xlink:href="#glyph-0-7" x="43.479303" y="14.448418"/>
<use xlink:href="#glyph-0-3" x="47.813112" y="14.448418"/>
</g>
<g fill="rgb(0%, 0%, 0%)" fill-opacity="1">
<use xlink:href="#glyph-0-8" x="10.597906" y="22.300176"/>
<use xlink:href="#glyph-0-9" x="14.509189" y="22.300176"/>
<use xlink:href="#glyph-0-7" x="21.173417" y="22.300176"/>
<use xlink:href="#glyph-0-10" x="25.507226" y="22.300176"/>
</g>
<g fill="rgb(0%, 0%, 0%)" fill-opacity="1">
<use xlink:href="#glyph-0-11" x="31.641064" y="22.300176"/>
</g>
<g fill="rgb(0%, 0%, 0%)" fill-opacity="1">
<use xlink:href="#glyph-0-12" x="38.197427" y="22.300176"/>
</g>
<g fill="rgb(0%, 0%, 0%)" fill-opacity="1">
<use xlink:href="#glyph-0-8" x="43.585833" y="22.300176"/>
<use xlink:href="#glyph-0-6" x="47.497117" y="22.300176"/>
<use xlink:href="#glyph-0-13" x="50.563349" y="22.300176"/>
</g>
<path fill-rule="nonzero" fill="rgb(91.999817%, 100%, 91.999817%)" fill-opacity="1" stroke-width="0.79701" stroke-linecap="butt" stroke-linejoin="miter" stroke="rgb(0%, 44.999695%, 0%)" stroke-opacity="1" stroke-miterlimit="10" d="M 82.317648 10.745159 L 38.685961 10.745159 C 37.58367 10.745159 36.691528 9.853017 36.691528 8.750726 L 36.691528 -8.751115 C 36.691528 -9.853406 37.58367 -10.745548 38.685961 -10.745548 L 82.317648 -10.745548 C 83.419939 -10.745548 84.312081 -9.853406 84.312081 -8.751115 L 84.312081 8.750726 C 84.312081 9.853017 83.419939 10.745159 82.317648 10.745159 Z M 82.317648 10.745159 " transform="matrix(0.985164, 0, 0, -0.985164, 32.747352, 16.866996)"/>
<g fill="rgb(0%, 0%, 0%)" fill-opacity="1">
<use xlink:href="#glyph-0-14" x="77.242292" y="14.448418"/>
<use xlink:href="#glyph-0-8" x="81.576101" y="14.448418"/>
<use xlink:href="#glyph-0-3" x="85.487385" y="14.448418"/>
<use xlink:href="#glyph-0-10" x="88.596213" y="14.448418"/>
<use xlink:href="#glyph-0-15" x="92.08497" y="14.448418"/>
<use xlink:href="#glyph-0-2" x="94.30615" y="14.448418"/>
<use xlink:href="#glyph-0-7" x="96.527331" y="14.448418"/>
<use xlink:href="#glyph-0-10" x="100.86114" y="14.448418"/>
<use xlink:href="#glyph-0-3" x="104.349897" y="14.448418"/>
</g>
<g fill="rgb(0%, 0%, 0%)" fill-opacity="1">
<use xlink:href="#glyph-0-16" x="72.330263" y="22.300176"/>
<use xlink:href="#glyph-0-17" x="77.93165" y="22.300176"/>
<use xlink:href="#glyph-0-18" x="83.628534" y="22.300176"/>
</g>
<g fill="rgb(0%, 0%, 0%)" fill-opacity="1">
<use xlink:href="#glyph-0-11" x="90.607423" y="22.300176"/>
</g>
<g fill="rgb(0%, 0%, 0%)" fill-opacity="1">
<use xlink:href="#glyph-0-19" x="97.163787" y="22.300176"/>
<use xlink:href="#glyph-0-20" x="102.765174" y="22.300176"/>
<use xlink:href="#glyph-0-18" x="108.039532" y="22.300176"/>
</g>
<path fill-rule="nonzero" fill="rgb(91.999817%, 100%, 91.999817%)" fill-opacity="1" d="M 174.898438 6.28125 L 128.339844 6.28125 C 127.257812 6.28125 126.378906 7.160156 126.378906 8.246094 L 126.378906 25.488281 C 126.378906 26.574219 127.257812 27.453125 128.339844 27.453125 L 174.898438 27.453125 C 175.980469 27.453125 176.859375 26.574219 176.859375 25.488281 L 176.859375 8.246094 C 176.859375 7.160156 175.980469 6.28125 174.898438 6.28125 Z M 174.898438 6.28125 "/>
<g clip-path="url(#clip-1)">
<path fill="none" stroke-width="0.79701" stroke-linecap="butt" stroke-linejoin="miter" stroke="rgb(0%, 44.999695%, 0%)" stroke-opacity="1" stroke-miterlimit="10" d="M 144.291773 10.745159 L 97.032042 10.745159 C 95.933716 10.745159 95.041574 9.853017 95.041574 8.750726 L 95.041574 -8.751115 C 95.041574 -9.853406 95.933716 -10.745548 97.032042 -10.745548 L 144.291773 -10.745548 C 145.390098 -10.745548 146.28224 -9.853406 146.28224 -8.751115 L 146.28224 8.750726 C 146.28224 9.853017 145.390098 10.745159 144.291773 10.745159 Z M 144.291773 10.745159 " transform="matrix(0.985164, 0, 0, -0.985164, 32.747352, 16.866996)"/>
</g>
<g fill="rgb(0%, 0%, 0%)" fill-opacity="1">
<use xlink:href="#glyph-0-21" x="140.284918" y="14.448418"/>
<use xlink:href="#glyph-0-22" x="144.196202" y="14.448418"/>
<use xlink:href="#glyph-0-8" x="148.530011" y="14.448418"/>
<use xlink:href="#glyph-0-6" x="152.441294" y="14.448418"/>
<use xlink:href="#glyph-0-1" x="155.507526" y="14.448418"/>
<use xlink:href="#glyph-0-3" x="159.841335" y="14.448418"/>
</g>
<g fill="rgb(0%, 0%, 0%)" fill-opacity="1">
<use xlink:href="#glyph-0-13" x="129.812623" y="22.300176"/>
<use xlink:href="#glyph-0-8" x="134.146432" y="22.300176"/>
<use xlink:href="#glyph-0-6" x="138.057716" y="22.300176"/>
<use xlink:href="#glyph-0-2" x="141.123947" y="22.300176"/>
<use xlink:href="#glyph-0-4" x="143.345128" y="22.300176"/>
</g>
<g fill="rgb(0%, 0%, 0%)" fill-opacity="1">
<use xlink:href="#glyph-0-23" x="146.198379" y="22.300176"/>
</g>
<g fill="rgb(0%, 0%, 0%)" fill-opacity="1">
<use xlink:href="#glyph-0-11" x="152.966349" y="22.300176"/>
</g>
<g fill="rgb(0%, 0%, 0%)" fill-opacity="1">
<use xlink:href="#glyph-0-24" x="159.522712" y="22.300176"/>
<use xlink:href="#glyph-0-20" x="165.315094" y="22.300176"/>
<use xlink:href="#glyph-0-25" x="170.589453" y="22.300176"/>
</g>
<path fill-rule="nonzero" fill="rgb(95.999146%, 91.999817%, 95.999146%)" fill-opacity="1" d="M 112.863281 38.015625 L 71.855469 38.015625 C 70.769531 38.015625 69.890625 38.894531 69.890625 39.976562 L 69.890625 56.714844 C 69.890625 57.800781 70.769531 58.679688 71.855469 58.679688 L 112.863281 58.679688 C 113.949219 58.679688 114.828125 57.800781 114.828125 56.714844 L 114.828125 39.976562 C 114.828125 38.894531 113.949219 38.015625 112.863281 38.015625 Z M 112.863281 38.015625 "/>
<g clip-path="url(#clip-2)">
<path fill="none" stroke-width="0.79701" stroke-linecap="butt" stroke-linejoin="miter" stroke="rgb(27.49939%, 0%, 27.49939%)" stroke-opacity="1" stroke-miterlimit="10" d="M 81.322414 -21.467111 L 39.697055 -21.467111 C 38.594764 -21.467111 37.702622 -22.359253 37.702622 -23.457579 L 37.702622 -40.447926 C 37.702622 -41.550217 38.594764 -42.442359 39.697055 -42.442359 L 81.322414 -42.442359 C 82.424705 -42.442359 83.316847 -41.550217 83.316847 -40.447926 L 83.316847 -23.457579 C 83.316847 -22.359253 82.424705 -21.467111 81.322414 -21.467111 Z M 81.322414 -21.467111 " transform="matrix(0.985164, 0, 0, -0.985164, 32.747352, 16.866996)"/>
</g>
<g fill="rgb(0%, 0%, 0%)" fill-opacity="1">
<use xlink:href="#glyph-0-26" x="79.916028" y="46.05544"/>
<use xlink:href="#glyph-0-10" x="86.362466" y="46.05544"/>
<use xlink:href="#glyph-0-4" x="89.851223" y="46.05544"/>
<use xlink:href="#glyph-0-6" x="92.917455" y="46.05544"/>
<use xlink:href="#glyph-0-2" x="95.983687" y="46.05544"/>
<use xlink:href="#glyph-0-27" x="98.204867" y="46.05544"/>
<use xlink:href="#glyph-0-3" x="101.693625" y="46.05544"/>
</g>
<g fill="rgb(0%, 0%, 0%)" fill-opacity="1">
<use xlink:href="#glyph-0-17" x="73.326264" y="53.907199"/>
<use xlink:href="#glyph-0-28" x="79.023149" y="53.907199"/>
<use xlink:href="#glyph-0-18" x="86.082421" y="53.907199"/>
<use xlink:href="#glyph-0-29" x="90.41623" y="53.907199"/>
</g>
<g fill="rgb(0%, 0%, 0%)" fill-opacity="1">
<use xlink:href="#glyph-0-3" x="95.28249" y="53.907199"/>
<use xlink:href="#glyph-0-30" x="98.391318" y="53.907199"/>
</g>
<g fill="rgb(0%, 0%, 0%)" fill-opacity="1">
<use xlink:href="#glyph-0-10" x="102.301228" y="53.907199"/>
<use xlink:href="#glyph-0-12" x="105.789985" y="53.907199"/>
</g>
<path fill-rule="nonzero" fill="rgb(100%, 94.999695%, 89.99939%)" fill-opacity="1" d="M 169.53125 37.957031 L 127.363281 37.957031 C 126.277344 37.957031 125.398438 38.835938 125.398438 39.917969 L 125.398438 56.78125 C 125.398438 57.867188 126.277344 58.746094 127.363281 58.746094 L 169.53125 58.746094 C 170.613281 58.746094 171.492188 57.867188 171.492188 56.78125 L 171.492188 39.917969 C 171.492188 38.835938 170.613281 37.957031 169.53125 37.957031 Z M 169.53125 37.957031 "/>
<g clip-path="url(#clip-3)">
<path fill="none" stroke-width="0.79701" stroke-linecap="butt" stroke-linejoin="miter" stroke="rgb(69.999695%, 34.999084%, 0%)" stroke-opacity="1" stroke-miterlimit="10" d="M 138.843759 -21.407635 L 96.040773 -21.407635 C 94.938482 -21.407635 94.04634 -22.299777 94.04634 -23.398103 L 94.04634 -40.515332 C 94.04634 -41.617623 94.938482 -42.509765 96.040773 -42.509765 L 138.843759 -42.509765 C 139.942085 -42.509765 140.834227 -41.617623 140.834227 -40.515332 L 140.834227 -23.398103 C 140.834227 -22.299777 139.942085 -21.407635 138.843759 -21.407635 Z M 138.843759 -21.407635 " transform="matrix(0.985164, 0, 0, -0.985164, 32.747352, 16.866996)"/>
</g>
<g fill="rgb(0%, 0%, 0%)" fill-opacity="1">
<use xlink:href="#glyph-0-27" x="137.745165" y="46.122431"/>
<use xlink:href="#glyph-0-15" x="141.233923" y="46.122431"/>
<use xlink:href="#glyph-0-8" x="143.455103" y="46.122431"/>
<use xlink:href="#glyph-0-2" x="147.366386" y="46.122431"/>
<use xlink:href="#glyph-0-26" x="149.587566" y="46.122431"/>
<use xlink:href="#glyph-0-3" x="156.034005" y="46.122431"/>
</g>
<g fill="rgb(0%, 0%, 0%)" fill-opacity="1">
<use xlink:href="#glyph-0-10" x="128.83337" y="53.97419"/>
<use xlink:href="#glyph-0-31" x="132.322127" y="53.97419"/>
<use xlink:href="#glyph-0-13" x="136.445017" y="53.97419"/>
<use xlink:href="#glyph-0-15" x="140.778826" y="53.97419"/>
<use xlink:href="#glyph-0-5" x="143.000007" y="53.97419"/>
<use xlink:href="#glyph-0-6" x="146.91129" y="53.97419"/>
<use xlink:href="#glyph-0-8" x="149.977522" y="53.97419"/>
<use xlink:href="#glyph-0-4" x="153.888805" y="53.97419"/>
<use xlink:href="#glyph-0-5" x="156.955037" y="53.97419"/>
<use xlink:href="#glyph-0-6" x="160.86632" y="53.97419"/>
<use xlink:href="#glyph-0-23" x="163.932552" y="53.97419"/>
</g>
<path fill="none" stroke-width="0.65753" stroke-linecap="round" stroke-linejoin="miter" stroke="rgb(0%, 0%, 0%)" stroke-opacity="1" stroke-miterlimit="10" d="M 29.360104 -0.000194475 L 29.375965 -0.000194475 " transform="matrix(0.985164, 0, 0, -0.985164, 32.747352, 16.866996)"/>
<path fill-rule="nonzero" fill="rgb(0%, 0%, 0%)" fill-opacity="1" stroke-width="0.65753" stroke-linecap="round" stroke-linejoin="miter" stroke="rgb(0%, 0%, 0%)" stroke-opacity="1" stroke-miterlimit="10" d="M 5.275611 -0.000194475 L 1.084527 1.53429 L 2.468338 -0.000194475 L 1.084527 -1.534679 Z M 5.275611 -0.000194475 " transform="matrix(0.985164, 0, 0, -0.985164, 59.419844, 16.866996)"/>
<path fill="none" stroke-width="0.65753" stroke-linecap="round" stroke-linejoin="miter" stroke="rgb(0%, 0%, 0%)" stroke-opacity="1" stroke-miterlimit="10" d="M 87.71015 -0.000194475 L 87.733941 -0.000194475 " transform="matrix(0.985164, 0, 0, -0.985164, 32.747352, 16.866996)"/>
<path fill-rule="nonzero" fill="rgb(0%, 0%, 0%)" fill-opacity="1" stroke-width="0.65753" stroke-linecap="round" stroke-linejoin="miter" stroke="rgb(0%, 0%, 0%)" stroke-opacity="1" stroke-miterlimit="10" d="M 5.273122 -0.000194475 L 1.082038 1.53429 L 2.465849 -0.000194475 L 1.082038 -1.534679 Z M 5.273122 -0.000194475 " transform="matrix(0.985164, 0, 0, -0.985164, 116.910578, 16.866996)"/>
<path fill="none" stroke-width="0.65753" stroke-linecap="round" stroke-linejoin="miter" stroke="rgb(0%, 0%, 0%)" stroke-opacity="1" stroke-miterlimit="10" d="M 97.075658 -12.545692 L 87.131249 -17.823207 " transform="matrix(0.985164, 0, 0, -0.985164, 32.747352, 16.866996)"/>
<path fill-rule="nonzero" fill="rgb(0%, 0%, 0%)" fill-opacity="1" stroke-width="0.65753" stroke-linecap="round" stroke-linejoin="miter" stroke="rgb(0%, 0%, 0%)" stroke-opacity="1" stroke-miterlimit="10" d="M 5.275216 0.00108043 L 1.083783 1.534545 L 2.469035 0.000193917 L 1.08356 -1.535906 Z M 5.275216 0.00108043 " transform="matrix(-0.870156, 0.461875, 0.461875, 0.870156, 120.589762, 33.363353)"/>
<path fill="none" stroke-width="0.65753" stroke-linecap="round" stroke-linejoin="miter" stroke="rgb(0%, 0%, 0%)" stroke-opacity="1" stroke-miterlimit="10" d="M 86.714916 -31.962665 L 86.738707 -31.962665 " transform="matrix(0.985164, 0, 0, -0.985164, 32.747352, 16.866996)"/>
<path fill-rule="nonzero" fill="rgb(0%, 0%, 0%)" fill-opacity="1" stroke-width="0.65753" stroke-linecap="round" stroke-linejoin="miter" stroke="rgb(0%, 0%, 0%)" stroke-opacity="1" stroke-miterlimit="10" d="M 5.275789 0.00000617367 L 1.084835 1.535108 L 2.468459 0.000399208 L 1.084406 -1.533922 Z M 5.275789 0.00000617367 " transform="matrix(0.985144, -0.000137923, -0.000137923, -0.985144, 115.931492, 48.356202)"/>
</svg>
