<?xml version="1.0" encoding="UTF-8"?>
<svg xmlns="http://www.w3.org/2000/svg" xmlns:xlink="http://www.w3.org/1999/xlink" width="428.326" height="216.448" viewBox="0 0 428.326 216.448">
<defs>
<g>
<g id="glyph-0-0">
</g>
<g id="glyph-0-1">
<path d="M 1.4375 -0.828125 C 1.1875 -0.453125 0.96875 -0.28125 0.5625 -0.25 C 0.484375 -0.25 0.390625 -0.25 0.390625 -0.109375 C 0.390625 -0.03125 0.453125 0 0.5 0 C 0.671875 0 0.90625 -0.03125 1.09375 -0.03125 C 1.3125 -0.03125 1.59375 0 1.8125 0 C 1.84375 0 1.953125 0 1.953125 -0.15625 C 1.953125 -0.25 1.859375 -0.25 1.828125 -0.25 C 1.765625 -0.25 1.515625 -0.265625 1.515625 -0.453125 C 1.515625 -0.546875 1.59375 -0.65625 1.625 -0.71875 L 2.1875 -1.578125 L 4.171875 -1.578125 L 4.34375 -0.4375 C 4.3125 -0.359375 4.265625 -0.25 3.859375 -0.25 C 3.78125 -0.25 3.671875 -0.25 3.671875 -0.09375 C 3.671875 -0.0625 3.703125 0 3.796875 0 C 3.984375 0 4.484375 -0.03125 4.6875 -0.03125 C 4.8125 -0.03125 4.96875 -0.015625 5.09375 -0.015625 C 5.21875 -0.015625 5.375 0 5.5 0 C 5.578125 0 5.625 -0.0625 5.625 -0.140625 C 5.625 -0.25 5.546875 -0.25 5.4375 -0.25 C 5.03125 -0.25 5.015625 -0.3125 5 -0.46875 L 4.390625 -4.765625 C 4.359375 -4.90625 4.359375 -4.953125 4.21875 -4.953125 C 4.09375 -4.953125 4.046875 -4.890625 3.984375 -4.796875 Z M 2.34375 -1.828125 L 3.8125 -4.109375 L 4.140625 -1.828125 Z M 2.34375 -1.828125 "/>
</g>
<g id="glyph-0-2">
<path d="M 1.46875 -0.109375 C 1.46875 0.265625 1.390625 0.71875 0.921875 1.15625 C 0.890625 1.1875 0.875 1.203125 0.875 1.25 C 0.875 1.296875 0.9375 1.34375 0.96875 1.34375 C 1.078125 1.34375 1.65625 0.78125 1.65625 -0.046875 C 1.65625 -0.46875 1.5 -0.796875 1.171875 -0.796875 C 0.953125 -0.796875 0.78125 -0.625 0.78125 -0.40625 C 0.78125 -0.1875 0.9375 0 1.1875 0 C 1.34375 0 1.453125 -0.109375 1.46875 -0.109375 Z M 1.46875 -0.109375 "/>
</g>
<g id="glyph-0-3">
<path d="M 1.703125 -2.75 L 2.421875 -2.75 C 2.546875 -2.75 2.640625 -2.75 2.640625 -2.90625 C 2.640625 -3 2.546875 -3 2.4375 -3 L 1.765625 -3 L 2.03125 -4.03125 C 2.03125 -4.0625 2.046875 -4.09375 2.046875 -4.125 C 2.046875 -4.25 1.953125 -4.34375 1.8125 -4.34375 C 1.640625 -4.34375 1.53125 -4.234375 1.484375 -4.046875 C 1.4375 -3.875 1.53125 -4.203125 1.21875 -3 L 0.515625 -3 C 0.375 -3 0.296875 -3 0.296875 -2.84375 C 0.296875 -2.75 0.375 -2.75 0.5 -2.75 L 1.15625 -2.75 L 0.75 -1.109375 C 0.703125 -0.9375 0.640625 -0.6875 0.640625 -0.59375 C 0.640625 -0.1875 1 0.0625 1.390625 0.0625 C 2.15625 0.0625 2.59375 -0.90625 2.59375 -1 C 2.59375 -1.078125 2.515625 -1.078125 2.484375 -1.078125 C 2.40625 -1.078125 2.40625 -1.078125 2.34375 -0.953125 C 2.15625 -0.515625 1.796875 -0.125 1.40625 -0.125 C 1.265625 -0.125 1.171875 -0.21875 1.171875 -0.46875 C 1.171875 -0.53125 1.203125 -0.6875 1.203125 -0.75 Z M 1.703125 -2.75 "/>
</g>
<g id="glyph-0-4">
<path d="M 1.328125 -0.546875 C 1.265625 -0.3125 1.25 -0.25 0.703125 -0.25 C 0.59375 -0.25 0.5 -0.25 0.5 -0.109375 C 0.5 0 0.578125 0 0.703125 0 L 3.40625 0 C 4.5625 0 5.46875 -0.796875 5.46875 -1.484375 C 5.46875 -1.984375 5.015625 -2.40625 4.28125 -2.484375 C 5.125 -2.640625 5.8125 -3.15625 5.8125 -3.765625 C 5.8125 -4.296875 5.28125 -4.75 4.375 -4.75 L 1.84375 -4.75 C 1.71875 -4.75 1.625 -4.75 1.625 -4.59375 C 1.625 -4.5 1.703125 -4.5 1.84375 -4.5 C 1.859375 -4.5 1.984375 -4.5 2.109375 -4.484375 C 2.265625 -4.46875 2.28125 -4.453125 2.28125 -4.390625 C 2.28125 -4.375 2.28125 -4.34375 2.25 -4.234375 Z M 2.4375 -2.5625 L 2.859375 -4.265625 C 2.90625 -4.484375 2.921875 -4.5 3.21875 -4.5 L 4.265625 -4.5 C 4.984375 -4.5 5.140625 -4.03125 5.140625 -3.765625 C 5.140625 -3.203125 4.5 -2.5625 3.578125 -2.5625 Z M 2.09375 -0.25 C 1.890625 -0.25 1.875 -0.25 1.875 -0.3125 C 1.875 -0.328125 1.875 -0.359375 1.90625 -0.46875 L 2.390625 -2.375 L 3.859375 -2.375 C 4.515625 -2.375 4.765625 -1.9375 4.765625 -1.53125 C 4.765625 -0.84375 4.0625 -0.25 3.21875 -0.25 Z M 2.09375 -0.25 "/>
</g>
<g id="glyph-0-5">
<path d="M 0.515625 0.84375 C 0.46875 1.046875 0.453125 1.09375 0.1875 1.09375 C 0.09375 1.09375 0 1.09375 0 1.25 C 0 1.328125 0.0625 1.34375 0.09375 1.34375 C 0.265625 1.34375 0.5 1.328125 0.6875 1.328125 C 0.921875 1.328125 1.1875 1.34375 1.421875 1.34375 C 1.484375 1.34375 1.5625 1.328125 1.5625 1.203125 C 1.5625 1.09375 1.453125 1.09375 1.375 1.09375 C 1.21875 1.09375 1.03125 1.09375 1.03125 1.015625 C 1.03125 0.984375 1.078125 0.796875 1.109375 0.703125 C 1.203125 0.328125 1.296875 -0.046875 1.375 -0.34375 C 1.453125 -0.203125 1.671875 0.0625 2.09375 0.0625 C 2.9375 0.0625 3.875 -0.875 3.875 -1.90625 C 3.875 -2.71875 3.3125 -3.0625 2.828125 -3.0625 C 2.40625 -3.0625 2.03125 -2.78125 1.84375 -2.578125 C 1.71875 -2.96875 1.328125 -3.0625 1.125 -3.0625 C 0.859375 -3.0625 0.6875 -2.890625 0.578125 -2.703125 C 0.4375 -2.46875 0.328125 -2.046875 0.328125 -2 C 0.328125 -1.90625 0.421875 -1.90625 0.4375 -1.90625 C 0.546875 -1.90625 0.546875 -1.9375 0.59375 -2.125 C 0.703125 -2.53125 0.828125 -2.875 1.109375 -2.875 C 1.28125 -2.875 1.328125 -2.71875 1.328125 -2.53125 C 1.328125 -2.453125 1.328125 -2.359375 1.3125 -2.328125 Z M 1.828125 -2.234375 C 2.234375 -2.765625 2.59375 -2.875 2.8125 -2.875 C 3.078125 -2.875 3.3125 -2.671875 3.3125 -2.203125 C 3.3125 -1.90625 3.15625 -1.203125 2.953125 -0.796875 C 2.78125 -0.453125 2.4375 -0.125 2.09375 -0.125 C 1.59375 -0.125 1.46875 -0.65625 1.46875 -0.734375 C 1.46875 -0.765625 1.484375 -0.8125 1.484375 -0.828125 Z M 1.828125 -2.234375 "/>
</g>
<g id="glyph-0-6">
<path d="M 3.71875 -2.53125 C 3.71875 -3.0625 3.390625 -3.078125 3.359375 -3.078125 C 3.1875 -3.078125 2.984375 -2.890625 2.984375 -2.703125 C 2.984375 -2.59375 3.0625 -2.53125 3.109375 -2.484375 C 3.21875 -2.390625 3.359375 -2.21875 3.359375 -1.9375 C 3.359375 -1.625 2.90625 -0.125 2.078125 -0.125 C 1.515625 -0.125 1.515625 -0.625 1.515625 -0.75 C 1.515625 -1.0625 1.640625 -1.453125 1.890625 -2.09375 C 1.953125 -2.25 2 -2.34375 2 -2.46875 C 2 -2.828125 1.6875 -3.0625 1.328125 -3.0625 C 0.640625 -3.0625 0.328125 -2.109375 0.328125 -2 C 0.328125 -1.90625 0.421875 -1.90625 0.4375 -1.90625 C 0.546875 -1.90625 0.546875 -1.953125 0.5625 -2.015625 C 0.734375 -2.59375 1.03125 -2.875 1.3125 -2.875 C 1.4375 -2.875 1.484375 -2.796875 1.484375 -2.625 C 1.484375 -2.46875 1.4375 -2.328125 1.359375 -2.15625 C 1.0625 -1.390625 0.984375 -1.09375 0.984375 -0.84375 C 0.984375 -0.15625 1.53125 0.0625 2.0625 0.0625 C 3.21875 0.0625 3.71875 -1.953125 3.71875 -2.53125 Z M 3.71875 -2.53125 "/>
</g>
<g id="glyph-1-0">
</g>
<g id="glyph-1-1">
<path d="M 3.609375 -3.421875 C 3.59375 -3.53125 3.578125 -3.5625 3.46875 -3.5625 C 3.34375 -3.5625 3.3125 -3.515625 3.265625 -3.4375 L 1.3125 -0.625 C 1.109375 -0.3125 0.9375 -0.234375 0.609375 -0.21875 C 0.515625 -0.21875 0.515625 -0.09375 0.515625 -0.078125 C 0.515625 -0.015625 0.578125 0 0.59375 0 C 0.671875 0 0.75 -0.015625 0.8125 -0.015625 C 0.90625 -0.015625 0.984375 -0.015625 1.078125 -0.015625 C 1.171875 -0.015625 1.25 -0.015625 1.34375 -0.015625 C 1.4375 -0.015625 1.546875 0 1.625 0 C 1.671875 0 1.75 0 1.75 -0.140625 C 1.75 -0.21875 1.671875 -0.21875 1.65625 -0.21875 C 1.609375 -0.21875 1.421875 -0.234375 1.421875 -0.359375 C 1.421875 -0.40625 1.484375 -0.5 1.515625 -0.546875 L 1.875 -1.078125 C 1.90625 -1.109375 1.90625 -1.109375 2 -1.109375 L 3.515625 -1.109375 C 3.515625 -1.046875 3.515625 -1.03125 3.53125 -0.96875 C 3.546875 -0.875 3.65625 -0.375 3.65625 -0.328125 C 3.65625 -0.21875 3.34375 -0.21875 3.3125 -0.21875 C 3.234375 -0.21875 3.15625 -0.21875 3.15625 -0.078125 C 3.15625 -0.03125 3.1875 0 3.25 0 C 3.359375 0 3.46875 -0.015625 3.578125 -0.015625 C 3.703125 -0.015625 3.8125 -0.015625 3.9375 -0.015625 C 4.046875 -0.015625 4.15625 -0.015625 4.25 -0.015625 C 4.359375 -0.015625 4.46875 0 4.5625 0 C 4.65625 0 4.6875 -0.0625 4.6875 -0.140625 C 4.6875 -0.21875 4.609375 -0.21875 4.53125 -0.21875 C 4.203125 -0.21875 4.203125 -0.265625 4.1875 -0.375 Z M 3.171875 -2.953125 L 3.46875 -1.34375 L 2.0625 -1.34375 Z M 3.171875 -2.953125 "/>
</g>
<g id="glyph-1-2">
<path d="M 1.234375 -0.40625 C 1.1875 -0.265625 1.1875 -0.21875 0.8125 -0.21875 C 0.6875 -0.21875 0.59375 -0.21875 0.59375 -0.078125 C 0.59375 0 0.6875 0 0.765625 0 L 2.921875 0 C 3.828125 0 4.546875 -0.5625 4.546875 -1.046875 C 4.546875 -1.359375 4.265625 -1.6875 3.578125 -1.78125 C 4.078125 -1.84375 4.78125 -2.171875 4.78125 -2.671875 C 4.78125 -3.078125 4.28125 -3.390625 3.609375 -3.390625 L 1.5625 -3.390625 C 1.46875 -3.390625 1.390625 -3.390625 1.390625 -3.25 C 1.390625 -3.171875 1.453125 -3.171875 1.578125 -3.171875 C 1.625 -3.171875 1.796875 -3.171875 1.890625 -3.140625 C 1.890625 -3.078125 1.890625 -3.078125 1.890625 -3.015625 Z M 2.078125 -1.84375 L 2.359375 -3 C 2.40625 -3.15625 2.40625 -3.171875 2.609375 -3.171875 L 3.515625 -3.171875 C 4.015625 -3.171875 4.25 -2.921875 4.25 -2.65625 C 4.25 -2.25 3.703125 -1.84375 3.015625 -1.84375 Z M 1.828125 -0.21875 C 1.796875 -0.21875 1.71875 -0.21875 1.671875 -0.234375 C 1.671875 -0.265625 1.671875 -0.28125 1.6875 -0.328125 L 2.03125 -1.671875 L 3.234375 -1.671875 C 3.75 -1.671875 4 -1.390625 4 -1.078125 C 4 -0.59375 3.40625 -0.21875 2.796875 -0.21875 Z M 1.828125 -0.21875 "/>
</g>
<g id="glyph-2-0">
</g>
<g id="glyph-2-1">
<path d="M 1.4375 -4.953125 C 1.4375 -5.0625 1.4375 -5.21875 1.265625 -5.21875 C 1.09375 -5.21875 1.09375 -5.046875 1.09375 -4.921875 L 1.09375 1.4375 C 1.09375 1.5625 1.09375 1.734375 1.265625 1.734375 C 1.4375 1.734375 1.4375 1.578125 1.4375 1.46875 Z M 2.96875 -4.921875 C 2.96875 -5.046875 2.96875 -5.21875 2.796875 -5.21875 C 2.625 -5.21875 2.625 -5.0625 2.625 -4.953125 L 2.625 1.46875 C 2.625 1.578125 2.625 1.734375 2.796875 1.734375 C 2.96875 1.734375 2.96875 1.5625 2.96875 1.4375 Z M 2.96875 -4.921875 "/>
</g>
<g id="glyph-2-2">
<path d="M 5.171875 -1.578125 C 5.28125 -1.578125 5.453125 -1.578125 5.453125 -1.734375 C 5.453125 -1.90625 5.296875 -1.90625 5.171875 -1.90625 L 1.03125 -1.90625 C 0.921875 -1.90625 0.75 -1.90625 0.75 -1.75 C 0.75 -1.578125 0.90625 -1.578125 1.03125 -1.578125 Z M 5.171875 -1.578125 "/>
</g>
<g id="glyph-2-3">
<path d="M 5.296875 -4.40625 C 5.390625 -4.453125 5.453125 -4.5 5.453125 -4.59375 C 5.453125 -4.6875 5.375 -4.765625 5.28125 -4.765625 C 5.265625 -4.765625 5.234375 -4.765625 5.15625 -4.71875 L 0.90625 -2.6875 C 0.796875 -2.625 0.75 -2.578125 0.75 -2.5 C 0.75 -2.421875 0.796875 -2.359375 0.90625 -2.3125 L 5.140625 -0.28125 C 5.234375 -0.234375 5.265625 -0.234375 5.28125 -0.234375 C 5.390625 -0.234375 5.453125 -0.3125 5.453125 -0.390625 C 5.453125 -0.5 5.375 -0.546875 5.3125 -0.578125 L 1.3125 -2.5 Z M 5.171875 1.296875 C 5.28125 1.296875 5.453125 1.296875 5.453125 1.140625 C 5.453125 0.953125 5.296875 0.953125 5.171875 0.953125 L 1.03125 0.953125 C 0.90625 0.953125 0.75 0.953125 0.75 1.140625 C 0.75 1.296875 0.921875 1.296875 1.03125 1.296875 Z M 5.171875 1.296875 "/>
</g>
<g id="glyph-3-0">
</g>
<g id="glyph-3-1">
<path d="M 4.703125 -1.5 C 4.703125 -2.109375 4.25 -2.203125 3.875 -2.203125 C 3.390625 -2.203125 3.09375 -1.953125 2.96875 -1.734375 C 2.84375 -2.1875 2.328125 -2.203125 2.140625 -2.203125 C 1.640625 -2.203125 1.34375 -1.921875 1.21875 -1.703125 L 1.21875 -2.203125 L 0.40625 -2.140625 L 0.40625 -1.921875 C 0.78125 -1.921875 0.8125 -1.890625 0.8125 -1.640625 L 0.8125 -0.421875 C 0.8125 -0.265625 0.8125 -0.21875 0.5 -0.21875 L 0.40625 -0.21875 L 0.40625 0 C 0.625 -0.015625 0.828125 -0.015625 1.046875 -0.015625 C 1.25 -0.015625 1.46875 -0.015625 1.671875 0 L 1.671875 -0.21875 L 1.578125 -0.21875 C 1.265625 -0.21875 1.265625 -0.265625 1.265625 -0.421875 L 1.265625 -1.28125 C 1.265625 -1.828125 1.765625 -2.03125 2.09375 -2.03125 C 2.453125 -2.03125 2.546875 -1.828125 2.546875 -1.5 L 2.546875 -0.421875 C 2.546875 -0.265625 2.546875 -0.21875 2.21875 -0.21875 L 2.125 -0.21875 L 2.125 0 C 2.34375 -0.015625 2.546875 -0.015625 2.765625 -0.015625 C 2.96875 -0.015625 3.1875 -0.015625 3.40625 0 L 3.40625 -0.21875 L 3.3125 -0.21875 C 2.984375 -0.21875 2.984375 -0.265625 2.984375 -0.421875 L 2.984375 -1.28125 C 2.984375 -1.828125 3.5 -2.03125 3.8125 -2.03125 C 4.171875 -2.03125 4.265625 -1.828125 4.265625 -1.5 L 4.265625 -0.421875 C 4.265625 -0.265625 4.265625 -0.21875 3.9375 -0.21875 L 3.859375 -0.21875 L 3.859375 0 C 4.0625 -0.015625 4.28125 -0.015625 4.484375 -0.015625 C 4.703125 -0.015625 4.90625 -0.015625 5.125 0 L 5.125 -0.21875 L 5.03125 -0.21875 C 4.703125 -0.21875 4.703125 -0.265625 4.703125 -0.421875 Z M 4.703125 -1.5 "/>
</g>
<g id="glyph-3-2">
<path d="M 2.59375 -1.46875 C 2.59375 -1.953125 2.09375 -2.21875 1.484375 -2.21875 C 1.171875 -2.21875 0.59375 -2.21875 0.59375 -1.78125 C 0.59375 -1.609375 0.734375 -1.515625 0.859375 -1.515625 C 1 -1.515625 1.125 -1.609375 1.125 -1.78125 C 1.125 -1.90625 1.0625 -1.984375 1.015625 -2 C 1.171875 -2.0625 1.421875 -2.0625 1.46875 -2.0625 C 1.890625 -2.0625 2.15625 -1.828125 2.15625 -1.46875 L 2.15625 -1.34375 C 1.671875 -1.3125 1.40625 -1.296875 1.03125 -1.171875 C 0.703125 -1.046875 0.40625 -0.84375 0.40625 -0.515625 C 0.40625 -0.046875 0.984375 0.046875 1.375 0.046875 C 1.765625 0.046875 2.0625 -0.09375 2.21875 -0.359375 C 2.234375 -0.171875 2.34375 0.03125 2.609375 0.03125 C 2.640625 0.03125 3.203125 0.03125 3.203125 -0.453125 L 3.203125 -0.71875 L 3 -0.71875 L 3 -0.453125 C 3 -0.40625 3 -0.1875 2.796875 -0.1875 C 2.59375 -0.1875 2.59375 -0.40625 2.59375 -0.453125 Z M 2.15625 -0.703125 C 2.15625 -0.15625 1.5625 -0.109375 1.4375 -0.109375 C 1.140625 -0.109375 0.859375 -0.265625 0.859375 -0.515625 C 0.859375 -0.6875 0.96875 -1.140625 2.15625 -1.1875 Z M 2.15625 -0.703125 "/>
</g>
<g id="glyph-3-3">
<path d="M 3.1875 -2.140625 C 3.046875 -2.125 2.90625 -2.125 2.703125 -2.125 C 2.53125 -2.125 2.328125 -2.125 2.15625 -2.140625 L 2.15625 -1.921875 C 2.25 -1.90625 2.25 -1.84375 2.25 -1.828125 C 2.25 -1.734375 2.203125 -1.6875 2.0625 -1.546875 L 1.8125 -1.3125 C 1.578125 -1.53125 1.328125 -1.78125 1.328125 -1.828125 C 1.328125 -1.921875 1.4375 -1.921875 1.453125 -1.921875 L 1.453125 -2.140625 C 1.25 -2.125 0.859375 -2.125 0.84375 -2.125 C 0.640625 -2.125 0.5 -2.125 0.28125 -2.140625 L 0.28125 -1.921875 L 0.375 -1.921875 C 0.703125 -1.921875 0.703125 -1.90625 0.96875 -1.640625 L 1.5625 -1.046875 C 1.515625 -1.03125 1.09375 -0.59375 1.015625 -0.515625 C 0.875 -0.390625 0.6875 -0.21875 0.265625 -0.21875 L 0.265625 0 C 0.40625 -0.015625 0.546875 -0.015625 0.734375 -0.015625 C 0.90625 -0.015625 1.109375 -0.015625 1.28125 0 L 1.28125 -0.21875 C 1.21875 -0.234375 1.203125 -0.28125 1.203125 -0.3125 C 1.203125 -0.390625 1.265625 -0.46875 1.28125 -0.484375 C 1.34375 -0.546875 1.671875 -0.875 1.703125 -0.90625 C 1.875 -0.734375 2.09375 -0.515625 2.21875 -0.375 C 2.25 -0.328125 2.25 -0.328125 2.25 -0.3125 C 2.25 -0.21875 2.140625 -0.21875 2.125 -0.21875 L 2.125 0 C 2.328125 -0.015625 2.71875 -0.015625 2.75 -0.015625 C 2.9375 -0.015625 3.078125 -0.015625 3.296875 0 L 3.296875 -0.21875 L 3.203125 -0.21875 C 2.921875 -0.21875 2.875 -0.265625 2.8125 -0.296875 C 2.765625 -0.328125 2.1875 -0.921875 1.96875 -1.15625 C 2.578125 -1.78125 2.703125 -1.921875 3.1875 -1.921875 Z M 3.1875 -2.140625 "/>
</g>
<g id="glyph-4-0">
</g>
<g id="glyph-4-1">
<path d="M 2.46875 -5.21875 C 1.140625 -4.28125 0.796875 -2.8125 0.796875 -1.75 C 0.796875 -0.765625 1.09375 0.765625 2.46875 1.734375 C 2.53125 1.734375 2.609375 1.734375 2.609375 1.640625 C 2.609375 1.609375 2.59375 1.59375 2.53125 1.546875 C 1.609375 0.703125 1.265625 -0.46875 1.265625 -1.734375 C 1.265625 -3.609375 1.984375 -4.53125 2.5625 -5.046875 C 2.59375 -5.078125 2.609375 -5.09375 2.609375 -5.125 C 2.609375 -5.21875 2.53125 -5.21875 2.46875 -5.21875 Z M 2.46875 -5.21875 "/>
</g>
<g id="glyph-4-2">
<path d="M 0.625 -5.21875 C 0.578125 -5.21875 0.5 -5.21875 0.5 -5.125 C 0.5 -5.09375 0.515625 -5.078125 0.5625 -5.03125 C 1.15625 -4.484375 1.828125 -3.546875 1.828125 -1.75 C 1.828125 -0.296875 1.375 0.8125 0.625 1.484375 C 0.5 1.609375 0.5 1.609375 0.5 1.640625 C 0.5 1.6875 0.515625 1.734375 0.578125 1.734375 C 0.671875 1.734375 1.328125 1.265625 1.78125 0.40625 C 2.09375 -0.171875 2.296875 -0.921875 2.296875 -1.734375 C 2.296875 -2.71875 2 -4.234375 0.625 -5.21875 Z M 0.625 -5.21875 "/>
</g>
<g id="glyph-5-0">
</g>
<g id="glyph-5-1">
<path d="M 0.421875 -4.75 L 0.421875 -4.5 C 0.5 -4.5 0.59375 -4.515625 0.6875 -4.515625 C 0.921875 -4.515625 1.140625 -4.484375 1.140625 -4.234375 C 1.140625 -4.1875 1.140625 -4.140625 1.140625 -4.109375 L 1.140625 -0.734375 C 1.140625 -0.296875 0.71875 -0.25 0.421875 -0.25 L 0.421875 0 L 2.125 0 L 2.125 -0.25 C 1.8125 -0.25 1.390625 -0.296875 1.390625 -0.765625 C 1.390625 -0.828125 1.40625 -0.890625 1.40625 -0.9375 L 1.40625 -4.4375 C 1.453125 -4.296875 1.515625 -4.171875 1.578125 -4.046875 C 2.125 -2.78125 2.65625 -1.515625 3.1875 -0.234375 C 3.234375 -0.140625 3.265625 0 3.390625 0 L 3.40625 0 C 3.53125 -0.015625 3.5625 -0.15625 3.609375 -0.25 C 4.171875 -1.515625 4.671875 -2.796875 5.21875 -4.0625 C 5.28125 -4.203125 5.359375 -4.359375 5.40625 -4.5 L 5.40625 -0.703125 C 5.40625 -0.640625 5.421875 -0.59375 5.421875 -0.546875 C 5.421875 -0.28125 5.171875 -0.25 4.9375 -0.25 C 4.859375 -0.25 4.765625 -0.25 4.6875 -0.25 L 4.6875 0 L 5.5 0 L 5.890625 -0.03125 L 6.421875 -0.03125 L 6.703125 0 L 6.703125 -0.25 C 6.625 -0.25 6.53125 -0.25 6.453125 -0.25 C 6.203125 -0.25 6 -0.28125 6 -0.546875 L 6 -4.109375 C 6 -4.140625 5.984375 -4.1875 5.984375 -4.234375 C 5.984375 -4.484375 6.234375 -4.515625 6.46875 -4.515625 C 6.546875 -4.515625 6.640625 -4.5 6.703125 -4.5 L 6.703125 -4.75 L 5.4375 -4.75 C 5.328125 -4.75 5.28125 -4.703125 5.25 -4.609375 L 5.171875 -4.4375 C 4.6875 -3.296875 4.203125 -2.15625 3.71875 -1.015625 C 3.671875 -0.890625 3.609375 -0.78125 3.578125 -0.671875 C 3.4375 -0.96875 3.3125 -1.265625 3.1875 -1.578125 C 2.78125 -2.53125 2.390625 -3.484375 1.96875 -4.421875 L 1.90625 -4.609375 C 1.875 -4.6875 1.8125 -4.75 1.703125 -4.75 Z M 0.421875 -4.75 "/>
</g>
<g id="glyph-5-2">
<path d="M 2.90625 -4.890625 C 1.828125 -4.75 0.796875 -4.171875 0.53125 -2.890625 C 0.5 -2.71875 0.484375 -2.53125 0.484375 -2.359375 C 0.484375 -0.96875 1.671875 0.140625 3.046875 0.140625 C 4.375 0.140625 5.609375 -0.921875 5.609375 -2.359375 C 5.609375 -3.6875 4.53125 -4.890625 3 -4.890625 Z M 1.21875 -2.3125 L 1.21875 -2.40625 C 1.21875 -3.203125 1.453125 -4.09375 2.296875 -4.5 C 2.53125 -4.609375 2.78125 -4.671875 3.03125 -4.671875 C 4.09375 -4.671875 4.875 -3.78125 4.875 -2.46875 C 4.875 -1.546875 4.53125 -0.390625 3.375 -0.125 C 3.265625 -0.109375 3.15625 -0.09375 3.046875 -0.09375 C 2.40625 -0.09375 1.828125 -0.5 1.53125 -1.0625 C 1.328125 -1.453125 1.265625 -1.875 1.21875 -2.3125 Z M 1.21875 -2.3125 "/>
</g>
<g id="glyph-5-3">
<path d="M 0.40625 -4.75 L 0.40625 -4.5 C 0.5 -4.5 0.59375 -4.515625 0.671875 -4.515625 C 0.921875 -4.515625 1.125 -4.484375 1.125 -4.21875 L 1.125 -0.65625 C 1.125 -0.625 1.140625 -0.578125 1.140625 -0.53125 C 1.140625 -0.28125 0.890625 -0.25 0.65625 -0.25 C 0.5625 -0.25 0.484375 -0.25 0.40625 -0.25 L 0.40625 0 L 3.109375 0 C 3.671875 0 4.28125 -0.0625 4.71875 -0.515625 C 4.921875 -0.71875 5.0625 -1 5.0625 -1.28125 C 5.0625 -1.859375 4.546875 -2.234375 4.0625 -2.390625 C 3.90625 -2.4375 3.75 -2.46875 3.609375 -2.484375 C 4.0625 -2.640625 4.84375 -2.78125 4.84375 -3.59375 C 4.84375 -4.046875 4.421875 -4.421875 4.015625 -4.59375 C 3.671875 -4.734375 3.296875 -4.75 2.921875 -4.75 Z M 1.734375 -2.375 L 2.78125 -2.375 C 2.90625 -2.375 3.015625 -2.390625 3.140625 -2.390625 C 3.765625 -2.390625 4.34375 -1.953125 4.34375 -1.296875 C 4.34375 -0.765625 3.875 -0.34375 3.359375 -0.28125 C 3.234375 -0.25 3.125 -0.25 3 -0.25 L 2.015625 -0.25 C 1.875 -0.25 1.734375 -0.265625 1.734375 -0.46875 Z M 1.734375 -2.578125 L 1.734375 -4.265625 C 1.734375 -4.453125 1.828125 -4.5 2.015625 -4.5 L 2.984375 -4.5 C 3.421875 -4.5 3.84375 -4.40625 4.0625 -3.9375 C 4.109375 -3.828125 4.15625 -3.703125 4.15625 -3.578125 C 4.15625 -3 3.59375 -2.625 3.078125 -2.578125 C 2.984375 -2.578125 2.90625 -2.578125 2.8125 -2.578125 Z M 1.734375 -2.578125 "/>
</g>
<g id="glyph-5-4">
<path d="M 0.40625 -4.75 L 0.40625 -4.5 C 0.5 -4.5 0.578125 -4.515625 0.671875 -4.515625 C 0.90625 -4.515625 1.125 -4.484375 1.125 -4.21875 L 1.125 -0.65625 C 1.125 -0.625 1.125 -0.578125 1.125 -0.53125 C 1.125 -0.28125 0.890625 -0.25 0.640625 -0.25 C 0.5625 -0.25 0.46875 -0.25 0.40625 -0.25 L 0.40625 0 L 1.234375 0 L 1.390625 -0.03125 L 2.171875 -0.03125 L 2.46875 0 L 2.46875 -0.25 C 2.375 -0.25 2.28125 -0.25 2.171875 -0.25 C 1.953125 -0.25 1.75 -0.296875 1.75 -0.5625 L 1.75 -2.28125 L 2.59375 -2.28125 C 2.96875 -2.28125 3.359375 -2.203125 3.578125 -1.875 C 3.703125 -1.703125 3.71875 -1.515625 3.71875 -1.328125 L 3.71875 -1.21875 C 3.71875 -1.125 3.703125 -1.015625 3.703125 -0.921875 C 3.703125 -0.421875 3.984375 0.09375 4.875 0.125 L 4.9375 0.125 C 5.375 0.125 5.6875 -0.21875 5.6875 -0.625 C 5.6875 -0.703125 5.671875 -0.765625 5.5625 -0.765625 C 5.4375 -0.765625 5.4375 -0.640625 5.4375 -0.546875 C 5.40625 -0.3125 5.203125 -0.0625 4.953125 -0.0625 C 4.546875 -0.0625 4.484375 -0.609375 4.453125 -0.9375 C 4.375 -1.421875 4.40625 -1.90625 3.84375 -2.21875 C 3.734375 -2.28125 3.609375 -2.359375 3.484375 -2.375 C 3.96875 -2.53125 4.609375 -2.71875 4.734375 -3.390625 C 4.734375 -3.421875 4.734375 -3.453125 4.734375 -3.484375 C 4.734375 -4.03125 4.25 -4.390625 3.796875 -4.5625 C 3.5 -4.6875 3.171875 -4.734375 2.84375 -4.75 Z M 1.75 -2.484375 L 1.75 -4.265625 C 1.75 -4.46875 1.859375 -4.5 2.015625 -4.5 L 2.546875 -4.5 C 3.15625 -4.5 4 -4.421875 4 -3.484375 C 4 -2.515625 3.046875 -2.484375 2.421875 -2.484375 Z M 1.75 -2.484375 "/>
</g>
<g id="glyph-5-5">
<path d="M 1.859375 -3.09375 C 1.0625 -3.015625 0.265625 -2.453125 0.265625 -1.484375 L 0.265625 -1.421875 C 0.3125 -0.484375 1.171875 0.0625 2 0.0625 C 2.78125 0.0625 3.625 -0.5 3.671875 -1.421875 L 3.671875 -1.453125 C 3.671875 -2.421875 2.875 -3.09375 1.9375 -3.09375 Z M 0.90625 -1.359375 C 0.90625 -1.421875 0.890625 -1.46875 0.890625 -1.53125 C 0.890625 -1.90625 0.9375 -2.359375 1.265625 -2.65625 C 1.453125 -2.828125 1.703125 -2.90625 1.953125 -2.90625 C 2.28125 -2.90625 2.59375 -2.78125 2.796875 -2.53125 C 3.015625 -2.28125 3.046875 -1.921875 3.046875 -1.625 C 3.046875 -1.234375 3.03125 -0.796875 2.765625 -0.484375 C 2.5625 -0.265625 2.265625 -0.15625 1.96875 -0.15625 C 1.4375 -0.15625 1.03125 -0.5 0.9375 -1.078125 C 0.921875 -1.171875 0.921875 -1.265625 0.90625 -1.359375 Z M 0.90625 -1.359375 "/>
</g>
<g id="glyph-5-6">
<path d="M 0.375 -2.984375 L 0.375 -2.734375 L 0.4375 -2.734375 C 0.609375 -2.734375 0.875 -2.71875 0.875 -2.53125 C 0.890625 -2.4375 0.890625 -2.359375 0.890625 -2.28125 L 0.890625 -0.96875 C 0.890625 -0.171875 1.375 0.0625 2.015625 0.0625 C 2.40625 0.0625 2.859375 -0.109375 3.046875 -0.53125 L 3.0625 0.0625 L 4.109375 0 L 4.109375 -0.25 L 4.015625 -0.25 C 3.796875 -0.25 3.59375 -0.28125 3.59375 -0.59375 L 3.59375 -3.0625 L 2.515625 -2.984375 L 2.515625 -2.734375 C 2.796875 -2.734375 3.03125 -2.734375 3.03125 -2.390625 L 3.03125 -1.234375 C 3.03125 -0.671875 2.71875 -0.125 2.09375 -0.125 C 1.84375 -0.125 1.515625 -0.1875 1.453125 -0.546875 C 1.453125 -0.65625 1.453125 -0.78125 1.453125 -0.90625 L 1.453125 -3.0625 Z M 0.375 -2.984375 "/>
</g>
<g id="glyph-5-7">
<path d="M 1.15625 -4.28125 C 1.15625 -3.734375 0.890625 -2.9375 0.1875 -2.9375 L 0.1875 -2.75 L 0.84375 -2.75 L 0.84375 -0.96875 C 0.84375 -0.75 0.859375 -0.515625 0.96875 -0.328125 C 1.15625 -0.046875 1.5 0.0625 1.828125 0.0625 C 2.078125 0.0625 2.296875 -0.046875 2.4375 -0.25 C 2.59375 -0.484375 2.609375 -0.734375 2.609375 -1 L 2.609375 -1.265625 L 2.375 -1.265625 C 2.375 -1.171875 2.390625 -1.078125 2.390625 -0.96875 C 2.390625 -0.6875 2.3125 -0.15625 1.890625 -0.15625 C 1.5 -0.15625 1.390625 -0.5625 1.390625 -0.921875 L 1.390625 -2.75 L 2.484375 -2.75 L 2.484375 -3 L 1.390625 -3 L 1.390625 -4.28125 Z M 1.15625 -4.28125 "/>
</g>
<g id="glyph-5-8">
<path d="M 0.90625 -1.59375 L 3.09375 -1.59375 C 3.21875 -1.59375 3.25 -1.640625 3.25 -1.734375 C 3.25 -2.484375 2.78125 -3.09375 1.890625 -3.09375 C 1.0625 -3.09375 0.265625 -2.46875 0.265625 -1.515625 C 0.265625 -0.578125 1.109375 0.0625 1.96875 0.0625 C 2.46875 0.0625 3.09375 -0.21875 3.234375 -0.765625 C 3.234375 -0.78125 3.25 -0.8125 3.25 -0.828125 L 3.25 -0.859375 C 3.234375 -0.90625 3.1875 -0.9375 3.140625 -0.9375 C 3 -0.9375 2.96875 -0.703125 2.875 -0.578125 C 2.671875 -0.3125 2.34375 -0.15625 2 -0.15625 L 1.984375 -0.15625 C 1.703125 -0.15625 1.390625 -0.3125 1.234375 -0.5 C 0.953125 -0.796875 0.90625 -1.203125 0.90625 -1.59375 Z M 0.90625 -1.765625 C 0.984375 -2.296875 1.21875 -2.90625 1.890625 -2.90625 C 2.140625 -2.90625 2.34375 -2.8125 2.53125 -2.59375 C 2.703125 -2.359375 2.765625 -2.046875 2.765625 -1.765625 Z M 0.90625 -1.765625 "/>
</g>
<g id="glyph-5-9">
<path d="M 0.328125 -2.984375 L 0.328125 -2.734375 L 0.4375 -2.734375 C 0.640625 -2.734375 0.859375 -2.71875 0.859375 -2.390625 L 0.859375 -0.546875 C 0.859375 -0.265625 0.6875 -0.25 0.328125 -0.25 L 0.328125 0 L 2.03125 0 L 2.03125 -0.25 C 1.953125 -0.25 1.875 -0.25 1.796875 -0.25 C 1.578125 -0.25 1.390625 -0.28125 1.390625 -0.53125 L 1.390625 -1.078125 C 1.390625 -1.203125 1.375 -1.34375 1.375 -1.484375 C 1.375 -2.03125 1.5625 -2.875 2.3125 -2.875 L 2.3125 -2.859375 C 2.234375 -2.8125 2.203125 -2.71875 2.203125 -2.625 C 2.203125 -2.421875 2.34375 -2.296875 2.515625 -2.296875 C 2.703125 -2.296875 2.828125 -2.453125 2.828125 -2.609375 C 2.828125 -2.90625 2.546875 -3.0625 2.28125 -3.0625 C 1.828125 -3.0625 1.4375 -2.6875 1.34375 -2.296875 L 1.328125 -3.0625 L 0.984375 -3.03125 Z M 0.328125 -2.984375 "/>
</g>
<g id="glyph-5-10">
<path d="M 1.046875 -2.734375 C 1.234375 -2.859375 1.484375 -2.90625 1.703125 -2.90625 C 2.03125 -2.90625 2.3125 -2.765625 2.46875 -2.484375 C 2.546875 -2.328125 2.546875 -2.15625 2.546875 -2 L 2.546875 -1.859375 C 1.703125 -1.859375 0.375 -1.625 0.375 -0.703125 C 0.375 -0.25 0.890625 0.0625 1.578125 0.0625 C 1.96875 0.0625 2.46875 -0.125 2.625 -0.515625 C 2.671875 -0.21875 2.84375 0.03125 3.1875 0.03125 C 3.5625 0.03125 3.859375 -0.234375 3.859375 -0.609375 L 3.859375 -1.015625 L 3.609375 -1.015625 L 3.609375 -0.671875 C 3.609375 -0.484375 3.578125 -0.25 3.359375 -0.25 C 3.140625 -0.25 3.109375 -0.5 3.109375 -0.65625 L 3.109375 -1.78125 C 3.109375 -1.875 3.109375 -1.953125 3.109375 -2.046875 C 3.109375 -2.78125 2.359375 -3.09375 1.734375 -3.09375 C 1.3125 -3.09375 0.625 -2.96875 0.625 -2.4375 C 0.625 -2.25 0.734375 -2.09375 0.953125 -2.09375 C 1.140625 -2.09375 1.28125 -2.234375 1.28125 -2.421875 C 1.28125 -2.578125 1.203125 -2.6875 1.046875 -2.734375 Z M 2.546875 -1.671875 L 2.546875 -1 C 2.546875 -0.484375 2.15625 -0.125 1.671875 -0.125 C 1.359375 -0.125 0.96875 -0.34375 0.96875 -0.703125 C 0.96875 -1.453125 1.96875 -1.671875 2.546875 -1.671875 Z M 2.546875 -1.671875 "/>
</g>
<g id="glyph-5-11">
<path d="M 2.703125 -2.78125 C 2.59375 -2.71875 2.515625 -2.625 2.515625 -2.484375 C 2.515625 -2.3125 2.625 -2.15625 2.8125 -2.15625 C 3.0625 -2.15625 3.171875 -2.296875 3.171875 -2.484375 C 3.171875 -3.09375 2.265625 -3.09375 1.984375 -3.09375 C 1.09375 -3.09375 0.3125 -2.40625 0.3125 -1.515625 L 0.3125 -1.421875 C 0.359375 -0.578125 1.109375 0.0625 1.984375 0.0625 C 2.5 0.0625 3 -0.1875 3.203125 -0.671875 C 3.21875 -0.71875 3.25 -0.78125 3.25 -0.828125 C 3.25 -0.890625 3.203125 -0.921875 3.140625 -0.921875 C 3 -0.921875 2.984375 -0.765625 2.921875 -0.640625 C 2.75 -0.328125 2.40625 -0.15625 2.046875 -0.15625 C 1.328125 -0.15625 0.953125 -0.8125 0.953125 -1.53125 C 0.953125 -2.109375 1.203125 -2.828125 1.921875 -2.875 L 2 -2.875 C 2.234375 -2.875 2.484375 -2.859375 2.703125 -2.78125 Z M 2.703125 -2.78125 "/>
</g>
<g id="glyph-5-12">
<path d="M 0.375 -4.75 L 0.375 -4.5 L 0.484375 -4.5 C 0.703125 -4.5 0.890625 -4.484375 0.890625 -4.15625 L 0.890625 -0.703125 C 0.890625 -0.640625 0.890625 -0.59375 0.890625 -0.546875 C 0.890625 -0.265625 0.6875 -0.25 0.40625 -0.25 L 0.375 -0.25 L 0.375 0 L 1.96875 0 L 1.96875 -0.25 L 1.828125 -0.25 C 1.625 -0.25 1.453125 -0.28125 1.453125 -0.5 L 1.453125 -1.796875 C 1.453125 -2.28125 1.765625 -2.875 2.5 -2.875 C 2.90625 -2.875 3.03125 -2.546875 3.03125 -2.125 L 3.03125 -0.515625 C 3.03125 -0.265625 2.828125 -0.25 2.609375 -0.25 L 2.515625 -0.25 L 2.515625 0 L 4.109375 0 L 4.109375 -0.25 L 3.96875 -0.25 C 3.78125 -0.25 3.59375 -0.28125 3.59375 -0.515625 L 3.59375 -2.046875 C 3.59375 -2.25 3.578125 -2.453125 3.484375 -2.640625 C 3.296875 -2.96875 2.90625 -3.0625 2.5625 -3.0625 C 2.140625 -3.0625 1.59375 -2.84375 1.421875 -2.421875 L 1.421875 -4.828125 Z M 0.375 -4.75 "/>
</g>
<g id="glyph-5-13">
<path d="M 0.328125 -4.75 L 0.328125 -4.5 L 0.4375 -4.5 C 0.65625 -4.5 0.859375 -4.484375 0.859375 -4.125 L 0.859375 0 L 1.078125 -0.015625 L 1.328125 -0.421875 C 1.609375 -0.125 1.953125 0.0625 2.375 0.0625 C 3.234375 0.0625 4.0625 -0.59375 4.0625 -1.515625 C 4.0625 -2.34375 3.34375 -3.0625 2.4375 -3.0625 C 2.046875 -3.0625 1.671875 -2.921875 1.390625 -2.65625 L 1.390625 -4.828125 Z M 3.421875 -1.359375 C 3.40625 -1.0625 3.359375 -0.765625 3.15625 -0.53125 C 2.953125 -0.28125 2.640625 -0.140625 2.328125 -0.140625 C 2.03125 -0.140625 1.703125 -0.28125 1.515625 -0.546875 C 1.453125 -0.625 1.40625 -0.703125 1.40625 -0.796875 L 1.40625 -2.296875 C 1.46875 -2.609375 2.015625 -2.875 2.390625 -2.875 C 3.21875 -2.875 3.4375 -2.078125 3.4375 -1.5 C 3.4375 -1.453125 3.4375 -1.40625 3.421875 -1.359375 Z M 3.421875 -1.359375 "/>
</g>
<g id="glyph-5-14">
<path d="M 0.375 -4.75 L 0.375 -4.5 L 0.5 -4.5 C 0.71875 -4.5 0.90625 -4.484375 0.90625 -4.15625 L 0.90625 -0.703125 C 0.90625 -0.640625 0.90625 -0.59375 0.90625 -0.546875 C 0.90625 -0.265625 0.703125 -0.25 0.421875 -0.25 L 0.375 -0.25 L 0.375 0 L 1.953125 0 L 1.953125 -0.25 L 1.78125 -0.25 C 1.59375 -0.25 1.4375 -0.28125 1.4375 -0.515625 L 1.4375 -4.828125 Z M 0.375 -4.75 "/>
</g>
<g id="glyph-5-15">
<path d="M 0.734375 -0.234375 C 0.984375 -0.03125 1.265625 0.0625 1.578125 0.0625 C 2.109375 0.0625 2.828125 -0.125 2.828125 -0.90625 L 2.828125 -0.984375 C 2.71875 -2.25 0.703125 -1.65625 0.703125 -2.453125 C 0.703125 -2.84375 1.265625 -2.9375 1.5625 -2.9375 C 1.984375 -2.9375 2.34375 -2.71875 2.40625 -2.234375 L 2.40625 -2.203125 C 2.40625 -2.15625 2.40625 -2.09375 2.515625 -2.09375 C 2.609375 -2.09375 2.640625 -2.15625 2.640625 -2.25 C 2.640625 -2.296875 2.640625 -2.34375 2.640625 -2.375 L 2.640625 -2.953125 C 2.640625 -3.03125 2.625 -3.09375 2.53125 -3.09375 C 2.484375 -3.09375 2.421875 -3.046875 2.375 -3 L 2.328125 -2.96875 C 2.3125 -2.953125 2.28125 -2.921875 2.265625 -2.921875 C 2.21875 -2.921875 2.171875 -2.96875 2.140625 -2.984375 C 1.96875 -3.0625 1.765625 -3.09375 1.578125 -3.09375 C 1.078125 -3.09375 0.3125 -2.96875 0.3125 -2.21875 L 0.3125 -2.15625 C 0.53125 -1 2.328125 -1.671875 2.4375 -0.765625 C 2.4375 -0.28125 1.984375 -0.125 1.59375 -0.125 C 1.015625 -0.125 0.6875 -0.5 0.5625 -1 C 0.546875 -1.078125 0.5625 -1.15625 0.4375 -1.15625 C 0.3125 -1.15625 0.3125 -1.078125 0.3125 -1.015625 L 0.3125 -0.0625 C 0.3125 0 0.328125 0.0625 0.40625 0.0625 C 0.515625 0.0625 0.703125 -0.171875 0.734375 -0.234375 Z M 0.734375 -0.234375 "/>
</g>
<g id="glyph-5-16">
<path d="M 0.40625 -2.984375 L 0.40625 -2.734375 L 0.4375 -2.734375 C 0.6875 -2.734375 0.90625 -2.734375 0.90625 -2.390625 L 0.90625 -0.546875 C 0.90625 -0.265625 0.734375 -0.25 0.375 -0.25 L 0.375 0 L 1.90625 0 L 1.90625 -0.25 L 1.765625 -0.25 C 1.59375 -0.25 1.4375 -0.28125 1.4375 -0.5 L 1.4375 -3.0625 L 1.171875 -3.046875 Z M 1 -4.671875 C 0.796875 -4.65625 0.65625 -4.46875 0.65625 -4.28125 C 0.65625 -4.078125 0.828125 -3.890625 1.0625 -3.890625 C 1.28125 -3.890625 1.453125 -4.078125 1.453125 -4.296875 C 1.453125 -4.5 1.296875 -4.6875 1.0625 -4.6875 C 1.046875 -4.6875 1.015625 -4.6875 1 -4.671875 Z M 1 -4.671875 "/>
</g>
<g id="glyph-5-17">
<path d="M 2.578125 -2.8125 L 2.5625 -2.8125 C 2.375 -3 2.015625 -3.0625 1.765625 -3.0625 C 1.1875 -3.0625 0.53125 -2.703125 0.53125 -2.046875 C 0.53125 -1.796875 0.640625 -1.5 0.859375 -1.34375 C 0.71875 -1.203125 0.640625 -0.96875 0.640625 -0.765625 C 0.640625 -0.5 0.765625 -0.328125 0.9375 -0.140625 C 0.640625 -0.109375 0.265625 0.1875 0.265625 0.53125 C 0.265625 1.1875 1.3125 1.421875 1.953125 1.421875 C 2.546875 1.421875 3.671875 1.234375 3.671875 0.53125 C 3.671875 -0.34375 2.765625 -0.5 2.046875 -0.5 L 1.453125 -0.5 C 1.140625 -0.5 0.90625 -0.65625 0.90625 -0.953125 L 0.90625 -0.984375 C 0.90625 -1.078125 0.953125 -1.15625 1 -1.25 C 1.203125 -1.09375 1.484375 -1.03125 1.75 -1.03125 C 2.390625 -1.03125 3 -1.4375 3 -2.0625 C 3 -2.3125 2.875 -2.53125 2.703125 -2.71875 C 2.953125 -2.84375 3.125 -2.9375 3.40625 -2.9375 C 3.375 -2.90625 3.34375 -2.84375 3.34375 -2.78125 C 3.34375 -2.65625 3.4375 -2.546875 3.5625 -2.546875 C 3.6875 -2.546875 3.796875 -2.65625 3.796875 -2.796875 C 3.796875 -3 3.5625 -3.140625 3.375 -3.140625 C 3.09375 -3.140625 2.71875 -3.015625 2.578125 -2.8125 Z M 0.703125 0.5625 C 0.703125 0.546875 0.703125 0.53125 0.703125 0.5 C 0.703125 0.265625 0.921875 0.0625 1.140625 0.015625 C 1.234375 -0.015625 1.359375 -0.03125 1.46875 -0.03125 C 1.546875 -0.03125 1.640625 -0.015625 1.71875 -0.015625 L 2.03125 -0.015625 C 2.46875 -0.015625 3.25 0 3.25 0.53125 C 3.25 1.15625 2.03125 1.203125 1.9375 1.203125 C 1.5 1.203125 0.765625 1.03125 0.703125 0.5625 Z M 1.078125 -1.9375 C 1.078125 -1.984375 1.078125 -2.015625 1.078125 -2.0625 C 1.078125 -2.46875 1.296875 -2.859375 1.75 -2.859375 C 2.1875 -2.859375 2.4375 -2.53125 2.4375 -2.015625 C 2.4375 -1.578125 2.203125 -1.234375 1.765625 -1.234375 C 1.5625 -1.234375 1.359375 -1.328125 1.234375 -1.484375 C 1.125 -1.609375 1.09375 -1.765625 1.078125 -1.9375 Z M 1.078125 -1.9375 "/>
</g>
<g id="glyph-5-18">
<path d="M 0.375 -2.984375 L 0.375 -2.734375 L 0.46875 -2.734375 C 0.6875 -2.734375 0.890625 -2.71875 0.890625 -2.390625 L 0.890625 -0.546875 C 0.890625 -0.265625 0.71875 -0.25 0.375 -0.25 L 0.375 0 L 1.96875 0 L 1.96875 -0.25 L 1.828125 -0.25 C 1.625 -0.25 1.453125 -0.28125 1.453125 -0.5 L 1.453125 -1.796875 C 1.453125 -2.28125 1.765625 -2.875 2.5 -2.875 C 2.90625 -2.875 3.03125 -2.546875 3.03125 -2.125 L 3.03125 -0.515625 C 3.03125 -0.265625 2.828125 -0.25 2.609375 -0.25 L 2.515625 -0.25 L 2.515625 0 L 4.109375 0 L 4.109375 -0.25 L 3.96875 -0.25 C 3.78125 -0.25 3.59375 -0.28125 3.59375 -0.515625 L 3.59375 -2.03125 C 3.59375 -2.25 3.578125 -2.46875 3.46875 -2.65625 C 3.296875 -2.96875 2.90625 -3.0625 2.5625 -3.0625 C 2.125 -3.0625 1.5625 -2.828125 1.40625 -2.375 L 1.390625 -3.0625 L 1.046875 -3.03125 Z M 0.375 -2.984375 "/>
</g>
<g id="glyph-5-19">
<path d="M 2.46875 -4.75 L 2.46875 -4.5 L 2.609375 -4.5 C 2.828125 -4.5 3 -4.46875 3 -4.09375 L 3 -2.671875 C 2.734375 -2.9375 2.375 -3.0625 2 -3.0625 C 1.109375 -3.0625 0.3125 -2.375 0.3125 -1.5 C 0.3125 -0.640625 1.0625 0.0625 1.9375 0.0625 C 2.34375 0.0625 2.6875 -0.09375 2.96875 -0.359375 L 2.96875 0.0625 L 4.046875 0 L 4.046875 -0.25 L 3.953125 -0.25 C 3.75 -0.25 3.53125 -0.28125 3.53125 -0.609375 L 3.53125 -4.828125 Z M 0.953125 -1.359375 L 0.953125 -1.453125 C 0.953125 -1.953125 1.03125 -2.515625 1.640625 -2.78125 C 1.765625 -2.84375 1.921875 -2.875 2.0625 -2.875 C 2.421875 -2.875 2.96875 -2.625 2.96875 -2.1875 C 2.96875 -2.09375 2.96875 -2.015625 2.96875 -1.921875 L 2.96875 -0.8125 C 2.96875 -0.734375 2.921875 -0.671875 2.890625 -0.609375 C 2.671875 -0.3125 2.328125 -0.125 1.984375 -0.125 C 1.46875 -0.125 1.078125 -0.515625 0.984375 -1.03125 C 0.96875 -1.140625 0.953125 -1.25 0.953125 -1.359375 Z M 0.953125 -1.359375 "/>
</g>
<g id="glyph-5-20">
<path d="M 0.90625 -3 L 0.3125 -3 L 0.3125 -2.75 L 0.90625 -2.75 L 0.90625 -0.515625 C 0.90625 -0.265625 0.703125 -0.25 0.484375 -0.25 L 0.375 -0.25 L 0.375 0 L 2.09375 0 L 2.09375 -0.25 L 1.875 -0.25 C 1.640625 -0.25 1.4375 -0.28125 1.4375 -0.53125 L 1.4375 -2.75 L 2.3125 -2.75 L 2.3125 -3 L 1.40625 -3 L 1.40625 -3.640625 C 1.40625 -3.828125 1.40625 -4.03125 1.46875 -4.21875 C 1.578125 -4.453125 1.765625 -4.6875 2.046875 -4.703125 L 2.078125 -4.703125 C 2.15625 -4.703125 2.21875 -4.6875 2.28125 -4.671875 C 2.203125 -4.609375 2.140625 -4.53125 2.140625 -4.390625 C 2.140625 -4.21875 2.265625 -4.078125 2.46875 -4.078125 C 2.671875 -4.078125 2.78125 -4.25 2.78125 -4.40625 C 2.78125 -4.75 2.390625 -4.90625 2.09375 -4.90625 C 1.59375 -4.90625 1.109375 -4.609375 0.953125 -4.125 C 0.90625 -3.984375 0.90625 -3.859375 0.90625 -3.71875 Z M 0.90625 -3 "/>
</g>
</g>
<clipPath id="clip-0">
<path clip-rule="nonzero" d="M 0.207031 22 L 405 22 L 405 193 L 0.207031 193 Z M 0.207031 22 "/>
</clipPath>
</defs>
<path fill="none" stroke-width="0.3985" stroke-linecap="butt" stroke-linejoin="miter" stroke="rgb(84.999084%, 84.999084%, 84.999084%)" stroke-opacity="1" stroke-miterlimit="10" d="M -25.510831 -102.04917 L 377.580952 -102.04917 M -25.510831 -76.535049 L 377.580952 -76.535049 M -25.510831 -51.024844 L 377.580952 -51.024844 M -25.510831 -25.510723 L 377.580952 -25.510723 M -25.510831 -0.000517985 L 377.580952 -0.000517985 M -25.510831 25.513603 L 377.580952 25.513603 M -25.510831 51.023808 L 377.580952 51.023808 M -25.510831 76.537929 L 377.580952 76.537929 M -25.510831 102.048134 L 377.580952 102.048134 M -25.510831 -102.04917 L -25.510831 102.048134 M -0.000626089 -102.04917 L -0.000626089 102.048134 M 25.513495 -102.04917 L 25.513495 102.048134 M 51.0237 -102.04917 L 51.0237 102.048134 M 76.537821 -102.04917 L 76.537821 102.048134 M 102.048026 -102.04917 L 102.048026 102.048134 M 127.562147 -102.04917 L 127.562147 102.048134 M 153.072351 -102.04917 L 153.072351 102.048134 M 178.586472 -102.04917 L 178.586472 102.048134 M 204.096677 -102.04917 L 204.096677 102.048134 M 229.610798 -102.04917 L 229.610798 102.048134 M 255.121003 -102.04917 L 255.121003 102.048134 M 280.635124 -102.04917 L 280.635124 102.048134 M 306.145329 -102.04917 L 306.145329 102.048134 M 331.65945 -102.04917 L 331.65945 102.048134 M 357.169655 -102.04917 L 357.169655 102.048134 " transform="matrix(0.997456, 0, 0, -0.997456, 31.817031, 107.948702)"/>
<g clip-path="url(#clip-0)">
<path fill="none" stroke-width="0.79701" stroke-linecap="butt" stroke-linejoin="miter" stroke="rgb(29.998779%, 29.998779%, 100%)" stroke-opacity="1" stroke-miterlimit="10" d="M 362.295976 -0.000517985 C 362.295976 40.861238 276.632756 73.984559 170.957692 73.984559 C 65.278711 73.984559 -20.384509 40.861238 -20.384509 -0.000517985 C -20.384509 -40.862274 65.278711 -73.985595 170.957692 -73.985595 C 276.632756 -73.985595 362.295976 -40.862274 362.295976 -0.000517985 Z M 362.295976 -0.000517985 " transform="matrix(0.997456, 0, 0, -0.997456, 31.817031, 107.948702)"/>
</g>
<path fill="none" stroke-width="0.79701" stroke-linecap="butt" stroke-linejoin="miter" stroke="rgb(100%, 59.999084%, 19.999695%)" stroke-opacity="1" stroke-dasharray="2.98883 2.98883" stroke-miterlimit="10" d="M 290.86427 -0.000517985 C 290.86427 25.360871 237.180836 45.920984 170.957692 45.920984 C 104.730631 45.920984 51.047197 25.360871 51.047197 -0.000517985 C 51.047197 -25.361907 104.730631 -45.92202 170.957692 -45.92202 C 237.180836 -45.92202 290.86427 -25.361907 290.86427 -0.000517985 Z M 290.86427 -0.000517985 " transform="matrix(0.997456, 0, 0, -0.997456, 31.817031, 107.948702)"/>
<path fill-rule="nonzero" fill="rgb(0%, 0%, 0%)" fill-opacity="1" d="M 35.394531 107.949219 C 35.394531 105.972656 33.792969 104.371094 31.816406 104.371094 C 29.839844 104.371094 28.238281 105.972656 28.238281 107.949219 C 28.238281 109.925781 29.839844 111.527344 31.816406 111.527344 C 33.792969 111.527344 35.394531 109.925781 35.394531 107.949219 Z M 35.394531 107.949219 "/>
<g fill="rgb(0%, 0%, 0%)" fill-opacity="1">
<use xlink:href="#glyph-0-1" x="9.966755" y="116.211629"/>
<use xlink:href="#glyph-0-2" x="15.942706" y="116.211629"/>
</g>
<g fill="rgb(0%, 0%, 0%)" fill-opacity="1">
<use xlink:href="#glyph-0-3" x="19.659329" y="116.211629"/>
</g>
<g fill="rgb(0%, 0%, 0%)" fill-opacity="1">
<use xlink:href="#glyph-1-1" x="22.66138" y="117.211081"/>
</g>
<path fill-rule="nonzero" fill="rgb(0%, 0%, 0%)" fill-opacity="1" d="M 376.4375 107.949219 C 376.4375 105.972656 374.835938 104.371094 372.859375 104.371094 C 370.882812 104.371094 369.28125 105.972656 369.28125 107.949219 C 369.28125 109.925781 370.882812 111.527344 372.859375 111.527344 C 374.835938 111.527344 376.4375 109.925781 376.4375 107.949219 Z M 376.4375 107.949219 "/>
<g fill="rgb(0%, 0%, 0%)" fill-opacity="1">
<use xlink:href="#glyph-0-4" x="376.364343" y="116.211629"/>
</g>
<g fill="rgb(0%, 0%, 0%)" fill-opacity="1">
<use xlink:href="#glyph-0-2" x="382.709662" y="116.211629"/>
</g>
<g fill="rgb(0%, 0%, 0%)" fill-opacity="1">
<use xlink:href="#glyph-0-3" x="386.426284" y="116.211629"/>
</g>
<g fill="rgb(0%, 0%, 0%)" fill-opacity="1">
<use xlink:href="#glyph-1-2" x="389.426033" y="117.211081"/>
</g>
<path fill="none" stroke-width="0.54794" stroke-linecap="butt" stroke-linejoin="miter" stroke="rgb(0%, 0%, 0%)" stroke-opacity="1" stroke-miterlimit="10" d="M -0.000626089 -0.000517985 L 107.471979 56.177543 " transform="matrix(0.997456, 0, 0, -0.997456, 31.817031, 107.948702)"/>
<path fill-rule="nonzero" fill="rgb(0%, 0%, 0%)" fill-opacity="1" stroke-width="0.54794" stroke-linecap="butt" stroke-linejoin="miter" stroke="rgb(0%, 0%, 0%)" stroke-opacity="1" stroke-miterlimit="10" d="M 4.265113 0.00128282 C 3.743615 0.128039 1.437374 0.856246 -0.000600645 1.647654 L -0.000383113 -1.649187 C 1.439851 -0.855281 3.742515 -0.127701 4.265113 0.00128282 Z M 4.265113 0.00128282 " transform="matrix(0.883926, -0.462032, -0.462032, -0.883926, 139.015706, 51.913158)"/>
<g fill="rgb(0%, 0%, 0%)" fill-opacity="1">
<use xlink:href="#glyph-2-1" x="46.135515" y="73.36091"/>
</g>
<g fill="rgb(0%, 0%, 0%)" fill-opacity="1">
<use xlink:href="#glyph-0-5" x="50.206897" y="73.36091"/>
</g>
<g fill="rgb(0%, 0%, 0%)" fill-opacity="1">
<use xlink:href="#glyph-2-2" x="56.111896" y="73.36091"/>
</g>
<g fill="rgb(0%, 0%, 0%)" fill-opacity="1">
<use xlink:href="#glyph-0-1" x="64.131538" y="73.36091"/>
</g>
<g fill="rgb(0%, 0%, 0%)" fill-opacity="1">
<use xlink:href="#glyph-2-1" x="70.107489" y="73.36091"/>
</g>
<g fill="rgb(0%, 0%, 0%)" fill-opacity="1">
<use xlink:href="#glyph-2-3" x="76.439591" y="73.36091"/>
</g>
<g fill="rgb(0%, 0%, 0%)" fill-opacity="1">
<use xlink:href="#glyph-0-6" x="84.918333" y="73.36091"/>
</g>
<g fill="rgb(0%, 0%, 0%)" fill-opacity="1">
<use xlink:href="#glyph-3-1" x="88.890478" y="74.354377"/>
<use xlink:href="#glyph-3-2" x="94.342058" y="74.354377"/>
<use xlink:href="#glyph-3-3" x="97.723706" y="74.354377"/>
</g>
<g fill="rgb(0%, 0%, 0%)" fill-opacity="1">
<use xlink:href="#glyph-4-1" x="101.77462" y="73.36091"/>
</g>
<g fill="rgb(0%, 0%, 0%)" fill-opacity="1">
<use xlink:href="#glyph-0-3" x="104.879806" y="73.36091"/>
</g>
<g fill="rgb(0%, 0%, 0%)" fill-opacity="1">
<use xlink:href="#glyph-2-2" x="109.690617" y="73.36091"/>
</g>
<g fill="rgb(0%, 0%, 0%)" fill-opacity="1">
<use xlink:href="#glyph-0-3" x="117.710259" y="73.36091"/>
</g>
<g fill="rgb(0%, 0%, 0%)" fill-opacity="1">
<use xlink:href="#glyph-1-1" x="120.714319" y="74.360361"/>
</g>
<g fill="rgb(0%, 0%, 0%)" fill-opacity="1">
<use xlink:href="#glyph-4-2" x="126.358924" y="73.36091"/>
</g>
<path fill="none" stroke-width="0.54794" stroke-linecap="butt" stroke-linejoin="miter" stroke="rgb(0%, 0%, 0%)" stroke-opacity="1" stroke-miterlimit="10" d="M 341.912093 -0.000517985 L 239.444407 56.08747 " transform="matrix(0.997456, 0, 0, -0.997456, 31.817031, 107.948702)"/>
<path fill-rule="nonzero" fill="rgb(0%, 0%, 0%)" fill-opacity="1" stroke-width="0.54794" stroke-linecap="butt" stroke-linejoin="miter" stroke="rgb(0%, 0%, 0%)" stroke-opacity="1" stroke-miterlimit="10" d="M 4.264773 -0.000936458 C 3.742913 0.128645 1.439188 0.854514 0.000546763 1.647591 L 0.000332131 -1.647475 C 1.437922 -0.856159 3.740159 -0.12735 4.264773 -0.000936458 Z M 4.264773 -0.000936458 " transform="matrix(-0.874919, -0.478879, -0.478879, 0.874919, 270.652756, 52.004066)"/>
<g fill="rgb(0%, 0%, 0%)" fill-opacity="1">
<use xlink:href="#glyph-2-1" x="277.425663" y="73.36091"/>
</g>
<g fill="rgb(0%, 0%, 0%)" fill-opacity="1">
<use xlink:href="#glyph-0-5" x="281.497045" y="73.36091"/>
</g>
<g fill="rgb(0%, 0%, 0%)" fill-opacity="1">
<use xlink:href="#glyph-2-2" x="287.402045" y="73.36091"/>
</g>
<g fill="rgb(0%, 0%, 0%)" fill-opacity="1">
<use xlink:href="#glyph-0-4" x="295.421687" y="73.36091"/>
</g>
<g fill="rgb(0%, 0%, 0%)" fill-opacity="1">
<use xlink:href="#glyph-2-1" x="301.767005" y="73.36091"/>
</g>
<g fill="rgb(0%, 0%, 0%)" fill-opacity="1">
<use xlink:href="#glyph-2-3" x="308.099106" y="73.36091"/>
</g>
<g fill="rgb(0%, 0%, 0%)" fill-opacity="1">
<use xlink:href="#glyph-0-6" x="316.570892" y="73.36091"/>
</g>
<g fill="rgb(0%, 0%, 0%)" fill-opacity="1">
<use xlink:href="#glyph-3-1" x="320.547691" y="74.354377"/>
<use xlink:href="#glyph-3-2" x="325.99927" y="74.354377"/>
<use xlink:href="#glyph-3-3" x="329.380919" y="74.354377"/>
</g>
<g fill="rgb(0%, 0%, 0%)" fill-opacity="1">
<use xlink:href="#glyph-4-1" x="333.431833" y="73.36091"/>
</g>
<g fill="rgb(0%, 0%, 0%)" fill-opacity="1">
<use xlink:href="#glyph-0-3" x="336.537018" y="73.36091"/>
</g>
<g fill="rgb(0%, 0%, 0%)" fill-opacity="1">
<use xlink:href="#glyph-1-2" x="339.539257" y="74.360361"/>
</g>
<g fill="rgb(0%, 0%, 0%)" fill-opacity="1">
<use xlink:href="#glyph-2-2" x="347.229645" y="73.36091"/>
</g>
<g fill="rgb(0%, 0%, 0%)" fill-opacity="1">
<use xlink:href="#glyph-0-3" x="355.249286" y="73.36091"/>
</g>
<g fill="rgb(0%, 0%, 0%)" fill-opacity="1">
<use xlink:href="#glyph-4-2" x="358.251522" y="73.36091"/>
</g>
<path fill="none" stroke-width="0.79701" stroke-linecap="butt" stroke-linejoin="miter" stroke="rgb(50%, 50%, 50%)" stroke-opacity="1" stroke-miterlimit="10" d="M -20.408007 -79.088419 L -20.408007 79.087383 L 362.272479 79.087383 L 362.272479 -79.088419 Z M -20.408007 -79.088419 " transform="matrix(0.997456, 0, 0, -0.997456, 31.817031, 107.948702)"/>
<g fill="rgb(64.99939%, 64.99939%, 64.99939%)" fill-opacity="1">
<use xlink:href="#glyph-5-1" x="393.603379" y="26.36975"/>
<use xlink:href="#glyph-5-2" x="400.750731" y="26.36975"/>
<use xlink:href="#glyph-5-3" x="406.849805" y="26.36975"/>
<use xlink:href="#glyph-5-4" x="412.403523" y="26.36975"/>
</g>
<g fill="rgb(29.998779%, 29.998779%, 100%)" fill-opacity="1">
<use xlink:href="#glyph-5-5" x="167.018232" y="199.408455"/>
<use xlink:href="#glyph-5-6" x="170.978317" y="199.408455"/>
<use xlink:href="#glyph-5-7" x="175.3662" y="199.408455"/>
<use xlink:href="#glyph-5-8" x="178.470689" y="199.408455"/>
<use xlink:href="#glyph-5-9" x="182.002977" y="199.408455"/>
</g>
<g fill="rgb(29.998779%, 29.998779%, 100%)" fill-opacity="1">
<use xlink:href="#glyph-5-9" x="187.785549" y="199.408455"/>
<use xlink:href="#glyph-5-8" x="190.890039" y="199.408455"/>
<use xlink:href="#glyph-5-10" x="194.422326" y="199.408455"/>
<use xlink:href="#glyph-5-11" x="198.382412" y="199.408455"/>
</g>
<g fill="rgb(29.998779%, 29.998779%, 100%)" fill-opacity="1">
<use xlink:href="#glyph-5-12" x="201.699061" y="199.408455"/>
<use xlink:href="#glyph-5-10" x="206.086944" y="199.408455"/>
<use xlink:href="#glyph-5-13" x="210.047029" y="199.408455"/>
<use xlink:href="#glyph-5-14" x="214.434912" y="199.408455"/>
<use xlink:href="#glyph-5-8" x="216.683806" y="199.408455"/>
</g>
<g fill="rgb(29.998779%, 29.998779%, 100%)" fill-opacity="1">
<use xlink:href="#glyph-5-15" x="222.894176" y="199.408455"/>
<use xlink:href="#glyph-5-14" x="226.041794" y="199.408455"/>
<use xlink:href="#glyph-5-16" x="228.290688" y="199.408455"/>
<use xlink:href="#glyph-5-11" x="230.539582" y="199.408455"/>
<use xlink:href="#glyph-5-8" x="234.07187" y="199.408455"/>
</g>
<g fill="rgb(100%, 59.999084%, 19.999695%)" fill-opacity="1">
<use xlink:href="#glyph-5-7" x="147.705484" y="20.603456"/>
<use xlink:href="#glyph-5-16" x="150.809974" y="20.603456"/>
<use xlink:href="#glyph-5-17" x="153.058868" y="20.603456"/>
<use xlink:href="#glyph-5-12" x="157.018953" y="20.603456"/>
</g>
<g fill="rgb(100%, 59.999084%, 19.999695%)" fill-opacity="1">
<use xlink:href="#glyph-5-7" x="161.191198" y="20.603456"/>
<use xlink:href="#glyph-5-8" x="164.295688" y="20.603456"/>
<use xlink:href="#glyph-5-18" x="167.827975" y="20.603456"/>
<use xlink:href="#glyph-5-8" x="172.215858" y="20.603456"/>
<use xlink:href="#glyph-5-19" x="175.748145" y="20.603456"/>
</g>
<g fill="rgb(100%, 59.999084%, 19.999695%)" fill-opacity="1">
<use xlink:href="#glyph-5-15" x="182.814111" y="20.603456"/>
<use xlink:href="#glyph-5-14" x="185.961729" y="20.603456"/>
<use xlink:href="#glyph-5-16" x="188.210623" y="20.603456"/>
<use xlink:href="#glyph-5-11" x="190.459517" y="20.603456"/>
<use xlink:href="#glyph-5-8" x="193.991804" y="20.603456"/>
</g>
<g fill="rgb(100%, 59.999084%, 19.999695%)" fill-opacity="1">
<use xlink:href="#glyph-5-10" x="200.202175" y="20.603456"/>
<use xlink:href="#glyph-5-20" x="204.16226" y="20.603456"/>
<use xlink:href="#glyph-5-7" x="206.625401" y="20.603456"/>
<use xlink:href="#glyph-5-8" x="209.729891" y="20.603456"/>
<use xlink:href="#glyph-5-9" x="213.262178" y="20.603456"/>
</g>
<g fill="rgb(100%, 59.999084%, 19.999695%)" fill-opacity="1">
<use xlink:href="#glyph-5-11" x="219.044751" y="20.603456"/>
<use xlink:href="#glyph-5-5" x="222.577038" y="20.603456"/>
<use xlink:href="#glyph-5-18" x="226.537123" y="20.603456"/>
<use xlink:href="#glyph-5-15" x="230.925006" y="20.603456"/>
<use xlink:href="#glyph-5-7" x="234.072623" y="20.603456"/>
<use xlink:href="#glyph-5-9" x="237.177113" y="20.603456"/>
<use xlink:href="#glyph-5-10" x="240.281603" y="20.603456"/>
<use xlink:href="#glyph-5-16" x="244.241688" y="20.603456"/>
<use xlink:href="#glyph-5-18" x="246.490582" y="20.603456"/>
</g>
<g fill="rgb(100%, 59.999084%, 19.999695%)" fill-opacity="1">
<use xlink:href="#glyph-5-7" x="250.662827" y="20.603456"/>
<use xlink:href="#glyph-5-15" x="253.767317" y="20.603456"/>
</g>
</svg>
