<svg viewBox="0 0 1120 510" width="100%" xmlns="http://www.w3.org/2000/svg" role="img" aria-label="DarkVesselNet architecture"><defs>
<marker id="ah" markerWidth="12" markerHeight="12" refX="9" refY="5" orient="auto"><path d="M0,0 L11,5 L0,10 z" fill="#202733"/></marker>
</defs>
<style>
svg text{font-family:'Noto Sans',system-ui,-apple-system,sans-serif;}
.box{fill:#fff;stroke:#aebbd0;stroke-width:1.5;}
.acc{fill:#eaf3fd;stroke:#1772d0;stroke-width:1.5;}
.grn{fill:#e6f7ed;stroke:#0f766e;stroke-width:1.5;}
.amb{fill:#fff6e6;stroke:#e7b66a;stroke-width:1.5;stroke-dasharray:6 4;}
.lane{fill:#f3f6fc;stroke:#aebbd0;stroke-width:1.5;}
.ttl{font-size:16px;font-weight:700;fill:#0e1117;font-family:'Montserrat','Noto Sans',sans-serif;}
.sub{font-size:12.5px;font-weight:500;fill:#1b2230;}
.ar{stroke:#202733;stroke-width:2.2;fill:none;marker-end:url(#ah);}
.lg{font-size:12px;}
</style><rect class="grn" x="28" y="48" width="334.6666666666667" height="80" rx="11"/><text class="ttl" x="195" y="84" text-anchor="middle">Sentinel-1 SAR</text><text class="sub" x="195" y="102" text-anchor="middle">Lee speckle filter, ~96% var cut</text><rect class="box" x="392.6666666666667" y="48" width="334.6666666666667" height="80" rx="11"/><text class="ttl" x="560" y="84" text-anchor="middle">Sentinel-2 optical</text><text class="sub" x="560" y="102" text-anchor="middle">cloud mask</text><rect class="box" x="757.3333333333334" y="48" width="334.6666666666667" height="80" rx="11"/><text class="ttl" x="925" y="84" text-anchor="middle">AIS tracks</text><text class="sub" x="925" y="102" text-anchor="middle">vessel reports</text><line x1="195.33333333333334" y1="128" x2="195.33333333333334" y2="168" stroke="#202733" stroke-width="2.2"/><line x1="924.6666666666667" y1="128" x2="924.6666666666667" y2="168" stroke="#202733" stroke-width="2.2"/><line x1="195.33333333333334" y1="168" x2="924.6666666666667" y2="168" stroke="#202733" stroke-width="2.2"/><rect class="amb" x="360.0" y="188" width="400" height="56" rx="11"/><text class="ttl" x="560" y="212" text-anchor="middle">Geo foundation backbone</text><text class="sub" x="560" y="230" text-anchor="middle">Prithvi-2 / Clay / SatMAE++ (swappable)</text><line class="ar" x1="560.0" y1="168" x2="560.0" y2="188"/><rect class="box" x="28" y="276" width="233.0" height="84" rx="11"/><text class="ttl" x="144" y="314" text-anchor="middle">DETR detection</text><text class="sub" x="144" y="332" text-anchor="middle">bounding boxes</text><rect class="box" x="305.0" y="276" width="233.0" height="84" rx="11"/><text class="ttl" x="422" y="314" text-anchor="middle">SAM 2 segmentation</text><text class="sub" x="422" y="332" text-anchor="middle">instance masks</text><rect class="grn" x="582.0" y="276" width="233.0" height="84" rx="11"/><text class="ttl" x="698" y="314" text-anchor="middle">TGARD + Pi-DPM anomaly</text><text class="sub" x="698" y="332" text-anchor="middle">rendezvous + spoof reasoning</text><rect class="box" x="859.0" y="276" width="233.0" height="84" rx="11"/><text class="ttl" x="976" y="314" text-anchor="middle">Dark-vessel detections</text><text class="sub" x="976" y="332" text-anchor="middle">ranked alerts</text><line class="ar" x1="261.0" y1="318.0" x2="305.0" y2="318.0"/><line class="ar" x1="538.0" y1="318.0" x2="582.0" y2="318.0"/><line class="ar" x1="815.0" y1="318.0" x2="859.0" y2="318.0"/><line class="ar" x1="560.0" y1="244" x2="560.0" y2="276"/><rect x="28" y="384" width="1064" height="84" rx="12" fill="#fff6e6" stroke="#e7b66a" stroke-width="1.5"/><text x="48" y="412" style="font-size:15px;font-weight:700;fill:#0e1117;font-family:Montserrat,sans-serif">Honest scope</text><text x="48" y="434" class="sub">Lee speckle filter (~96% variance reduction), TGARD rendezvous, and the foundation-model adapter are verified (53 tests).</text><text x="48" y="454" class="sub">Backbones are swappable off-the-shelf geospatial FMs; the xView3-SAR detection-AP benchmark is the next step (target).</text><text class="lg" x="28" y="492" fill="#0f766e">green = real and tested</text><text class="lg" x="228" y="492" fill="#b45309">dashed amber = off-the-shelf / target</text><text class="lg" x="498" y="492" fill="#1772d0">blue = learned / core method</text></svg>
