<svg viewBox="0 0 1120 510" width="100%" xmlns="http://www.w3.org/2000/svg" role="img" aria-label="Pi-GRPO architecture"><defs>
<marker id="ah" markerWidth="12" markerHeight="12" refX="9" refY="5" orient="auto"><path d="M0,0 L11,5 L0,10 z" fill="#202733"/></marker>
</defs>
<style>
svg text{font-family:'Noto Sans',system-ui,-apple-system,sans-serif;}
.box{fill:#fff;stroke:#aebbd0;stroke-width:1.5;}
.acc{fill:#eaf3fd;stroke:#1772d0;stroke-width:1.5;}
.grn{fill:#e6f7ed;stroke:#0f766e;stroke-width:1.5;}
.amb{fill:#fff6e6;stroke:#e7b66a;stroke-width:1.5;stroke-dasharray:6 4;}
.lane{fill:#f3f6fc;stroke:#aebbd0;stroke-width:1.5;}
.ttl{font-size:16px;font-weight:700;fill:#0e1117;font-family:'Montserrat','Noto Sans',sans-serif;}
.sub{font-size:12.5px;font-weight:500;fill:#1b2230;}
.ar{stroke:#202733;stroke-width:2.2;fill:none;marker-end:url(#ah);}
.lg{font-size:12px;}
</style><rect class="grn" x="28" y="48" width="243.5" height="80" rx="11"/><text class="ttl" x="150" y="75" text-anchor="middle">Hard S-KBM penalty</text><text class="sub" x="150" y="93" text-anchor="middle">unbounded violation</text><text class="sub" x="150" y="111" text-anchor="middle">(physics floor)</text><rect class="box" x="301.5" y="48" width="243.5" height="80" rx="11"/><text class="ttl" x="423" y="84" text-anchor="middle">Soft envelope</text><text class="sub" x="423" y="102" text-anchor="middle">95th-pct jerk / curvature</text><rect class="box" x="575.0" y="48" width="243.5" height="80" rx="11"/><text class="ttl" x="697" y="84" text-anchor="middle">Pi-DPM term</text><text class="sub" x="697" y="102" text-anchor="middle">reconstruction likelihood</text><rect class="amb" x="848.5" y="48" width="243.5" height="80" rx="11"/><text class="ttl" x="970" y="84" text-anchor="middle">Preference model</text><text class="sub" x="970" y="102" text-anchor="middle">cross-encoder (optional)</text><line x1="149.75" y1="128" x2="149.75" y2="168" stroke="#202733" stroke-width="2.2"/><line x1="970.25" y1="128" x2="970.25" y2="168" stroke="#202733" stroke-width="2.2"/><line x1="149.75" y1="168" x2="970.25" y2="168" stroke="#202733" stroke-width="2.2"/><rect class="acc" x="410.0" y="188" width="300" height="56" rx="11"/><text class="ttl" x="560" y="221" text-anchor="middle">Hybrid reward</text><line class="ar" x1="560.0" y1="168" x2="560.0" y2="188"/><rect class="box" x="28" y="276" width="233.0" height="84" rx="11"/><text class="ttl" x="144" y="314" text-anchor="middle">Preference triples</text><text class="sub" x="144" y="332" text-anchor="middle">~11K from GeoTrace HITL</text><rect class="acc" x="305.0" y="276" width="233.0" height="84" rx="11"/><text class="ttl" x="422" y="314" text-anchor="middle">PPO / DPO / GRPO</text><text class="sub" x="422" y="332" text-anchor="middle">post-training</text><rect class="box" x="582.0" y="276" width="233.0" height="84" rx="11"/><text class="ttl" x="698" y="314" text-anchor="middle">vLLM rollouts</text><text class="sub" x="698" y="332" text-anchor="middle">content-addressed ckpts</text><rect class="grn" x="859.0" y="276" width="233.0" height="84" rx="11"/><text class="ttl" x="976" y="314" text-anchor="middle">Physics-feasible policy</text><text class="sub" x="976" y="332" text-anchor="middle">trajectory generation</text><line class="ar" x1="261.0" y1="318.0" x2="305.0" y2="318.0"/><line class="ar" x1="538.0" y1="318.0" x2="582.0" y2="318.0"/><line class="ar" x1="815.0" y1="318.0" x2="859.0" y2="318.0"/><rect x="28" y="384" width="1064" height="84" rx="12" fill="#fff6e6" stroke="#e7b66a" stroke-width="1.5"/><text x="48" y="412" style="font-size:15px;font-weight:700;fill:#0e1117;font-family:Montserrat,sans-serif">Reproduced result</text><text x="48" y="434" class="sub">Hard physical-constraint violations cut from 18% (preference-only reward) to 0% under the physics-augmented reward,</text><text x="48" y="454" class="sub">while KL divergence stays bounded over 3,000 PPO steps.</text><text class="lg" x="28" y="492" fill="#0f766e">green = real and tested</text><text class="lg" x="228" y="492" fill="#b45309">dashed amber = off-the-shelf / target</text><text class="lg" x="498" y="492" fill="#1772d0">blue = learned / core method</text></svg>
