<?xml version="1.0" encoding="UTF-8"?>
<svg xmlns="http://www.w3.org/2000/svg" xmlns:xlink="http://www.w3.org/1999/xlink" width="190.599" height="65.938" viewBox="0 0 190.599 65.938">
<defs>
<g>
<g id="glyph-0-0">
</g>
<g id="glyph-0-1">
<path d="M 2.46875 -4.75 L 2.46875 -4.5 L 2.609375 -4.5 C 2.828125 -4.5 3 -4.46875 3 -4.09375 L 3 -2.671875 C 2.734375 -2.9375 2.375 -3.0625 2 -3.0625 C 1.109375 -3.0625 0.3125 -2.375 0.3125 -1.5 C 0.3125 -0.640625 1.0625 0.0625 1.9375 0.0625 C 2.34375 0.0625 2.6875 -0.09375 2.96875 -0.359375 L 2.96875 0.0625 L 4.046875 0 L 4.046875 -0.25 L 3.953125 -0.25 C 3.75 -0.25 3.53125 -0.28125 3.53125 -0.609375 L 3.53125 -4.828125 Z M 0.953125 -1.359375 L 0.953125 -1.453125 C 0.953125 -1.953125 1.03125 -2.515625 1.640625 -2.78125 C 1.765625 -2.84375 1.921875 -2.875 2.0625 -2.875 C 2.421875 -2.875 2.96875 -2.625 2.96875 -2.1875 C 2.96875 -2.09375 2.96875 -2.015625 2.96875 -1.921875 L 2.96875 -0.8125 C 2.96875 -0.734375 2.921875 -0.671875 2.890625 -0.609375 C 2.671875 -0.3125 2.328125 -0.125 1.984375 -0.125 C 1.46875 -0.125 1.078125 -0.515625 0.984375 -1.03125 C 0.96875 -1.140625 0.953125 -1.25 0.953125 -1.359375 Z M 0.953125 -1.359375 "/>
</g>
<g id="glyph-0-2">
<path d="M 1.046875 -2.734375 C 1.234375 -2.859375 1.484375 -2.90625 1.703125 -2.90625 C 2.03125 -2.90625 2.3125 -2.765625 2.46875 -2.484375 C 2.546875 -2.328125 2.546875 -2.15625 2.546875 -2 L 2.546875 -1.859375 C 1.703125 -1.859375 0.375 -1.625 0.375 -0.703125 C 0.375 -0.25 0.890625 0.0625 1.578125 0.0625 C 1.96875 0.0625 2.46875 -0.125 2.625 -0.515625 C 2.671875 -0.21875 2.84375 0.03125 3.1875 0.03125 C 3.5625 0.03125 3.859375 -0.234375 3.859375 -0.609375 L 3.859375 -1.015625 L 3.609375 -1.015625 L 3.609375 -0.671875 C 3.609375 -0.484375 3.578125 -0.25 3.359375 -0.25 C 3.140625 -0.25 3.109375 -0.5 3.109375 -0.65625 L 3.109375 -1.78125 C 3.109375 -1.875 3.109375 -1.953125 3.109375 -2.046875 C 3.109375 -2.78125 2.359375 -3.09375 1.734375 -3.09375 C 1.3125 -3.09375 0.625 -2.96875 0.625 -2.4375 C 0.625 -2.25 0.734375 -2.09375 0.953125 -2.09375 C 1.140625 -2.09375 1.28125 -2.234375 1.28125 -2.421875 C 1.28125 -2.578125 1.203125 -2.6875 1.046875 -2.734375 Z M 2.546875 -1.671875 L 2.546875 -1 C 2.546875 -0.484375 2.15625 -0.125 1.671875 -0.125 C 1.359375 -0.125 0.96875 -0.34375 0.96875 -0.703125 C 0.96875 -1.453125 1.96875 -1.671875 2.546875 -1.671875 Z M 2.546875 -1.671875 "/>
</g>
<g id="glyph-0-3">
<path d="M 1.15625 -4.28125 C 1.15625 -3.734375 0.890625 -2.9375 0.1875 -2.9375 L 0.1875 -2.75 L 0.84375 -2.75 L 0.84375 -0.96875 C 0.84375 -0.75 0.859375 -0.515625 0.96875 -0.328125 C 1.15625 -0.046875 1.5 0.0625 1.828125 0.0625 C 2.078125 0.0625 2.296875 -0.046875 2.4375 -0.25 C 2.59375 -0.484375 2.609375 -0.734375 2.609375 -1 L 2.609375 -1.265625 L 2.375 -1.265625 C 2.375 -1.171875 2.390625 -1.078125 2.390625 -0.96875 C 2.390625 -0.6875 2.3125 -0.15625 1.890625 -0.15625 C 1.5 -0.15625 1.390625 -0.5625 1.390625 -0.921875 L 1.390625 -2.75 L 2.484375 -2.75 L 2.484375 -3 L 1.390625 -3 L 1.390625 -4.28125 Z M 1.15625 -4.28125 "/>
</g>
<g id="glyph-0-4">
<path d="M 0.734375 -0.234375 C 0.984375 -0.03125 1.265625 0.0625 1.578125 0.0625 C 2.109375 0.0625 2.828125 -0.125 2.828125 -0.90625 L 2.828125 -0.984375 C 2.71875 -2.25 0.703125 -1.65625 0.703125 -2.453125 C 0.703125 -2.84375 1.265625 -2.9375 1.5625 -2.9375 C 1.984375 -2.9375 2.34375 -2.71875 2.40625 -2.234375 L 2.40625 -2.203125 C 2.40625 -2.15625 2.40625 -2.09375 2.515625 -2.09375 C 2.609375 -2.09375 2.640625 -2.15625 2.640625 -2.25 C 2.640625 -2.296875 2.640625 -2.34375 2.640625 -2.375 L 2.640625 -2.953125 C 2.640625 -3.03125 2.625 -3.09375 2.53125 -3.09375 C 2.484375 -3.09375 2.421875 -3.046875 2.375 -3 L 2.328125 -2.96875 C 2.3125 -2.953125 2.28125 -2.921875 2.265625 -2.921875 C 2.21875 -2.921875 2.171875 -2.96875 2.140625 -2.984375 C 1.96875 -3.0625 1.765625 -3.09375 1.578125 -3.09375 C 1.078125 -3.09375 0.3125 -2.96875 0.3125 -2.21875 L 0.3125 -2.15625 C 0.53125 -1 2.328125 -1.671875 2.4375 -0.765625 C 2.4375 -0.28125 1.984375 -0.125 1.59375 -0.125 C 1.015625 -0.125 0.6875 -0.5 0.5625 -1 C 0.546875 -1.078125 0.5625 -1.15625 0.4375 -1.15625 C 0.3125 -1.15625 0.3125 -1.078125 0.3125 -1.015625 L 0.3125 -0.0625 C 0.3125 0 0.328125 0.0625 0.40625 0.0625 C 0.515625 0.0625 0.703125 -0.171875 0.734375 -0.234375 Z M 0.734375 -0.234375 "/>
</g>
<g id="glyph-0-5">
<path d="M 0.90625 -1.59375 L 3.09375 -1.59375 C 3.21875 -1.59375 3.25 -1.640625 3.25 -1.734375 C 3.25 -2.484375 2.78125 -3.09375 1.890625 -3.09375 C 1.0625 -3.09375 0.265625 -2.46875 0.265625 -1.515625 C 0.265625 -0.578125 1.109375 0.0625 1.96875 0.0625 C 2.46875 0.0625 3.09375 -0.21875 3.234375 -0.765625 C 3.234375 -0.78125 3.25 -0.8125 3.25 -0.828125 L 3.25 -0.859375 C 3.234375 -0.90625 3.1875 -0.9375 3.140625 -0.9375 C 3 -0.9375 2.96875 -0.703125 2.875 -0.578125 C 2.671875 -0.3125 2.34375 -0.15625 2 -0.15625 L 1.984375 -0.15625 C 1.703125 -0.15625 1.390625 -0.3125 1.234375 -0.5 C 0.953125 -0.796875 0.90625 -1.203125 0.90625 -1.59375 Z M 0.90625 -1.765625 C 0.984375 -2.296875 1.21875 -2.90625 1.890625 -2.90625 C 2.140625 -2.90625 2.34375 -2.8125 2.53125 -2.59375 C 2.703125 -2.359375 2.765625 -2.046875 2.765625 -1.765625 Z M 0.90625 -1.765625 "/>
</g>
<g id="glyph-0-6">
<path d="M 0.390625 -4.734375 L 0.390625 -4.484375 C 0.46875 -4.484375 0.5625 -4.484375 0.65625 -4.484375 C 0.890625 -4.484375 1.109375 -4.453125 1.109375 -4.203125 C 1.109375 -4.15625 1.109375 -4.109375 1.109375 -4.078125 L 1.109375 -0.546875 C 1.109375 -0.28125 0.875 -0.25 0.640625 -0.25 C 0.5625 -0.25 0.46875 -0.25 0.390625 -0.25 L 0.390625 0 L 4.75 0 L 5.0625 -1.828125 L 4.828125 -1.828125 C 4.71875 -1.234375 4.640625 -0.515625 3.84375 -0.3125 C 3.609375 -0.265625 3.359375 -0.25 3.109375 -0.25 L 2.03125 -0.25 C 1.859375 -0.25 1.765625 -0.296875 1.765625 -0.5 L 1.765625 -2.34375 L 2.484375 -2.34375 C 2.75 -2.34375 3.03125 -2.3125 3.171875 -2.109375 C 3.28125 -1.953125 3.28125 -1.765625 3.28125 -1.578125 L 3.28125 -1.515625 L 3.515625 -1.515625 L 3.515625 -3.40625 L 3.28125 -3.40625 L 3.28125 -3.34375 C 3.28125 -3.15625 3.28125 -2.96875 3.171875 -2.8125 C 3.03125 -2.609375 2.75 -2.59375 2.484375 -2.59375 L 1.765625 -2.59375 L 1.765625 -4.25 C 1.765625 -4.4375 1.875 -4.484375 2.03125 -4.484375 L 3.09375 -4.484375 C 3.625 -4.484375 4.1875 -4.453125 4.453125 -3.859375 C 4.546875 -3.640625 4.578125 -3.375 4.609375 -3.125 L 4.859375 -3.125 L 4.640625 -4.734375 Z M 0.390625 -4.734375 "/>
</g>
<g id="glyph-0-7">
<path d="M 2.90625 -4.890625 C 1.828125 -4.75 0.796875 -4.171875 0.53125 -2.890625 C 0.5 -2.71875 0.484375 -2.53125 0.484375 -2.359375 C 0.484375 -0.96875 1.671875 0.140625 3.046875 0.140625 C 4.375 0.140625 5.609375 -0.921875 5.609375 -2.359375 C 5.609375 -3.6875 4.53125 -4.890625 3 -4.890625 Z M 1.21875 -2.3125 L 1.21875 -2.40625 C 1.21875 -3.203125 1.453125 -4.09375 2.296875 -4.5 C 2.53125 -4.609375 2.78125 -4.671875 3.03125 -4.671875 C 4.09375 -4.671875 4.875 -3.78125 4.875 -2.46875 C 4.875 -1.546875 4.53125 -0.390625 3.375 -0.125 C 3.265625 -0.109375 3.15625 -0.09375 3.046875 -0.09375 C 2.40625 -0.09375 1.828125 -0.5 1.53125 -1.0625 C 1.328125 -1.453125 1.265625 -1.875 1.21875 -2.3125 Z M 1.21875 -2.3125 "/>
</g>
<g id="glyph-0-8">
<path d="M 3.34375 -5.21875 C 3.265625 -5.1875 3.203125 -4.984375 3.15625 -4.875 C 2.453125 -3.171875 1.765625 -1.46875 1.046875 0.21875 C 0.875 0.65625 0.703125 1.09375 0.515625 1.515625 C 0.5 1.5625 0.484375 1.59375 0.484375 1.625 C 0.484375 1.6875 0.515625 1.71875 0.5625 1.71875 L 0.59375 1.71875 C 0.6875 1.703125 0.75 1.484375 0.796875 1.359375 C 1.671875 -0.734375 2.53125 -2.828125 3.390625 -4.921875 C 3.421875 -4.984375 3.46875 -5.0625 3.46875 -5.125 C 3.46875 -5.1875 3.421875 -5.21875 3.375 -5.21875 C 3.359375 -5.21875 3.34375 -5.21875 3.34375 -5.21875 Z M 3.34375 -5.21875 "/>
</g>
<g id="glyph-0-9">
<path d="M 2.703125 -2.78125 C 2.59375 -2.71875 2.515625 -2.625 2.515625 -2.484375 C 2.515625 -2.3125 2.625 -2.15625 2.8125 -2.15625 C 3.0625 -2.15625 3.171875 -2.296875 3.171875 -2.484375 C 3.171875 -3.09375 2.265625 -3.09375 1.984375 -3.09375 C 1.09375 -3.09375 0.3125 -2.40625 0.3125 -1.515625 L 0.3125 -1.421875 C 0.359375 -0.578125 1.109375 0.0625 1.984375 0.0625 C 2.5 0.0625 3 -0.1875 3.203125 -0.671875 C 3.21875 -0.71875 3.25 -0.78125 3.25 -0.828125 C 3.25 -0.890625 3.203125 -0.921875 3.140625 -0.921875 C 3 -0.921875 2.984375 -0.765625 2.921875 -0.640625 C 2.75 -0.328125 2.40625 -0.15625 2.046875 -0.15625 C 1.328125 -0.15625 0.953125 -0.8125 0.953125 -1.53125 C 0.953125 -2.109375 1.203125 -2.828125 1.921875 -2.875 L 2 -2.875 C 2.234375 -2.875 2.484375 -2.859375 2.703125 -2.78125 Z M 2.703125 -2.78125 "/>
</g>
<g id="glyph-0-10">
<path d="M 0.375 -4.75 L 0.375 -4.5 L 0.5 -4.5 C 0.71875 -4.5 0.90625 -4.484375 0.90625 -4.15625 L 0.90625 -0.703125 C 0.90625 -0.640625 0.90625 -0.59375 0.90625 -0.546875 C 0.90625 -0.265625 0.703125 -0.25 0.421875 -0.25 L 0.375 -0.25 L 0.375 0 L 1.953125 0 L 1.953125 -0.25 L 1.78125 -0.25 C 1.59375 -0.25 1.4375 -0.28125 1.4375 -0.515625 L 1.4375 -4.828125 Z M 0.375 -4.75 "/>
</g>
<g id="glyph-0-11">
<path d="M 0.40625 -2.984375 L 0.40625 -2.734375 L 0.4375 -2.734375 C 0.6875 -2.734375 0.90625 -2.734375 0.90625 -2.390625 L 0.90625 -0.546875 C 0.90625 -0.265625 0.734375 -0.25 0.375 -0.25 L 0.375 0 L 1.90625 0 L 1.90625 -0.25 L 1.765625 -0.25 C 1.59375 -0.25 1.4375 -0.28125 1.4375 -0.5 L 1.4375 -3.0625 L 1.171875 -3.046875 Z M 1 -4.671875 C 0.796875 -4.65625 0.65625 -4.46875 0.65625 -4.28125 C 0.65625 -4.078125 0.828125 -3.890625 1.0625 -3.890625 C 1.28125 -3.890625 1.453125 -4.078125 1.453125 -4.296875 C 1.453125 -4.5 1.296875 -4.6875 1.0625 -4.6875 C 1.046875 -4.6875 1.015625 -4.6875 1 -4.671875 Z M 1 -4.671875 "/>
</g>
<g id="glyph-0-12">
<path d="M 0.375 -2.984375 L 0.375 -2.734375 L 0.46875 -2.734375 C 0.6875 -2.734375 0.890625 -2.71875 0.890625 -2.390625 L 0.890625 -0.546875 C 0.890625 -0.265625 0.71875 -0.25 0.375 -0.25 L 0.375 0 L 1.96875 0 L 1.96875 -0.25 L 1.828125 -0.25 C 1.625 -0.25 1.453125 -0.28125 1.453125 -0.5 L 1.453125 -1.796875 C 1.453125 -2.28125 1.765625 -2.875 2.5 -2.875 C 2.90625 -2.875 3.03125 -2.546875 3.03125 -2.125 L 3.03125 -0.515625 C 3.03125 -0.265625 2.828125 -0.25 2.609375 -0.25 L 2.515625 -0.25 L 2.515625 0 L 4.109375 0 L 4.109375 -0.25 L 3.96875 -0.25 C 3.765625 -0.25 3.59375 -0.28125 3.59375 -0.5 L 3.59375 -1.796875 C 3.59375 -2.28125 3.90625 -2.875 4.640625 -2.875 C 5.046875 -2.875 5.171875 -2.546875 5.171875 -2.125 L 5.171875 -0.515625 C 5.171875 -0.265625 4.96875 -0.25 4.75 -0.25 L 4.65625 -0.25 L 4.65625 0 L 6.25 0 L 6.25 -0.25 L 6.09375 -0.25 C 5.90625 -0.25 5.734375 -0.28125 5.734375 -0.515625 L 5.734375 -1.984375 C 5.734375 -2.453125 5.6875 -3.0625 4.671875 -3.0625 C 4.296875 -3.0625 3.953125 -2.90625 3.703125 -2.625 C 3.640625 -2.5625 3.609375 -2.484375 3.546875 -2.421875 C 3.484375 -2.90625 2.96875 -3.0625 2.578125 -3.0625 C 2.125 -3.0625 1.5625 -2.84375 1.40625 -2.375 L 1.390625 -3.0625 L 1.046875 -3.03125 Z M 0.375 -2.984375 "/>
</g>
<g id="glyph-0-13">
<path d="M 0.328125 -4.75 L 0.328125 -4.5 L 0.4375 -4.5 C 0.65625 -4.5 0.859375 -4.484375 0.859375 -4.125 L 0.859375 0 L 1.078125 -0.015625 L 1.328125 -0.421875 C 1.609375 -0.125 1.953125 0.0625 2.375 0.0625 C 3.234375 0.0625 4.0625 -0.59375 4.0625 -1.515625 C 4.0625 -2.34375 3.34375 -3.0625 2.4375 -3.0625 C 2.046875 -3.0625 1.671875 -2.921875 1.390625 -2.65625 L 1.390625 -4.828125 Z M 3.421875 -1.359375 C 3.40625 -1.0625 3.359375 -0.765625 3.15625 -0.53125 C 2.953125 -0.28125 2.640625 -0.140625 2.328125 -0.140625 C 2.03125 -0.140625 1.703125 -0.28125 1.515625 -0.546875 C 1.453125 -0.625 1.40625 -0.703125 1.40625 -0.796875 L 1.40625 -2.296875 C 1.46875 -2.609375 2.015625 -2.875 2.390625 -2.875 C 3.21875 -2.875 3.4375 -2.078125 3.4375 -1.5 C 3.4375 -1.453125 3.4375 -1.40625 3.421875 -1.359375 Z M 3.421875 -1.359375 "/>
</g>
<g id="glyph-0-14">
<path d="M 0.375 -2.984375 L 0.375 -2.734375 L 0.46875 -2.734375 C 0.6875 -2.734375 0.890625 -2.71875 0.890625 -2.390625 L 0.890625 -0.546875 C 0.890625 -0.265625 0.71875 -0.25 0.375 -0.25 L 0.375 0 L 1.96875 0 L 1.96875 -0.25 L 1.828125 -0.25 C 1.625 -0.25 1.453125 -0.28125 1.453125 -0.5 L 1.453125 -1.796875 C 1.453125 -2.28125 1.765625 -2.875 2.5 -2.875 C 2.90625 -2.875 3.03125 -2.546875 3.03125 -2.125 L 3.03125 -0.515625 C 3.03125 -0.265625 2.828125 -0.25 2.609375 -0.25 L 2.515625 -0.25 L 2.515625 0 L 4.109375 0 L 4.109375 -0.25 L 3.96875 -0.25 C 3.78125 -0.25 3.59375 -0.28125 3.59375 -0.515625 L 3.59375 -2.03125 C 3.59375 -2.25 3.578125 -2.46875 3.46875 -2.65625 C 3.296875 -2.96875 2.90625 -3.0625 2.5625 -3.0625 C 2.125 -3.0625 1.5625 -2.828125 1.40625 -2.375 L 1.390625 -3.0625 L 1.046875 -3.03125 Z M 0.375 -2.984375 "/>
</g>
<g id="glyph-0-15">
<path d="M 0.375 -2.984375 L 0.375 -2.734375 L 0.4375 -2.734375 C 0.609375 -2.734375 0.875 -2.71875 0.875 -2.53125 C 0.890625 -2.4375 0.890625 -2.359375 0.890625 -2.28125 L 0.890625 -0.96875 C 0.890625 -0.171875 1.375 0.0625 2.015625 0.0625 C 2.40625 0.0625 2.859375 -0.109375 3.046875 -0.53125 L 3.0625 0.0625 L 4.109375 0 L 4.109375 -0.25 L 4.015625 -0.25 C 3.796875 -0.25 3.59375 -0.28125 3.59375 -0.59375 L 3.59375 -3.0625 L 2.515625 -2.984375 L 2.515625 -2.734375 C 2.796875 -2.734375 3.03125 -2.734375 3.03125 -2.390625 L 3.03125 -1.234375 C 3.03125 -0.671875 2.71875 -0.125 2.09375 -0.125 C 1.84375 -0.125 1.515625 -0.1875 1.453125 -0.546875 C 1.453125 -0.65625 1.453125 -0.78125 1.453125 -0.90625 L 1.453125 -3.0625 Z M 0.375 -2.984375 "/>
</g>
<g id="glyph-0-16">
<path d="M 0.40625 -4.75 L 0.40625 -4.5 C 0.5 -4.5 0.578125 -4.515625 0.671875 -4.515625 C 0.90625 -4.515625 1.125 -4.484375 1.125 -4.21875 L 1.125 -0.65625 C 1.125 -0.625 1.125 -0.578125 1.125 -0.53125 C 1.125 -0.28125 0.890625 -0.25 0.640625 -0.25 C 0.5625 -0.25 0.46875 -0.25 0.40625 -0.25 L 0.40625 0 L 1.234375 0 L 1.390625 -0.03125 L 2.171875 -0.03125 L 2.46875 0 L 2.46875 -0.25 C 2.375 -0.25 2.28125 -0.25 2.171875 -0.25 C 1.953125 -0.25 1.75 -0.296875 1.75 -0.5625 L 1.75 -2.28125 L 2.59375 -2.28125 C 2.96875 -2.28125 3.359375 -2.203125 3.578125 -1.875 C 3.703125 -1.703125 3.71875 -1.515625 3.71875 -1.328125 L 3.71875 -1.21875 C 3.71875 -1.125 3.703125 -1.015625 3.703125 -0.921875 C 3.703125 -0.421875 3.984375 0.09375 4.875 0.125 L 4.9375 0.125 C 5.375 0.125 5.6875 -0.21875 5.6875 -0.625 C 5.6875 -0.703125 5.671875 -0.765625 5.5625 -0.765625 C 5.4375 -0.765625 5.4375 -0.640625 5.4375 -0.546875 C 5.40625 -0.3125 5.203125 -0.0625 4.953125 -0.0625 C 4.546875 -0.0625 4.484375 -0.609375 4.453125 -0.9375 C 4.375 -1.421875 4.40625 -1.90625 3.84375 -2.21875 C 3.734375 -2.28125 3.609375 -2.359375 3.484375 -2.375 C 3.96875 -2.53125 4.609375 -2.71875 4.734375 -3.390625 C 4.734375 -3.421875 4.734375 -3.453125 4.734375 -3.484375 C 4.734375 -4.03125 4.25 -4.390625 3.796875 -4.5625 C 3.5 -4.6875 3.171875 -4.734375 2.84375 -4.75 Z M 1.75 -2.484375 L 1.75 -4.265625 C 1.75 -4.46875 1.859375 -4.5 2.015625 -4.5 L 2.546875 -4.5 C 3.15625 -4.5 4 -4.421875 4 -3.484375 C 4 -2.515625 3.046875 -2.484375 2.421875 -2.484375 Z M 1.75 -2.484375 "/>
</g>
<g id="glyph-0-17">
<path d="M 0.390625 -4.734375 L 0.390625 -4.484375 C 0.46875 -4.484375 0.5625 -4.484375 0.65625 -4.484375 C 0.890625 -4.484375 1.109375 -4.453125 1.109375 -4.203125 C 1.109375 -4.15625 1.109375 -4.109375 1.109375 -4.078125 L 1.109375 -0.546875 C 1.109375 -0.28125 0.875 -0.25 0.640625 -0.25 C 0.5625 -0.25 0.46875 -0.25 0.390625 -0.25 L 0.390625 0 L 2.65625 0 L 2.65625 -0.25 C 2.5625 -0.25 2.4375 -0.25 2.328125 -0.25 C 1.953125 -0.25 1.765625 -0.28125 1.765625 -0.578125 L 1.765625 -2.25 L 2.453125 -2.25 C 2.703125 -2.25 3 -2.21875 3.140625 -2.015625 C 3.21875 -1.859375 3.234375 -1.671875 3.234375 -1.5 L 3.234375 -1.4375 L 3.46875 -1.4375 L 3.46875 -3.3125 L 3.234375 -3.3125 L 3.234375 -3.234375 C 3.234375 -3.0625 3.21875 -2.875 3.140625 -2.734375 C 3 -2.515625 2.703125 -2.5 2.453125 -2.5 L 1.765625 -2.5 L 1.765625 -4.234375 C 1.765625 -4.46875 1.890625 -4.484375 2.0625 -4.484375 L 3 -4.484375 C 3.5 -4.484375 4.046875 -4.453125 4.3125 -3.9375 C 4.4375 -3.6875 4.46875 -3.40625 4.5 -3.125 L 4.734375 -3.125 L 4.53125 -4.734375 Z M 0.390625 -4.734375 "/>
</g>
<g id="glyph-0-18">
<path d="M 0.203125 -3 L 0.203125 -2.75 L 0.3125 -2.75 C 0.671875 -2.75 0.671875 -2.59375 0.890625 -2.09375 C 1.15625 -1.453125 1.390625 -0.78125 1.65625 -0.125 C 1.703125 -0.03125 1.734375 0.0625 1.875 0.0625 C 2.015625 0.0625 2.0625 -0.09375 2.09375 -0.1875 C 2.3125 -0.703125 2.484375 -1.203125 2.6875 -1.703125 C 2.734375 -1.8125 2.78125 -1.921875 2.828125 -2.046875 L 2.84375 -2.046875 C 2.875 -1.921875 2.921875 -1.8125 2.96875 -1.703125 C 3.171875 -1.203125 3.359375 -0.703125 3.5625 -0.1875 C 3.609375 -0.09375 3.640625 0.0625 3.78125 0.0625 C 3.9375 0.0625 3.953125 -0.03125 4 -0.125 L 4.203125 -0.640625 C 4.40625 -1.15625 4.609375 -1.65625 4.8125 -2.15625 C 4.90625 -2.421875 5.03125 -2.75 5.453125 -2.75 L 5.453125 -3 L 4.9375 -2.96875 L 4.265625 -3 L 4.265625 -2.75 C 4.421875 -2.75 4.609375 -2.65625 4.625 -2.46875 C 4.625 -2.265625 4.484375 -2 4.40625 -1.796875 C 4.296875 -1.53125 4.1875 -1.265625 4.078125 -1 C 4.03125 -0.84375 3.96875 -0.703125 3.921875 -0.5625 C 3.703125 -1.0625 3.53125 -1.546875 3.328125 -2.046875 L 3.171875 -2.421875 C 3.15625 -2.46875 3.140625 -2.53125 3.140625 -2.578125 L 3.140625 -2.609375 C 3.171875 -2.75 3.375 -2.75 3.5 -2.75 L 3.5 -3 L 2.140625 -3 L 2.140625 -2.75 L 2.25 -2.75 C 2.40625 -2.75 2.5625 -2.71875 2.65625 -2.5 C 2.671875 -2.46875 2.6875 -2.421875 2.6875 -2.375 L 2.6875 -2.359375 C 2.6875 -2.3125 2.65625 -2.265625 2.640625 -2.21875 C 2.59375 -2.109375 2.546875 -2 2.5 -1.875 L 2.1875 -1.078125 C 2.140625 -0.953125 2.09375 -0.796875 2.015625 -0.671875 C 1.796875 -1.25 1.578125 -1.828125 1.328125 -2.421875 C 1.3125 -2.46875 1.28125 -2.515625 1.28125 -2.578125 L 1.28125 -2.59375 C 1.328125 -2.734375 1.5 -2.75 1.625 -2.75 L 1.65625 -2.75 L 1.65625 -3 Z M 0.203125 -3 "/>
</g>
<g id="glyph-0-19">
<path d="M 0.328125 -2.984375 L 0.328125 -2.734375 L 0.484375 -2.734375 C 0.6875 -2.734375 0.859375 -2.71875 0.859375 -2.453125 L 0.859375 0.828125 C 0.859375 1.0625 0.6875 1.09375 0.5 1.09375 L 0.328125 1.09375 L 0.328125 1.34375 L 1.9375 1.34375 L 1.9375 1.09375 L 1.765625 1.09375 C 1.578125 1.09375 1.40625 1.078125 1.40625 0.828125 L 1.40625 -0.328125 C 1.671875 -0.0625 2.015625 0.0625 2.375 0.0625 C 3.234375 0.0625 4.0625 -0.59375 4.0625 -1.515625 C 4.0625 -2.34375 3.359375 -3.0625 2.46875 -3.0625 C 2.0625 -3.0625 1.671875 -2.921875 1.390625 -2.65625 L 1.390625 -3.0625 Z M 3.421875 -1.390625 C 3.375 -0.796875 3 -0.125 2.3125 -0.125 C 2 -0.125 1.703125 -0.296875 1.515625 -0.546875 C 1.453125 -0.609375 1.40625 -0.6875 1.40625 -0.78125 L 1.40625 -1.890625 C 1.40625 -1.984375 1.40625 -2.0625 1.40625 -2.15625 C 1.40625 -2.53125 1.921875 -2.84375 2.375 -2.84375 C 3.09375 -2.84375 3.4375 -2.09375 3.4375 -1.5 C 3.4375 -1.46875 3.4375 -1.4375 3.421875 -1.390625 Z M 3.421875 -1.390625 "/>
</g>
<g id="glyph-0-20">
<path d="M 0.328125 -2.984375 L 0.328125 -2.734375 L 0.4375 -2.734375 C 0.640625 -2.734375 0.859375 -2.71875 0.859375 -2.390625 L 0.859375 -0.546875 C 0.859375 -0.265625 0.6875 -0.25 0.328125 -0.25 L 0.328125 0 L 2.03125 0 L 2.03125 -0.25 C 1.953125 -0.25 1.875 -0.25 1.796875 -0.25 C 1.578125 -0.25 1.390625 -0.28125 1.390625 -0.53125 L 1.390625 -1.078125 C 1.390625 -1.203125 1.375 -1.34375 1.375 -1.484375 C 1.375 -2.03125 1.5625 -2.875 2.3125 -2.875 L 2.3125 -2.859375 C 2.234375 -2.8125 2.203125 -2.71875 2.203125 -2.625 C 2.203125 -2.421875 2.34375 -2.296875 2.515625 -2.296875 C 2.703125 -2.296875 2.828125 -2.453125 2.828125 -2.609375 C 2.828125 -2.90625 2.546875 -3.0625 2.28125 -3.0625 C 1.828125 -3.0625 1.4375 -2.6875 1.34375 -2.296875 L 1.328125 -3.0625 L 0.984375 -3.03125 Z M 0.328125 -2.984375 "/>
</g>
<g id="glyph-0-21">
<path d="M 0.390625 -4.75 L 0.390625 -4.5 C 0.484375 -4.5 0.5625 -4.515625 0.65625 -4.515625 C 0.890625 -4.515625 1.109375 -4.484375 1.109375 -4.21875 L 1.109375 -0.65625 C 1.109375 -0.625 1.109375 -0.578125 1.109375 -0.53125 C 1.109375 -0.28125 0.875 -0.25 0.625 -0.25 C 0.546875 -0.25 0.453125 -0.25 0.390625 -0.25 L 0.390625 0 L 4.3125 0 L 4.53125 -1.828125 L 4.296875 -1.828125 C 4.21875 -1.09375 4.0625 -0.25 2.71875 -0.25 L 2.03125 -0.25 C 1.890625 -0.25 1.765625 -0.28125 1.765625 -0.484375 L 1.765625 -4.203125 C 1.765625 -4.484375 2 -4.515625 2.21875 -4.515625 C 2.296875 -4.515625 2.359375 -4.5 2.421875 -4.5 L 2.65625 -4.5 L 2.65625 -4.75 L 1.65625 -4.75 L 1.515625 -4.734375 L 0.6875 -4.734375 Z M 0.390625 -4.75 "/>
</g>
<g id="glyph-0-22">
<path d="M 0.40625 -4.75 L 0.40625 -4.5 C 0.5 -4.5 0.578125 -4.515625 0.671875 -4.515625 C 0.90625 -4.515625 1.125 -4.484375 1.125 -4.21875 L 1.125 -0.65625 C 1.125 -0.625 1.125 -0.578125 1.125 -0.53125 C 1.125 -0.28125 0.890625 -0.25 0.671875 -0.25 C 0.578125 -0.25 0.484375 -0.25 0.40625 -0.25 L 0.40625 0 L 2.5 0 L 2.5 -0.25 C 2.40625 -0.25 2.296875 -0.25 2.203125 -0.25 C 1.96875 -0.25 1.78125 -0.296875 1.78125 -0.5625 L 1.78125 -2.15625 L 2.984375 -2.15625 C 3.671875 -2.15625 4.453125 -2.390625 4.78125 -3.078125 C 4.828125 -3.1875 4.859375 -3.3125 4.859375 -3.453125 C 4.859375 -4.390625 3.671875 -4.765625 2.9375 -4.765625 C 2.78125 -4.765625 2.65625 -4.75 2.5 -4.75 Z M 1.75 -2.390625 L 1.75 -4.296875 C 1.75 -4.484375 1.875 -4.5 2.015625 -4.5 L 2.671875 -4.5 C 3.296875 -4.5 4.109375 -4.46875 4.109375 -3.453125 C 4.109375 -3.203125 4.078125 -2.921875 3.890625 -2.71875 C 3.609375 -2.421875 3.171875 -2.390625 2.78125 -2.390625 Z M 1.75 -2.390625 "/>
</g>
<g id="glyph-0-23">
<path d="M 0.359375 -4.75 L 0.359375 -4.5 C 0.453125 -4.5 0.5625 -4.515625 0.65625 -4.515625 C 0.890625 -4.515625 1.109375 -4.46875 1.109375 -4.203125 L 1.109375 -0.546875 C 1.109375 -0.296875 0.875 -0.25 0.640625 -0.25 C 0.546875 -0.25 0.4375 -0.25 0.359375 -0.25 L 0.359375 0 L 2.515625 0 L 2.515625 -0.25 C 2.4375 -0.25 2.34375 -0.25 2.25 -0.25 C 1.953125 -0.25 1.765625 -0.28125 1.765625 -0.5625 L 1.765625 -4.21875 C 1.765625 -4.46875 2 -4.515625 2.21875 -4.515625 C 2.328125 -4.515625 2.4375 -4.5 2.515625 -4.5 L 2.515625 -4.75 L 1.640625 -4.75 L 1.484375 -4.734375 L 0.65625 -4.734375 Z M 0.359375 -4.75 "/>
</g>
<g id="glyph-0-24">
<path d="M 0.9375 -0.34375 C 1.0625 -0.265625 1.15625 -0.171875 1.28125 -0.109375 C 1.625 0.0625 2.015625 0.125 2.375 0.125 C 3.15625 0.125 3.84375 -0.4375 3.90625 -1.203125 L 3.90625 -1.265625 C 3.90625 -1.90625 3.484375 -2.46875 2.875 -2.640625 C 2.75 -2.6875 2.625 -2.703125 2.5 -2.734375 L 1.984375 -2.84375 C 1.8125 -2.890625 1.640625 -2.90625 1.46875 -2.984375 C 1.171875 -3.140625 0.921875 -3.421875 0.921875 -3.765625 L 0.921875 -3.8125 C 0.984375 -4.375 1.515625 -4.671875 2.015625 -4.671875 C 2.734375 -4.671875 3.34375 -4.171875 3.4375 -3.34375 C 3.453125 -3.25 3.453125 -3.171875 3.5625 -3.171875 C 3.671875 -3.171875 3.6875 -3.25 3.6875 -3.3125 L 3.6875 -4.78125 C 3.6875 -4.828125 3.671875 -4.890625 3.59375 -4.890625 C 3.453125 -4.890625 3.25 -4.46875 3.21875 -4.40625 C 3.09375 -4.5 3 -4.609375 2.875 -4.671875 C 2.609375 -4.828125 2.3125 -4.890625 2 -4.890625 C 1.234375 -4.890625 0.46875 -4.375 0.46875 -3.5625 C 0.46875 -3.078125 0.8125 -2.59375 1.25 -2.40625 C 1.421875 -2.328125 1.609375 -2.28125 1.78125 -2.234375 L 2.3125 -2.125 C 2.546875 -2.078125 2.78125 -2.03125 2.984375 -1.90625 C 3.28125 -1.71875 3.453125 -1.421875 3.453125 -1.09375 C 3.453125 -0.484375 2.890625 -0.125 2.34375 -0.125 C 1.640625 -0.125 0.875 -0.4375 0.734375 -1.234375 L 0.71875 -1.46875 C 0.71875 -1.546875 0.6875 -1.59375 0.609375 -1.59375 C 0.5 -1.59375 0.484375 -1.515625 0.484375 -1.453125 L 0.484375 0.015625 C 0.484375 0.0625 0.5 0.125 0.5625 0.125 C 0.6875 0.125 0.75 -0.046875 0.8125 -0.140625 C 0.859375 -0.203125 0.90625 -0.265625 0.9375 -0.34375 Z M 0.9375 -0.34375 "/>
</g>
<g id="glyph-0-25">
<path d="M 1.40625 -0.125 C 1.40625 0.34375 1.265625 0.765625 0.90625 1.109375 C 0.875 1.140625 0.828125 1.1875 0.828125 1.25 C 0.828125 1.3125 0.875 1.328125 0.921875 1.328125 C 1.046875 1.328125 1.21875 1.078125 1.3125 0.953125 C 1.5 0.671875 1.609375 0.3125 1.609375 -0.03125 C 1.609375 -0.34375 1.515625 -0.8125 1.125 -0.8125 C 0.890625 -0.8125 0.71875 -0.609375 0.71875 -0.40625 C 0.71875 -0.1875 0.890625 0 1.109375 0 C 1.21875 0 1.328125 -0.046875 1.40625 -0.125 Z M 1.40625 -0.125 "/>
</g>
<g id="glyph-0-26">
<path d="M 3.015625 -4.890625 C 2.171875 -4.796875 1.390625 -4.484375 0.890625 -3.71875 C 0.625 -3.3125 0.484375 -2.859375 0.484375 -2.390625 C 0.484375 -0.984375 1.71875 0.125 3.140625 0.125 C 4 0.125 4.84375 -0.359375 5.109375 -1.203125 C 5.140625 -1.328125 5.171875 -1.453125 5.1875 -1.59375 L 5.1875 -1.640625 C 5.1875 -1.71875 5.15625 -1.78125 5.0625 -1.78125 C 4.921875 -1.78125 4.953125 -1.65625 4.9375 -1.5625 C 4.859375 -0.703125 4.09375 -0.125 3.25 -0.125 C 2.703125 -0.125 2.15625 -0.34375 1.78125 -0.734375 C 1.375 -1.171875 1.21875 -1.78125 1.21875 -2.359375 C 1.21875 -2.890625 1.328125 -3.421875 1.640625 -3.859375 C 2 -4.359375 2.609375 -4.640625 3.21875 -4.640625 C 4.09375 -4.640625 4.765625 -3.953125 4.90625 -3.125 C 4.921875 -3.03125 4.890625 -2.90625 5.0625 -2.90625 C 5.171875 -2.90625 5.1875 -2.953125 5.1875 -3.015625 L 5.1875 -4.765625 C 5.1875 -4.828125 5.171875 -4.890625 5.09375 -4.890625 C 4.921875 -4.890625 4.671875 -4.296875 4.59375 -4.296875 C 4.546875 -4.296875 4.484375 -4.375 4.453125 -4.421875 C 4.09375 -4.703125 3.640625 -4.90625 3.171875 -4.90625 C 3.125 -4.90625 3.0625 -4.90625 3.015625 -4.890625 Z M 3.015625 -4.890625 "/>
</g>
<g id="glyph-0-27">
<path d="M 1.859375 -3.09375 C 1.0625 -3.015625 0.265625 -2.453125 0.265625 -1.484375 L 0.265625 -1.421875 C 0.3125 -0.484375 1.171875 0.0625 2 0.0625 C 2.78125 0.0625 3.625 -0.5 3.671875 -1.421875 L 3.671875 -1.453125 C 3.671875 -2.421875 2.875 -3.09375 1.9375 -3.09375 Z M 0.90625 -1.359375 C 0.90625 -1.421875 0.890625 -1.46875 0.890625 -1.53125 C 0.890625 -1.90625 0.9375 -2.359375 1.265625 -2.65625 C 1.453125 -2.828125 1.703125 -2.90625 1.953125 -2.90625 C 2.28125 -2.90625 2.59375 -2.78125 2.796875 -2.53125 C 3.015625 -2.28125 3.046875 -1.921875 3.046875 -1.625 C 3.046875 -1.234375 3.03125 -0.796875 2.765625 -0.484375 C 2.5625 -0.265625 2.265625 -0.15625 1.96875 -0.15625 C 1.4375 -0.15625 1.03125 -0.5 0.9375 -1.078125 C 0.921875 -1.171875 0.921875 -1.265625 0.90625 -1.359375 Z M 0.90625 -1.359375 "/>
</g>
<g id="glyph-0-28">
<path d="M 0.90625 -3 L 0.3125 -3 L 0.3125 -2.75 L 0.90625 -2.75 L 0.90625 -0.515625 C 0.90625 -0.265625 0.703125 -0.25 0.484375 -0.25 L 0.375 -0.25 L 0.375 0 L 2.09375 0 L 2.09375 -0.25 L 1.875 -0.25 C 1.640625 -0.25 1.4375 -0.28125 1.4375 -0.53125 L 1.4375 -2.75 L 2.3125 -2.75 L 2.3125 -3 L 1.40625 -3 L 1.40625 -3.640625 C 1.40625 -3.828125 1.40625 -4.03125 1.46875 -4.21875 C 1.578125 -4.453125 1.765625 -4.6875 2.046875 -4.703125 L 2.078125 -4.703125 C 2.15625 -4.703125 2.21875 -4.6875 2.28125 -4.671875 C 2.203125 -4.609375 2.140625 -4.53125 2.140625 -4.390625 C 2.140625 -4.21875 2.265625 -4.078125 2.46875 -4.078125 C 2.671875 -4.078125 2.78125 -4.25 2.78125 -4.40625 C 2.78125 -4.75 2.390625 -4.90625 2.09375 -4.90625 C 1.59375 -4.90625 1.109375 -4.609375 0.953125 -4.125 C 0.90625 -3.984375 0.90625 -3.859375 0.90625 -3.71875 Z M 0.90625 -3 "/>
</g>
<g id="glyph-1-0">
</g>
<g id="glyph-1-1">
<path d="M 2.8125 -1.984375 C 3.15625 -1.203125 3.546875 -0.1875 3.625 -0.09375 C 3.765625 0.0625 3.890625 0.0625 4 0.0625 L 4.140625 0.0625 C 4.265625 0.0625 4.34375 0.0625 4.34375 -0.015625 C 4.34375 -0.046875 4.3125 -0.0625 4.296875 -0.078125 C 4.21875 -0.15625 4.15625 -0.3125 4.125 -0.375 L 2.421875 -4.390625 C 2.375 -4.515625 2.234375 -4.828125 1.5 -4.828125 C 1.421875 -4.828125 1.328125 -4.828125 1.328125 -4.734375 C 1.328125 -4.640625 1.390625 -4.640625 1.421875 -4.625 C 1.578125 -4.609375 1.703125 -4.59375 1.875 -4.1875 L 2.703125 -2.25 L 0.65625 -0.390625 C 0.5625 -0.328125 0.515625 -0.265625 0.515625 -0.15625 C 0.515625 0.015625 0.65625 0.078125 0.75 0.078125 C 0.890625 0.078125 0.96875 0 0.984375 -0.03125 Z M 2.8125 -1.984375 "/>
</g>
<g id="glyph-2-0">
</g>
<g id="glyph-2-1">
<path d="M 1.640625 0.75 L 1.5625 0.75 C 1.234375 0.75 1.234375 0.703125 1.234375 0.546875 L 1.234375 -0.234375 C 1.453125 -0.046875 1.71875 0.046875 2 0.046875 C 2.75 0.046875 3.359375 -0.453125 3.359375 -1.078125 C 3.359375 -1.671875 2.8125 -2.203125 2.078125 -2.203125 C 1.6875 -2.203125 1.375 -2.0625 1.21875 -1.90625 L 1.21875 -2.203125 L 0.375 -2.140625 L 0.375 -1.921875 C 0.734375 -1.921875 0.796875 -1.921875 0.796875 -1.703125 L 0.796875 0.546875 C 0.796875 0.703125 0.796875 0.75 0.46875 0.75 L 0.375 0.75 L 0.375 0.96875 C 0.59375 0.953125 0.796875 0.9375 1.015625 0.9375 C 1.21875 0.9375 1.4375 0.953125 1.640625 0.96875 Z M 1.234375 -1.65625 C 1.453125 -1.953125 1.828125 -2.015625 2.015625 -2.015625 C 2.515625 -2.015625 2.859375 -1.578125 2.859375 -1.078125 C 2.859375 -0.53125 2.453125 -0.109375 1.96875 -0.109375 C 1.734375 -0.109375 1.46875 -0.203125 1.296875 -0.421875 C 1.234375 -0.515625 1.234375 -0.515625 1.234375 -0.609375 Z M 1.234375 -1.65625 "/>
</g>
<g id="glyph-2-2">
<path d="M 2.984375 -1.5 C 2.984375 -2.046875 2.609375 -2.203125 2.140625 -2.203125 C 1.578125 -2.203125 1.3125 -1.859375 1.234375 -1.75 L 1.234375 -3.453125 L 0.40625 -3.390625 L 0.40625 -3.171875 C 0.78125 -3.171875 0.8125 -3.140625 0.8125 -2.890625 L 0.8125 -0.421875 C 0.8125 -0.265625 0.8125 -0.21875 0.5 -0.21875 L 0.40625 -0.21875 L 0.40625 0 C 0.625 -0.015625 0.828125 -0.015625 1.046875 -0.015625 C 1.25 -0.015625 1.46875 -0.015625 1.671875 0 L 1.671875 -0.21875 L 1.578125 -0.21875 C 1.265625 -0.21875 1.265625 -0.265625 1.265625 -0.421875 L 1.265625 -1.28125 C 1.265625 -1.84375 1.78125 -2.03125 2.09375 -2.03125 C 2.453125 -2.03125 2.53125 -1.828125 2.53125 -1.5 L 2.53125 -0.421875 C 2.53125 -0.265625 2.53125 -0.21875 2.21875 -0.21875 L 2.125 -0.21875 L 2.125 0 C 2.34375 -0.015625 2.546875 -0.015625 2.765625 -0.015625 C 2.96875 -0.015625 3.1875 -0.015625 3.390625 0 L 3.390625 -0.21875 L 3.296875 -0.21875 C 2.984375 -0.21875 2.984375 -0.265625 2.984375 -0.421875 Z M 2.984375 -1.5 "/>
</g>
<g id="glyph-2-3">
<path d="M 2.734375 -1.609375 C 2.796875 -1.734375 2.890625 -1.921875 3.265625 -1.921875 L 3.265625 -2.140625 C 3.171875 -2.125 3.015625 -2.125 2.828125 -2.125 C 2.671875 -2.125 2.484375 -2.125 2.328125 -2.140625 L 2.328125 -1.921875 C 2.46875 -1.921875 2.546875 -1.84375 2.546875 -1.75 C 2.546875 -1.703125 2.53125 -1.671875 2.515625 -1.640625 L 1.890625 -0.453125 L 1.21875 -1.734375 C 1.1875 -1.796875 1.1875 -1.8125 1.1875 -1.828125 C 1.1875 -1.90625 1.328125 -1.921875 1.453125 -1.921875 L 1.453125 -2.140625 C 1.25 -2.125 1.046875 -2.125 0.828125 -2.125 C 0.625 -2.125 0.5 -2.125 0.28125 -2.140625 L 0.28125 -1.921875 C 0.625 -1.921875 0.65625 -1.90625 0.734375 -1.765625 L 1.65625 0 C 1.453125 0.4375 1.234375 0.859375 0.828125 0.859375 C 0.703125 0.859375 0.65625 0.828125 0.609375 0.796875 C 0.640625 0.78125 0.75 0.71875 0.75 0.578125 C 0.75 0.421875 0.625 0.328125 0.5 0.328125 C 0.390625 0.328125 0.265625 0.40625 0.265625 0.578125 C 0.265625 0.828125 0.515625 1.015625 0.828125 1.015625 C 1.125 1.015625 1.453125 0.828125 1.671875 0.40625 Z M 2.734375 -1.609375 "/>
</g>
<g id="glyph-2-4">
<path d="M 2.21875 -2.09375 C 2.21875 -2.171875 2.21875 -2.21875 2.140625 -2.21875 C 2.109375 -2.21875 2.09375 -2.21875 2.0625 -2.1875 C 2.03125 -2.171875 1.953125 -2.09375 1.921875 -2.09375 C 1.921875 -2.09375 1.90625 -2.09375 1.890625 -2.109375 C 1.765625 -2.171875 1.578125 -2.21875 1.34375 -2.21875 C 0.515625 -2.21875 0.34375 -1.84375 0.34375 -1.625 C 0.34375 -1.15625 0.921875 -1.0625 1.375 -1 C 1.671875 -0.953125 2.125 -0.875 2.125 -0.546875 C 2.125 -0.375 1.984375 -0.109375 1.375 -0.109375 C 1.046875 -0.109375 0.71875 -0.234375 0.5625 -0.765625 C 0.546875 -0.84375 0.53125 -0.859375 0.453125 -0.859375 C 0.34375 -0.859375 0.34375 -0.828125 0.34375 -0.71875 L 0.34375 -0.078125 C 0.34375 0 0.34375 0.046875 0.421875 0.046875 C 0.46875 0.046875 0.46875 0.046875 0.5625 -0.046875 L 0.703125 -0.171875 C 0.9375 0.046875 1.25 0.046875 1.375 0.046875 C 2.21875 0.046875 2.375 -0.375 2.375 -0.625 C 2.375 -0.84375 2.25 -1.015625 2.0625 -1.140625 C 1.859375 -1.25 1.71875 -1.28125 1.296875 -1.34375 C 0.984375 -1.390625 0.59375 -1.453125 0.59375 -1.71875 C 0.59375 -1.890625 0.796875 -2.078125 1.328125 -2.078125 C 1.75 -2.078125 1.984375 -1.90625 2.015625 -1.5625 C 2.015625 -1.5 2.015625 -1.46875 2.109375 -1.46875 C 2.21875 -1.46875 2.21875 -1.5 2.21875 -1.609375 Z M 2.21875 -2.09375 "/>
</g>
</g>
<clipPath id="clip-0">
<path clip-rule="nonzero" d="M 0 0.0390625 L 71 0.0390625 L 71 40 L 0 40 Z M 0 0.0390625 "/>
</clipPath>
<clipPath id="clip-1">
<path clip-rule="nonzero" d="M 58 0.0390625 L 134 0.0390625 L 134 40 L 58 40 Z M 58 0.0390625 "/>
</clipPath>
<clipPath id="clip-2">
<path clip-rule="nonzero" d="M 121 0.0390625 L 185 0.0390625 L 185 39 L 121 39 Z M 121 0.0390625 "/>
</clipPath>
<clipPath id="clip-3">
<path clip-rule="nonzero" d="M 56 27 L 136 27 L 136 65.835938 L 56 65.835938 Z M 56 27 "/>
</clipPath>
<clipPath id="clip-4">
<path clip-rule="nonzero" d="M 123 27 L 190.199219 27 L 190.199219 65.835938 L 123 65.835938 Z M 123 27 "/>
</clipPath>
</defs>
<path fill-rule="nonzero" fill="rgb(92.001343%, 97.427368%, 99.497986%)" fill-opacity="1" d="M 57.261719 6.402344 L 8.351562 6.402344 C 7.253906 6.402344 6.363281 7.289062 6.363281 8.390625 L 6.363281 25.859375 C 6.363281 26.957031 7.253906 27.847656 8.351562 27.847656 L 57.261719 27.847656 C 58.359375 27.847656 59.25 26.957031 59.25 25.859375 L 59.25 8.390625 C 59.25 7.289062 58.359375 6.402344 57.261719 6.402344 Z M 57.261719 6.402344 "/>
<g clip-path="url(#clip-0)">
<path fill="none" stroke-width="0.79701" stroke-linecap="butt" stroke-linejoin="miter" stroke="rgb(27.529907%, 49.189758%, 59.138489%)" stroke-opacity="1" stroke-miterlimit="10" d="M 24.507191 10.74355 L -24.505867 10.74355 C -25.605832 10.74355 -26.498331 9.854965 -26.498331 8.751085 L -26.498331 -8.754417 C -26.498331 -9.854383 -25.605832 -10.746881 -24.505867 -10.746881 L 24.507191 -10.746881 C 25.607157 -10.746881 26.499656 -9.854383 26.499656 -8.754417 L 26.499656 8.751085 C 26.499656 9.854965 25.607157 10.74355 24.507191 10.74355 Z M 24.507191 10.74355 " transform="matrix(0.997901, 0, 0, -0.997901, 32.80598, 17.123338)"/>
</g>
<g fill="rgb(0%, 0%, 0%)" fill-opacity="1">
<use xlink:href="#glyph-0-1" x="18.627809" y="14.673492"/>
<use xlink:href="#glyph-0-2" x="23.017646" y="14.673492"/>
<use xlink:href="#glyph-0-3" x="26.979495" y="14.673492"/>
<use xlink:href="#glyph-0-2" x="30.085368" y="14.673492"/>
<use xlink:href="#glyph-0-4" x="34.047217" y="14.673492"/>
<use xlink:href="#glyph-0-5" x="37.196236" y="14.673492"/>
<use xlink:href="#glyph-0-3" x="40.730097" y="14.673492"/>
<use xlink:href="#glyph-0-4" x="43.83597" y="14.673492"/>
</g>
<g fill="rgb(0%, 0%, 0%)" fill-opacity="1">
<use xlink:href="#glyph-0-6" x="9.842293" y="22.627757"/>
<use xlink:href="#glyph-0-7" x="15.184839" y="22.627757"/>
</g>
<g fill="rgb(0%, 0%, 0%)" fill-opacity="1">
<use xlink:href="#glyph-0-8" x="23.965905" y="22.627757"/>
</g>
<g fill="rgb(0%, 0%, 0%)" fill-opacity="1">
<use xlink:href="#glyph-0-9" x="30.607031" y="22.627757"/>
<use xlink:href="#glyph-0-10" x="34.140891" y="22.627757"/>
<use xlink:href="#glyph-0-11" x="36.390787" y="22.627757"/>
<use xlink:href="#glyph-0-12" x="38.640683" y="22.627757"/>
<use xlink:href="#glyph-0-2" x="45.170462" y="22.627757"/>
<use xlink:href="#glyph-0-3" x="49.132311" y="22.627757"/>
<use xlink:href="#glyph-0-5" x="52.238183" y="22.627757"/>
</g>
<path fill-rule="nonzero" fill="rgb(91.999817%, 100%, 91.999817%)" fill-opacity="1" d="M 119.875 6.402344 L 71.9375 6.402344 C 70.839844 6.402344 69.949219 7.289062 69.949219 8.390625 L 69.949219 25.859375 C 69.949219 26.957031 70.839844 27.847656 71.9375 27.847656 L 119.875 27.847656 C 120.972656 27.847656 121.863281 26.957031 121.863281 25.859375 L 121.863281 8.390625 C 121.863281 7.289062 120.972656 6.402344 119.875 6.402344 Z M 119.875 6.402344 "/>
<g clip-path="url(#clip-1)">
<path fill="none" stroke-width="0.79701" stroke-linecap="butt" stroke-linejoin="miter" stroke="rgb(0%, 44.999695%, 0%)" stroke-opacity="1" stroke-miterlimit="10" d="M 87.252204 10.74355 L 39.213849 10.74355 C 38.113883 10.74355 37.221384 9.854965 37.221384 8.751085 L 37.221384 -8.754417 C 37.221384 -9.854383 38.113883 -10.746881 39.213849 -10.746881 L 87.252204 -10.746881 C 88.35217 -10.746881 89.244669 -9.854383 89.244669 -8.754417 L 89.244669 8.751085 C 89.244669 9.854965 88.35217 10.74355 87.252204 10.74355 Z M 87.252204 10.74355 " transform="matrix(0.997901, 0, 0, -0.997901, 32.80598, 17.123338)"/>
</g>
<g fill="rgb(0%, 0%, 0%)" fill-opacity="1">
<use xlink:href="#glyph-0-13" x="80.602421" y="14.673492"/>
<use xlink:href="#glyph-0-2" x="84.992258" y="14.673492"/>
<use xlink:href="#glyph-0-4" x="88.954107" y="14.673492"/>
<use xlink:href="#glyph-0-5" x="92.103127" y="14.673492"/>
<use xlink:href="#glyph-0-10" x="95.636987" y="14.673492"/>
<use xlink:href="#glyph-0-11" x="97.886883" y="14.673492"/>
<use xlink:href="#glyph-0-14" x="100.136779" y="14.673492"/>
<use xlink:href="#glyph-0-5" x="104.526617" y="14.673492"/>
<use xlink:href="#glyph-0-4" x="108.060478" y="14.673492"/>
</g>
<g fill="rgb(0%, 0%, 0%)" fill-opacity="1">
<use xlink:href="#glyph-0-13" x="73.429512" y="22.627757"/>
<use xlink:href="#glyph-0-11" x="77.819349" y="22.627757"/>
<use xlink:href="#glyph-0-9" x="80.069245" y="22.627757"/>
<use xlink:href="#glyph-0-15" x="83.603106" y="22.627757"/>
<use xlink:href="#glyph-0-13" x="87.992943" y="22.627757"/>
<use xlink:href="#glyph-0-11" x="92.382781" y="22.627757"/>
<use xlink:href="#glyph-0-9" x="94.632677" y="22.627757"/>
</g>
<g fill="rgb(0%, 0%, 0%)" fill-opacity="1">
<use xlink:href="#glyph-0-8" x="100.845814" y="22.627757"/>
</g>
<g fill="rgb(0%, 0%, 0%)" fill-opacity="1">
<use xlink:href="#glyph-0-16" x="107.486939" y="22.627757"/>
<use xlink:href="#glyph-0-17" x="113.257473" y="22.627757"/>
</g>
<path fill-rule="nonzero" fill="rgb(91.999817%, 100%, 91.999817%)" fill-opacity="1" d="M 171.601562 7.160156 L 134.5625 7.160156 C 133.464844 7.160156 132.574219 8.046875 132.574219 9.148438 L 132.574219 25.101562 C 132.574219 26.199219 133.464844 27.089844 134.5625 27.089844 L 171.601562 27.089844 C 172.699219 27.089844 173.589844 26.199219 173.589844 25.101562 L 173.589844 9.148438 C 173.589844 8.046875 172.699219 7.160156 171.601562 7.160156 Z M 171.601562 7.160156 "/>
<g clip-path="url(#clip-2)">
<path fill="none" stroke-width="0.79701" stroke-linecap="butt" stroke-linejoin="miter" stroke="rgb(0%, 44.999695%, 0%)" stroke-opacity="1" stroke-miterlimit="10" d="M 139.087594 9.984143 L 101.970605 9.984143 C 100.87064 9.984143 99.978141 9.095558 99.978141 7.991678 L 99.978141 -7.99501 C 99.978141 -9.094976 100.87064 -9.987475 101.970605 -9.987475 L 139.087594 -9.987475 C 140.18756 -9.987475 141.080058 -9.094976 141.080058 -7.99501 L 141.080058 7.991678 C 141.080058 9.095558 140.18756 9.984143 139.087594 9.984143 Z M 139.087594 9.984143 " transform="matrix(0.997901, 0, 0, -0.997901, 32.80598, 17.123338)"/>
</g>
<g fill="rgb(0%, 0%, 0%)" fill-opacity="1">
<use xlink:href="#glyph-0-4" x="141.472357" y="13.634677"/>
<use xlink:href="#glyph-0-18" x="144.621377" y="13.634677"/>
</g>
<g fill="rgb(0%, 0%, 0%)" fill-opacity="1">
<use xlink:href="#glyph-0-5" x="150.079445" y="13.634677"/>
<use xlink:href="#glyph-0-5" x="153.613305" y="13.634677"/>
<use xlink:href="#glyph-0-19" x="157.147166" y="13.634677"/>
<use xlink:href="#glyph-0-4" x="161.537004" y="13.634677"/>
</g>
<g fill="rgb(0%, 0%, 0%)" fill-opacity="1">
<use xlink:href="#glyph-1-1" x="143.69069" y="21.587945"/>
</g>
<g fill="rgb(0%, 0%, 0%)" fill-opacity="1">
<use xlink:href="#glyph-2-1" x="148.40577" y="22.642725"/>
<use xlink:href="#glyph-2-2" x="152.133901" y="22.642725"/>
</g>
<g fill="rgb(0%, 0%, 0%)" fill-opacity="1">
<use xlink:href="#glyph-2-3" x="155.688053" y="22.642725"/>
<use xlink:href="#glyph-2-4" x="159.243697" y="22.642725"/>
</g>
<path fill-rule="nonzero" fill="rgb(95.999146%, 91.999817%, 95.999146%)" fill-opacity="1" d="M 121.890625 38.542969 L 69.941406 38.542969 C 68.84375 38.542969 67.953125 39.433594 67.953125 40.53125 L 67.953125 57.488281 C 67.953125 58.585938 68.84375 59.476562 69.941406 59.476562 L 121.890625 59.476562 C 122.988281 59.476562 123.878906 58.585938 123.878906 57.488281 L 123.878906 40.53125 C 123.878906 39.433594 122.988281 38.542969 121.890625 38.542969 Z M 121.890625 38.542969 "/>
<g clip-path="url(#clip-3)">
<path fill="none" stroke-width="0.79701" stroke-linecap="butt" stroke-linejoin="miter" stroke="rgb(27.49939%, 0%, 27.49939%)" stroke-opacity="1" stroke-miterlimit="10" d="M 89.27207 -21.464696 L 37.213556 -21.464696 C 36.11359 -21.464696 35.221091 -22.357195 35.221091 -23.45716 L 35.221091 -40.449867 C 35.221091 -41.549833 36.11359 -42.442332 37.213556 -42.442332 L 89.27207 -42.442332 C 90.372035 -42.442332 91.264534 -41.549833 91.264534 -40.449867 L 91.264534 -23.45716 C 91.264534 -22.357195 90.372035 -21.464696 89.27207 -21.464696 Z M 89.27207 -21.464696 " transform="matrix(0.997901, 0, 0, -0.997901, 32.80598, 17.123338)"/>
</g>
<g fill="rgb(0%, 0%, 0%)" fill-opacity="1">
<use xlink:href="#glyph-0-12" x="83.310723" y="46.689134"/>
<use xlink:href="#glyph-0-5" x="89.840502" y="46.689134"/>
<use xlink:href="#glyph-0-3" x="93.374362" y="46.689134"/>
<use xlink:href="#glyph-0-20" x="96.480235" y="46.689134"/>
<use xlink:href="#glyph-0-11" x="99.586107" y="46.689134"/>
<use xlink:href="#glyph-0-9" x="101.836003" y="46.689134"/>
<use xlink:href="#glyph-0-4" x="105.369864" y="46.689134"/>
</g>
<g fill="rgb(0%, 0%, 0%)" fill-opacity="1">
<use xlink:href="#glyph-0-21" x="71.432713" y="54.642401"/>
<use xlink:href="#glyph-0-22" x="76.347271" y="54.642401"/>
<use xlink:href="#glyph-0-23" x="81.689817" y="54.642401"/>
<use xlink:href="#glyph-0-22" x="84.561166" y="54.642401"/>
<use xlink:href="#glyph-0-24" x="89.903712" y="54.642401"/>
<use xlink:href="#glyph-0-25" x="94.293549" y="54.642401"/>
</g>
<g fill="rgb(0%, 0%, 0%)" fill-opacity="1">
<use xlink:href="#glyph-0-26" x="99.222721" y="54.642401"/>
<use xlink:href="#glyph-0-16" x="104.896524" y="54.642401"/>
<use xlink:href="#glyph-0-22" x="110.667058" y="54.642401"/>
<use xlink:href="#glyph-0-24" x="116.009604" y="54.642401"/>
</g>
<path fill-rule="nonzero" fill="rgb(100%, 94.999695%, 89.99939%)" fill-opacity="1" d="M 181.847656 39.160156 L 136.574219 39.160156 C 135.476562 39.160156 134.585938 40.050781 134.585938 41.148438 L 134.585938 56.878906 C 134.585938 57.976562 135.476562 58.867188 136.574219 58.867188 L 181.847656 58.867188 C 182.945312 58.867188 183.835938 57.976562 183.835938 56.878906 L 183.835938 41.148438 C 183.835938 40.050781 182.945312 39.160156 181.847656 39.160156 Z M 181.847656 39.160156 "/>
<g clip-path="url(#clip-4)">
<path fill="none" stroke-width="0.79701" stroke-linecap="butt" stroke-linejoin="miter" stroke="rgb(69.999695%, 34.999084%, 0%)" stroke-opacity="1" stroke-miterlimit="10" d="M 149.355244 -22.083182 L 103.986556 -22.083182 C 102.886591 -22.083182 101.994092 -22.975681 101.994092 -24.075646 L 101.994092 -39.83921 C 101.994092 -40.939176 102.886591 -41.831675 103.986556 -41.831675 L 149.355244 -41.831675 C 150.45521 -41.831675 151.347709 -40.939176 151.347709 -39.83921 L 151.347709 -24.075646 C 151.347709 -22.975681 150.45521 -22.083182 149.355244 -22.083182 Z M 149.355244 -22.083182 " transform="matrix(0.997901, 0, 0, -0.997901, 32.80598, 17.123338)"/>
</g>
<g fill="rgb(0%, 0%, 0%)" fill-opacity="1">
<use xlink:href="#glyph-0-9" x="148.373837" y="47.433568"/>
<use xlink:href="#glyph-0-10" x="151.907698" y="47.433568"/>
<use xlink:href="#glyph-0-2" x="154.157594" y="47.433568"/>
<use xlink:href="#glyph-0-11" x="158.119443" y="47.433568"/>
<use xlink:href="#glyph-0-12" x="160.369339" y="47.433568"/>
<use xlink:href="#glyph-0-4" x="166.899118" y="47.433568"/>
</g>
<g fill="rgb(0%, 0%, 0%)" fill-opacity="1">
<use xlink:href="#glyph-0-22" x="138.065525" y="55.386835"/>
</g>
<g fill="rgb(0%, 0%, 0%)" fill-opacity="1">
<use xlink:href="#glyph-0-2" x="143.192337" y="55.386835"/>
<use xlink:href="#glyph-0-20" x="147.154186" y="55.386835"/>
<use xlink:href="#glyph-0-5" x="150.260059" y="55.386835"/>
<use xlink:href="#glyph-0-3" x="153.793919" y="55.386835"/>
<use xlink:href="#glyph-0-27" x="156.899792" y="55.386835"/>
</g>
<g fill="rgb(0%, 0%, 0%)" fill-opacity="1">
<use xlink:href="#glyph-0-28" x="163.540917" y="55.386835"/>
<use xlink:href="#glyph-0-20" x="166.005155" y="55.386835"/>
<use xlink:href="#glyph-0-27" x="169.111028" y="55.386835"/>
<use xlink:href="#glyph-0-14" x="173.072877" y="55.386835"/>
</g>
<g fill="rgb(0%, 0%, 0%)" fill-opacity="1">
<use xlink:href="#glyph-0-3" x="177.24698" y="55.386835"/>
</g>
<path fill="none" stroke-width="0.65753" stroke-linecap="round" stroke-linejoin="miter" stroke="rgb(0%, 0%, 0%)" stroke-opacity="1" stroke-miterlimit="10" d="M 29.889585 -0.00166591 L 29.905243 -0.00166591 " transform="matrix(0.997901, 0, 0, -0.997901, 32.80598, 17.123338)"/>
<path fill-rule="nonzero" fill="rgb(0%, 0%, 0%)" fill-opacity="1" stroke-width="0.65753" stroke-linecap="round" stroke-linejoin="miter" stroke="rgb(0%, 0%, 0%)" stroke-opacity="1" stroke-miterlimit="10" d="M 5.272855 -0.00166591 L 1.084373 1.532806 L 2.466181 -0.00166591 L 1.084373 -1.536137 Z M 5.272855 -0.00166591 " transform="matrix(0.997901, 0, 0, -0.997901, 60.351497, 17.123338)"/>
<path fill="none" stroke-width="0.65753" stroke-linecap="round" stroke-linejoin="miter" stroke="rgb(0%, 0%, 0%)" stroke-opacity="1" stroke-miterlimit="10" d="M 92.646342 -0.00166591 L 92.669828 -0.00166591 " transform="matrix(0.997901, 0, 0, -0.997901, 32.80598, 17.123338)"/>
<path fill-rule="nonzero" fill="rgb(0%, 0%, 0%)" fill-opacity="1" stroke-width="0.65753" stroke-linecap="round" stroke-linejoin="miter" stroke="rgb(0%, 0%, 0%)" stroke-opacity="1" stroke-miterlimit="10" d="M 5.27357 -0.00166591 L 1.081174 1.532806 L 2.466896 -0.00166591 L 1.081174 -1.536137 Z M 5.27357 -0.00166591 " transform="matrix(0.997901, 0, 0, -0.997901, 122.983596, 17.123338)"/>
<path fill="none" stroke-width="0.65753" stroke-linecap="round" stroke-linejoin="miter" stroke="rgb(0%, 0%, 0%)" stroke-opacity="1" stroke-miterlimit="10" d="M 99.328339 -11.842933 L 88.817992 -17.698977 " transform="matrix(0.997901, 0, 0, -0.997901, 32.80598, 17.123338)"/>
<path fill-rule="nonzero" fill="rgb(0%, 0%, 0%)" fill-opacity="1" stroke-width="0.65753" stroke-linecap="round" stroke-linejoin="miter" stroke="rgb(0%, 0%, 0%)" stroke-opacity="1" stroke-miterlimit="10" d="M 5.276355 0.000119659 L 1.081651 1.536051 L 2.467288 0.00180558 L 1.082257 -1.53423 Z M 5.276355 0.000119659 " transform="matrix(-0.871606, 0.485838, 0.485838, 0.871606, 123.446502, 33.666912)"/>
<path fill="none" stroke-width="0.65753" stroke-linecap="round" stroke-linejoin="miter" stroke="rgb(0%, 0%, 0%)" stroke-opacity="1" stroke-miterlimit="10" d="M 94.662293 -31.9633 L 94.689694 -31.9633 " transform="matrix(0.997901, 0, 0, -0.997901, 32.80598, 17.123338)"/>
<path fill-rule="nonzero" fill="rgb(0%, 0%, 0%)" fill-opacity="1" stroke-width="0.65753" stroke-linecap="round" stroke-linejoin="miter" stroke="rgb(0%, 0%, 0%)" stroke-opacity="1" stroke-miterlimit="10" d="M 5.274471 -0.00038476 L 1.082299 1.534956 L 2.467741 0.000176597 L 1.081685 -1.534048 Z M 5.274471 -0.00038476 " transform="matrix(0.997881, -0.00019958, -0.00019958, -0.997881, 124.998427, 49.0202)"/>
</svg>
